<?xml version="1.0" standalone="no"?>
<!DOCTYPE svg PUBLIC "-//W3C//DTD SVG 1.1//EN" "http://www.w3.org/Graphics/SVG/1.1/DTD/svg11.dtd" >
<svg>
<metadata>
Created by FontForge 20110222 at Tue Aug  6 06:09:37 2013
 By Orthosie Webhosting
Copyright (c) 2011 by Henrik Kubel, A2/SW/HK. All rights reserved.
</metadata>
<defs>
<font id="RegularMedium" horiz-adv-x="500" >
  <font-face 
    font-family="RegularMedium"
    font-weight="500"
    font-stretch="normal"
    units-per-em="1000"
    panose-1="2 0 6 3 4 0 0 2 0 3"
    ascent="750"
    descent="-250"
    x-height="448"
    cap-height="700"
    bbox="-28 -265 1154 961"
    underline-thickness="200"
    underline-position="0"
    unicode-range="U+0020-FB02"
  />
<missing-glyph horiz-adv-x="230" 
 />
    <glyph glyph-name="fi" unicode="fi" 
d="M434 448v-448h-79v383h-179v-383h-79v383h-76v65h76v117q0 58 32 96.5t104 38.5h176v-65h-165q-68 0 -68 -57v-130h258z" />
    <glyph glyph-name="fl" unicode="fl" horiz-adv-x="506" 
d="M434 700v-700h-79v635h-111q-68 0 -68 -57v-130h90v-65h-90v-383h-79v383h-76v65h76v117q0 58 32 96.5t104 38.5h201z" />
    <glyph glyph-name=".notdef" horiz-adv-x="230" 
 />
    <glyph glyph-name=".null" horiz-adv-x="0" 
 />
    <glyph glyph-name="nonmarkingreturn" horiz-adv-x="333" 
 />
    <glyph glyph-name="space" unicode=" " horiz-adv-x="215" 
 />
    <glyph glyph-name="exclam" unicode="!" horiz-adv-x="255" 
d="M162 224h-75v476h75v-476zM65 53q0 27 19 46t46 19t46 -19t19 -46t-19 -46t-46 -19t-46 19t-19 46z" />
    <glyph glyph-name="quotedbl" unicode="&#x22;" horiz-adv-x="364" 
d="M67 448v252h75v-252h-75zM221 448v252h76v-252h-76z" />
    <glyph glyph-name="numbersign" unicode="#" horiz-adv-x="543" 
d="M55 428v65h88v145h70v-145h115v145h71v-145h89v-65h-89v-117h89v-65h-89v-145h-71v145h-115v-145h-70v145h-88v65h88v117h-88zM213 428v-117h115v117h-115z" />
    <glyph glyph-name="dollar" unicode="$" horiz-adv-x="516" 
d="M468 625l-45 -56q-41 51 -102 67l-25 -244l19 -10q85 -46 121.5 -92.5t36.5 -109.5q0 -81 -58 -136.5t-158 -55.5h-1l-8 -81h-61l9 87q-103 17 -161 89l42 67q47 -67 126 -86l28 274l-29 15q-71 37 -103.5 81t-32.5 105q0 81 59.5 126.5t143.5 46.5l7 68h60l-8 -74
q89 -18 140 -81zM394 176q0 40 -24 70.5t-82 62.5l-25 -250q60 2 95.5 33.5t35.5 83.5zM144 541q0 -68 83 -112l12 -7l23 220q-58 -3 -88 -31.5t-30 -69.5z" />
    <glyph glyph-name="percent" unicode="%" horiz-adv-x="718" 
d="M52 557q0 64 45 109.5t109 45.5t109 -45.5t45 -109.5t-45 -109t-109 -45t-109 45t-45 109zM117 557q0 -38 26 -66t63 -28t63 28t26 66q0 39 -26 66.5t-63 27.5t-63 -27.5t-26 -66.5zM667 142q0 -64 -45 -109t-109 -45t-109.5 45t-45.5 109t45.5 109.5t109.5 45.5
t109 -45.5t45 -109.5zM602 142q0 39 -26 66.5t-63 27.5t-63 -27.5t-26 -66.5q0 -38 26 -66t63 -28t63 28t26 66zM670 547l-586 -449l-38 51l585 449z" />
    <glyph glyph-name="ampersand" unicode="&#x26;" horiz-adv-x="641" 
d="M496 369h86q-34 -96 -105 -213l146 -156h-105l-87 91q-68 -103 -194 -103q-87 0 -142 54t-56 131q0 113 123 216q-66 79 -66 155q0 70 48 119t131 49q73 0 118.5 -44t45.5 -107q0 -50 -25 -89l-68 16q18 43 18 64q0 42 -25.5 66t-65.5 24q-47 0 -72.5 -28t-25.5 -69
q0 -59 64 -132q38 -44 184 -202q45 78 73 158zM381 147l-176 190q-47 -49 -66 -83.5t-19 -77.5q0 -54 36.5 -85.5t85.5 -31.5q42 0 79.5 23t59.5 65z" />
    <glyph glyph-name="quotesingle" unicode="'" horiz-adv-x="209" 
d="M67 447v253h75v-253h-75z" />
    <glyph glyph-name="parenleft" unicode="(" horiz-adv-x="315" 
d="M41 281q0 117 44 216t129 203h77v-15q-169 -186 -169 -404q0 -235 169 -419v-15h-77q-173 212 -173 434z" />
    <glyph glyph-name="parenright" unicode=")" horiz-adv-x="315" 
d="M274 281q0 -222 -172 -434h-78v15q170 185 170 419q0 217 -170 404v15h78q84 -104 128 -203t44 -216z" />
    <glyph glyph-name="asterisk" unicode="*" horiz-adv-x="508" 
d="M265 525h-22q-31 112 -31 144q0 17 12.5 29t30.5 12q17 0 29 -12t12 -29q0 -32 -31 -144zM255 277h-1q-17 0 -29.5 12t-12.5 29q0 30 31 142h22q31 -112 31 -142q0 -17 -12 -29t-29 -12zM392 377q-9 5 -26 18t-30.5 24.5t-33 27.5t-23.5 20l11 21q106 -21 140 -37
q14 -8 19.5 -24.5t-1.5 -31.5q-8 -16 -24 -21t-32 3zM392 613q16 8 32 3t24 -21q7 -15 1.5 -31.5t-19.5 -24.5q-30 -15 -140 -37l-11 21q4 4 23.5 20t33 27.5t30.5 24.5t26 18zM116 377q-16 -8 -32 -3t-24 21q-7 15 -1.5 31.5t19.5 24.5q31 14 140 37l11 -21
q-5 -4 -23.5 -20t-32.5 -28t-31 -24.5t-26 -17.5zM116 613q12 -6 32 -22t50 -42l31 -26l-11 -21q-113 23 -140 37q-14 8 -19.5 24.5t1.5 31.5q8 16 24 21t32 -3z" />
    <glyph glyph-name="plus" unicode="+" 
d="M33 318v65h181v181h70v-181h182v-65h-182v-182h-70v182h-181z" />
    <glyph glyph-name="comma" unicode="," horiz-adv-x="246" 
d="M59 52q0 27 18 46t45 19t46 -19t19 -46q0 -20 -10 -40l-69 -126h-59l48 106q-38 16 -38 60z" />
    <glyph glyph-name="hyphen" unicode="-" horiz-adv-x="332" 
d="M60 212v65h212v-65h-212z" />
    <glyph glyph-name="period" unicode="." horiz-adv-x="248" 
d="M59 53q0 27 19 46t46 19t46 -19t19 -46t-19 -46t-46 -19t-46 19t-19 46z" />
    <glyph glyph-name="slash" unicode="/" horiz-adv-x="385" 
d="M40 0l236 700h70l-235 -700h-71z" />
    <glyph glyph-name="zero" unicode="0" horiz-adv-x="530" 
d="M265 712q209 0 209 -361q0 -363 -209 -363t-209 363q0 361 209 361zM136 351q0 -294 129 -294t129 294q0 293 -129 293t-129 -293z" />
    <glyph glyph-name="one" unicode="1" horiz-adv-x="530" 
d="M98 631v69h220v-631h138v-69h-358v69h139v562h-139z" />
    <glyph glyph-name="two" unicode="2" horiz-adv-x="530" 
d="M55 0v67q85 85 204 214q73 79 101.5 131t28.5 106t-33.5 89.5t-94.5 35.5q-56 0 -91.5 -30t-35.5 -83q0 -36 21 -81l-75 -16q-24 48 -24 98q0 76 56.5 128.5t149.5 52.5t150.5 -55t57.5 -137q0 -61 -38 -128.5t-140 -176.5l-135 -142h317v-73h-419z" />
    <glyph glyph-name="three" unicode="3" horiz-adv-x="530" 
d="M258 -12q-96 0 -153 57t-57 151v26h81v-28q0 -61 32 -99.5t97 -38.5q66 0 99.5 43t33.5 112q0 64 -40 104.5t-107 40.5q-49 0 -69 -4v66l205 213h-298v69h381v-79l-197 -203q90 0 148.5 -58.5t58.5 -147.5q0 -98 -58 -161t-157 -63z" />
    <glyph glyph-name="four" unicode="4" horiz-adv-x="530" 
d="M27 212v65l242 423h123v-423h109v-65h-109v-212h-78v212h-287zM310 645l-209 -368h213v368h-4z" />
    <glyph glyph-name="five" unicode="5" horiz-adv-x="530" 
d="M262 56q66 0 100 45t34 118t-33 118t-99 45t-106 -38h-69v356h364v-69h-293v-212h3q40 31 108 31q98 0 152 -61.5t54 -163.5q0 -106 -58 -171.5t-156 -65.5q-96 0 -153.5 57t-57.5 151v26h81v-28q0 -61 32 -99.5t97 -38.5z" />
    <glyph glyph-name="six" unicode="6" horiz-adv-x="530" 
d="M299 700h107q-175 -178 -244 -314l2 -1q47 45 121 45q86 0 144 -56.5t58 -163.5q0 -100 -60 -161t-156 -61q-97 0 -156.5 63t-59.5 169q0 215 244 480zM136 209q0 -66 34.5 -109t100.5 -43q65 0 100 43t35 109t-35 110t-100 44q-66 0 -100.5 -44t-34.5 -110z" />
    <glyph glyph-name="seven" unicode="7" horiz-adv-x="530" 
d="M226 0h-89l244 627h-323v73h400v-68z" />
    <glyph glyph-name="eight" unicode="8" horiz-adv-x="530" 
d="M265 712q93 0 149 -53.5t56 -140.5q0 -53 -27 -95.5t-74 -61.5q49 -21 83 -68.5t34 -102.5q0 -92 -62 -147t-159 -55t-159 55t-62 147q0 55 34 102.5t83 68.5q-47 19 -74 61.5t-27 95.5q0 87 56 140.5t149 53.5zM265 390q63 0 94.5 35.5t31.5 91.5t-31.5 91.5t-94.5 35.5
t-94.5 -35.5t-31.5 -91.5t31.5 -91.5t94.5 -35.5zM265 54q66 0 103 40t37 95t-37 95t-103 40t-103 -40t-37 -95t37 -95t103 -40z" />
    <glyph glyph-name="nine" unicode="9" horiz-adv-x="530" 
d="M231 0h-107q175 178 244 314l-2 1q-47 -45 -121 -45q-86 0 -144 56.5t-58 163.5q0 100 60 161t156 61q97 0 156.5 -63t59.5 -169q0 -215 -244 -480zM394 491q0 66 -34.5 109t-100.5 43q-65 0 -100 -43t-35 -109t35 -110t100 -44q66 0 100.5 44t34.5 110z" />
    <glyph glyph-name="colon" unicode=":" horiz-adv-x="250" 
d="M60 53q0 27 19 46t46 19t46 -19t19 -46t-19 -46t-46 -19t-46 19t-19 46zM60 395q0 27 19 46t46 19t46 -19t19 -46t-19 -46t-46 -19t-46 19t-19 46z" />
    <glyph glyph-name="semicolon" unicode=";" horiz-adv-x="258" 
d="M67 52q0 27 18.5 46t45.5 19q26 0 45 -19t19 -46q0 -22 -9 -40l-69 -126h-59l47 106q-38 16 -38 60zM66 395q0 27 19 46t46 19t46 -19t19 -46t-19 -46t-46 -19t-46 19t-19 46z" />
    <glyph glyph-name="less" unicode="&#x3c;" horiz-adv-x="594" 
d="M538 400v-65h-380l169 -168l-47 -45l-247 245l247 246l47 -46l-169 -167h380z" />
    <glyph glyph-name="equal" unicode="=" 
d="M33 405v65h433v-65h-433zM33 229v65h433v-65h-433z" />
    <glyph glyph-name="greater" unicode="&#x3e;" horiz-adv-x="594" 
d="M56 335v65h381l-169 167l46 46l247 -246l-247 -245l-46 45l169 168h-381z" />
    <glyph glyph-name="question" unicode="?" horiz-adv-x="477" 
d="M441 517q-1 -67 -40.5 -121t-128.5 -66l-5 -136h-67l-10 197h41q63 0 96 35t34 92q0 55 -32 89.5t-88 34.5q-61 0 -92.5 -36.5t-31.5 -97.5v-28h-80q-1 1 -1 31q0 93 56.5 147t148.5 54q90 0 145 -53.5t55 -141.5zM168 53q0 27 19 46t46 19t46 -19t19 -46t-19 -46
t-46 -19t-46 19t-19 46z" />
    <glyph glyph-name="at" unicode="@" horiz-adv-x="909" 
d="M436 -12q-74 0 -118.5 39.5t-44.5 103.5q0 65 42 99.5t116 34.5h105q33 0 33 32v5q0 43 -30 65t-79 22q-63 0 -125 -49l-42 59q69 61 173 61q84 0 133 -43.5t49 -115.5v-215q0 -17 10.5 -27t28.5 -10q23 0 48 21q28 25 45 75t17 110q0 144 -96 232t-239 88
q-142 0 -241.5 -97.5t-99.5 -251.5t103 -256t252 -102q117 0 194 56h111q-57 -57 -136.5 -89t-168.5 -32q-189 0 -312.5 119t-123.5 301q0 181 124.5 300.5t312.5 119.5q162 0 279 -109t117 -283q0 -120 -56.5 -192t-135.5 -72q-41 0 -67 23t-29 57q-23 -39 -63 -59t-86 -20
zM447 55q52 0 87 27t35 83v48q-12 -13 -50 -13h-70q-93 0 -93 -70q0 -31 23.5 -53t67.5 -22z" />
    <glyph glyph-name="A" unicode="A" horiz-adv-x="620" 
d="M432 239h-251l-77 -239h-82l239 700h97l241 -700h-87zM308 622l-104 -314h206z" />
    <glyph glyph-name="B" unicode="B" horiz-adv-x="550" 
d="M471 528q0 -54 -27.5 -95t-77.5 -60q65 -17 105.5 -65.5t40.5 -115.5q0 -83 -61 -137.5t-165 -54.5h-200v700h180q98 0 151.5 -51t53.5 -121zM167 335v-268h98q80 0 123 34.5t43 98.5t-47.5 99.5t-109.5 35.5h-107zM260 632h-93v-230h94q56 0 93.5 30t37.5 86
q0 59 -37.5 86.5t-94.5 27.5z" />
    <glyph glyph-name="C" unicode="C" horiz-adv-x="765" 
d="M121 350q0 -126 78 -209t202 -83q89 0 155 43.5t92 117.5h83q-32 -108 -122 -169.5t-208 -61.5q-154 0 -257.5 102.5t-103.5 259.5t103.5 259.5t257.5 102.5q118 0 208 -61.5t122 -169.5h-83q-26 74 -92 117.5t-155 43.5q-124 0 -202 -83t-78 -209z" />
    <glyph glyph-name="D" unicode="D" horiz-adv-x="687" 
d="M644 350q0 -159 -94.5 -254.5t-264.5 -95.5h-199v700h199q170 0 264.5 -95.5t94.5 -254.5zM563 350q0 139 -76.5 211t-215.5 72h-104v-566h104q139 0 215.5 72t76.5 211z" />
    <glyph glyph-name="E" unicode="E" horiz-adv-x="598" 
d="M565 700v-70h-398v-239h256v-68h-256v-254h398v-69h-479v700h479z" />
    <glyph glyph-name="F" unicode="F" horiz-adv-x="563" 
d="M443 304h-276v-304h-81v700h459v-70h-378v-257h276v-69z" />
    <glyph glyph-name="G" unicode="G" horiz-adv-x="768" 
d="M400 57q103 0 164.5 58t62.5 124h-173v69h254v-308h-73v110q-32 -53 -92.5 -87.5t-150.5 -34.5q-151 0 -251 102.5t-100 259.5t103.5 259.5t257.5 102.5q116 0 202.5 -62t118.5 -169h-84q-27 75 -88 118t-149 43q-124 0 -202 -83t-78 -209q0 -127 77 -210t201 -83z" />
    <glyph glyph-name="H" unicode="H" horiz-adv-x="672" 
d="M586 0h-81v323h-338v-323h-81v700h81v-309h338v309h81v-700z" />
    <glyph glyph-name="I" unicode="I" horiz-adv-x="253" 
d="M86 0v700h81v-700h-81z" />
    <glyph glyph-name="J" unicode="J" horiz-adv-x="253" 
d="M-28 -43h43q43 0 57 15.5t14 58.5v669h81v-681q0 -132 -142 -132h-53v70z" />
    <glyph glyph-name="K" unicode="K" horiz-adv-x="597" 
d="M167 700v-299h34l301 299h97l-335 -330l327 -370h-102l-290 333h-32v-333h-81v700h81z" />
    <glyph glyph-name="L" unicode="L" horiz-adv-x="492" 
d="M477 0h-391v700h81v-631h310v-69z" />
    <glyph glyph-name="M" unicode="M" horiz-adv-x="830" 
d="M459 121h-89l-206 496v-617h-78v700h127l204 -496l204 496h123v-700h-81v617z" />
    <glyph glyph-name="N" unicode="N" horiz-adv-x="672" 
d="M167 594v-594h-81v700h105l314 -583v583h81v-700h-96z" />
    <glyph glyph-name="O" unicode="O" horiz-adv-x="803" 
d="M402 712q151 0 256 -103t105 -259t-105 -259t-256 -103q-152 0 -257 103t-105 259t105 259t257 103zM402 57q123 0 201.5 83.5t78.5 209.5t-78.5 209t-201.5 83q-124 0 -202.5 -83t-78.5 -209t79 -209.5t202 -83.5z" />
    <glyph glyph-name="P" unicode="P" horiz-adv-x="552" 
d="M167 271v-271h-81v700h208q110 0 172.5 -60.5t62.5 -152.5t-63 -154t-172 -62h-127zM292 631h-125v-291h125q69 0 112.5 39.5t43.5 107.5q0 69 -43 106.5t-113 37.5z" />
    <glyph glyph-name="Q" unicode="Q" horiz-adv-x="803" 
d="M402 712q151 0 256 -103t105 -259q0 -105 -49.5 -188.5t-134.5 -129.5l21 -30q34 -52 80 -52l57 3v-69q-25 -4 -62 -4q-82 0 -131 71l-35 52q-57 -15 -107 -15q-152 0 -257 103t-105 259t105 259t257 103zM402 57q38 0 67 7l-72 108l61 42l82 -123q66 36 104 104.5
t38 154.5q0 126 -78.5 209t-201.5 83q-124 0 -202.5 -83t-78.5 -209t79 -209.5t202 -83.5z" />
    <glyph glyph-name="R" unicode="R" horiz-adv-x="560" 
d="M439 0l-163 306h-109v-306h-81v700h195q110 0 172 -52.5t62 -141.5q0 -62 -37.5 -116t-123.5 -74l176 -316h-91zM434 503q0 63 -42.5 95.5t-114.5 32.5h-110v-256h110q71 0 114 33.5t43 94.5z" />
    <glyph glyph-name="S" unicode="S" horiz-adv-x="504" 
d="M459 625l-45 -56q-27 34 -67 54t-83 20q-62 0 -95.5 -29.5t-33.5 -72.5q0 -68 83 -112l88 -47q85 -46 121.5 -92.5t36.5 -109.5q0 -81 -58 -136.5t-158 -55.5q-71 0 -130 27t-92 68l42 67q66 -91 177 -91q64 0 102 32t38 85q0 43 -26.5 74.5t-91.5 64.5l-74 38
q-71 37 -103.5 81t-32.5 105q0 82 60.5 127.5t145.5 45.5q57 0 109.5 -22.5t86.5 -64.5z" />
    <glyph glyph-name="T" unicode="T" horiz-adv-x="559" 
d="M21 700h517v-69h-218v-631h-81v631h-218v69z" />
    <glyph glyph-name="U" unicode="U" horiz-adv-x="634" 
d="M317 -12q-116 0 -177 66t-61 171v475h81v-470q0 -75 38.5 -125t120.5 -50q81 0 120 50.5t39 124.5v470h77v-475q0 -105 -61 -171t-177 -66z" />
    <glyph glyph-name="V" unicode="V" horiz-adv-x="618" 
d="M261 0l-241 700h91l199 -617h1l205 617h81l-239 -700h-97z" />
    <glyph glyph-name="W" unicode="W" horiz-adv-x="950" 
d="M425 700h99l169 -617l146 617h81l-173 -700h-104l-169 615l-166 -615h-103l-176 700h86l144 -617z" />
    <glyph glyph-name="X" unicode="X" horiz-adv-x="592" 
d="M578 700l-236 -351l244 -349h-93l-200 295l-194 -295h-93l240 354l-230 346h93l189 -292l192 292h88z" />
    <glyph glyph-name="Y" unicode="Y" horiz-adv-x="649" 
d="M285 310l-274 390h97l218 -321l218 321h92l-270 -387v-313h-81v310z" />
    <glyph glyph-name="Z" unicode="Z" horiz-adv-x="588" 
d="M459 631h-419v69h514v-70l-432 -561h432v-69h-524v70z" />
    <glyph glyph-name="bracketleft" unicode="[" horiz-adv-x="338" 
d="M301 630h-142v-714h142v-69h-223v853h223v-70z" />
    <glyph glyph-name="backslash" unicode="\" horiz-adv-x="385" 
d="M108 700l237 -700h-71l-235 700h69z" />
    <glyph glyph-name="bracketright" unicode="]" horiz-adv-x="338" 
d="M37 -153v69h142v714h-142v70h223v-853h-223z" />
    <glyph glyph-name="asciicircum" unicode="^" 
d="M41 225l160 475h106l151 -475h-83l-121 402l-130 -402h-83z" />
    <glyph glyph-name="underscore" unicode="_" horiz-adv-x="404" 
d="M60 -139v70h284v-70h-284z" />
    <glyph glyph-name="grave" unicode="`" horiz-adv-x="226" 
d="M116 700l70 -164h-83l-83 164h96z" />
    <glyph glyph-name="a" unicode="a" horiz-adv-x="469" 
d="M205 55q52 0 87 27t35 83v48q-12 -13 -50 -13h-70q-93 0 -93 -70q0 -31 23.5 -53t67.5 -22zM327 297v5q0 43 -29 65t-77 22q-63 0 -125 -49l-42 59q69 61 173 61q84 0 131.5 -43.5t47.5 -115.5v-301h-79v51q-18 -31 -56 -47t-78 -16q-74 0 -118 39.5t-44 103.5
q0 65 42 99.5t116 34.5h105q33 0 33 32z" />
    <glyph glyph-name="b" unicode="b" horiz-adv-x="573" 
d="M307 -12q-52 0 -97 24t-63 60v-72h-79v700h79v-327q18 37 64.5 62t98.5 25q98 0 162 -66.5t64 -169.5q0 -102 -65 -169t-164 -67zM455 224q0 72 -44 119.5t-112 47.5t-112 -47.5t-44 -119.5t44 -119.5t112 -47.5t112 47.5t44 119.5z" />
    <glyph glyph-name="c" unicode="c" horiz-adv-x="497" 
d="M117 224q0 -72 43.5 -119.5t111.5 -47.5q86 0 129 68l65 -41q-29 -44 -82 -70t-112 -26q-99 0 -167.5 67t-68.5 169t68.5 169t167.5 67q59 0 112 -26t82 -70l-65 -41q-43 68 -129 68q-68 0 -111.5 -47.5t-43.5 -119.5z" />
    <glyph glyph-name="d" unicode="d" horiz-adv-x="573" 
d="M263 460q52 0 98.5 -25t64.5 -62v327h79v-700h-79v73q-18 -36 -63 -60.5t-97 -24.5q-99 0 -164 67t-65 169q0 103 64 169.5t162 66.5zM118 224q0 -72 44 -119.5t112 -47.5t112 47.5t44 119.5t-44 119.5t-112 47.5t-112 -47.5t-44 -119.5z" />
    <glyph glyph-name="e" unicode="e" horiz-adv-x="519" 
d="M488 200h-368q8 -63 46.5 -102.5t98.5 -39.5q80 0 119 56h94q-30 -58 -87.5 -92t-126.5 -34q-98 0 -162.5 66.5t-64.5 169.5t64 169.5t162 66.5q96 0 160.5 -65t64.5 -195zM263 390q-57 0 -93.5 -34t-47.5 -91h274q-3 50 -40 87.5t-93 37.5z" />
    <glyph glyph-name="f" unicode="f" horiz-adv-x="295" 
d="M97 448v147q0 57 32.5 82.5t75.5 25.5l71 -4v-69q-26 5 -46 5q-30 0 -42 -10.5t-12 -42.5v-134h94v-65h-94v-383h-79v383h-76v65h76z" />
    <glyph glyph-name="g" unicode="g" horiz-adv-x="573" 
d="M426 373v75h79v-489q0 -58 -32 -96.5t-104 -38.5h-180v65h169q68 0 68 57v127q-18 -36 -63 -60.5t-97 -24.5q-99 0 -164 67t-65 169q0 103 64 169.5t162 66.5q52 0 98.5 -25t64.5 -62zM118 224q0 -72 44 -119.5t112 -47.5t112 47.5t44 119.5t-44 119.5t-112 47.5
t-112 -47.5t-44 -119.5z" />
    <glyph glyph-name="h" unicode="h" horiz-adv-x="529" 
d="M147 314v-314h-79v700h79v-313q62 73 154 73q78 0 121.5 -45.5t43.5 -121.5v-293h-79v288q0 47 -26 75.5t-74 28.5q-72 0 -140 -78z" />
    <glyph glyph-name="i" unicode="i" horiz-adv-x="234" 
d="M166 448v-448h-79l-1 383h-70v65h150zM59 610q0 26 18 44t43 18q26 0 44 -18t18 -44q0 -25 -18 -43t-44 -18t-43.5 17.5t-17.5 43.5z" />
    <glyph glyph-name="j" unicode="j" horiz-adv-x="234" 
d="M87 -72v455h-71v65h150v-530q0 -94 -113 -94h-57v65h43q23 0 35.5 8t12.5 31zM59 610q0 26 18 44t43 18q26 0 44 -18t18 -44q0 -25 -18 -43t-44 -18t-43.5 17.5t-17.5 43.5z" />
    <glyph glyph-name="k" unicode="k" horiz-adv-x="479" 
d="M147 700v-422h49l164 170h101l-201 -203l209 -245h-100l-179 213h-43v-213h-79v700h79z" />
    <glyph glyph-name="l" unicode="l" horiz-adv-x="223" 
d="M151 700v-700h-79v700h79z" />
    <glyph glyph-name="m" unicode="m" horiz-adv-x="828" 
d="M591 392q-67 0 -135 -78v-314h-79v294q0 43 -25 70.5t-71 27.5q-66 0 -134 -78v-314h-79v448h77v-61q61 73 150 73q108 0 144 -84q72 84 165 84q78 0 119.5 -45t41.5 -122v-293h-79v294q0 43 -25 70.5t-70 27.5z" />
    <glyph glyph-name="n" unicode="n" horiz-adv-x="529" 
d="M466 293v-293h-79v288q0 47 -26 75.5t-74 28.5q-72 0 -140 -78v-314h-79v448h77v-61q62 73 156 73q78 0 121.5 -45.5t43.5 -121.5z" />
    <glyph glyph-name="o" unicode="o" horiz-adv-x="546" 
d="M36 224q0 102 69 169t168 67t168 -67t69 -169t-69 -169t-168 -67t-168 67t-69 169zM429 224q0 72 -44 119.5t-112 47.5t-112 -47.5t-44 -119.5t44 -119.5t112 -47.5t112 47.5t44 119.5z" />
    <glyph glyph-name="p" unicode="p" horiz-adv-x="573" 
d="M307 -12q-52 0 -97 24t-63 60v-248h-79v624h79v-75q18 37 64.5 62t98.5 25q98 0 162 -66.5t64 -169.5q0 -102 -65 -169t-164 -67zM455 224q0 72 -44 119.5t-112 47.5t-112 -47.5t-44 -119.5t44 -119.5t112 -47.5t112 47.5t44 119.5z" />
    <glyph glyph-name="q" unicode="q" horiz-adv-x="573" 
d="M266 -12q-99 0 -164 67t-65 169q0 103 64 169.5t162 66.5q52 0 98.5 -25t64.5 -62v75h79v-624h-79v248q-18 -36 -63 -60t-97 -24zM118 224q0 -72 44 -119.5t112 -47.5t112 47.5t44 119.5t-44 119.5t-112 47.5t-112 -47.5t-44 -119.5z" />
    <glyph glyph-name="r" unicode="r" horiz-adv-x="326" 
d="M305 456v-76h-37q-54 0 -87.5 -31.5t-33.5 -118.5v-230h-79v448h77v-71q17 40 51.5 60.5t69.5 20.5q26 0 39 -2z" />
    <glyph glyph-name="s" unicode="s" horiz-adv-x="391" 
d="M355 399l-45 -52q-43 48 -107 48q-37 0 -57 -16.5t-20 -36.5q0 -41 50 -62l69 -28q58 -24 83.5 -55.5t25.5 -76.5v-2q0 -51 -43 -90.5t-119 -39.5q-101 0 -169 70l43 56q54 -59 127 -59q41 0 63 17.5t22 47.5q0 23 -16.5 39t-62.5 34l-53 21q-95 37 -95 122v1
q0 47 39.5 85t115.5 38q88 0 149 -61z" />
    <glyph glyph-name="t" unicode="t" horiz-adv-x="309" 
d="M95 635h79v-187h110v-65h-110v-279q0 -24 12 -32t34 -8l64 3v-67q-39 -4 -76 -4q-113 0 -113 94v293h-76v65h76v187z" />
    <glyph glyph-name="u" unicode="u" horiz-adv-x="522" 
d="M261 -12q-91 0 -145 50t-54 123v287h79v-277q0 -55 33.5 -84.5t86.5 -29.5t86.5 29.5t33.5 84.5v277h79v-287q0 -73 -54 -123t-145 -50z" />
    <glyph glyph-name="v" unicode="v" horiz-adv-x="482" 
d="M115 448l126 -380l134 380h85l-171 -448h-100l-164 448h90z" />
    <glyph glyph-name="w" unicode="w" horiz-adv-x="724" 
d="M405 448l112 -380l97 380h83l-131 -448h-102l-102 358l-106 -358h-102l-124 448h88l88 -380l116 380h83z" />
    <glyph glyph-name="x" unicode="x" horiz-adv-x="458" 
d="M17 0l169 221l-169 227h91l121 -170l124 170h88l-169 -225l169 -223h-92l-120 166l-118 -166h-94z" />
    <glyph glyph-name="y" unicode="y" horiz-adv-x="481" 
d="M191 -52l18 52h-20l-164 448h88l128 -380l136 380h83l-201 -525q-20 -52 -50.5 -75.5t-91.5 -23.5h-52v65h50q32 0 48 12.5t28 46.5z" />
    <glyph glyph-name="z" unicode="z" horiz-adv-x="433" 
d="M395 448v-65l-267 -318h267v-65h-357v65l269 318h-269v65h357z" />
    <glyph glyph-name="braceleft" unicode="{" horiz-adv-x="372" 
d="M33 268v64h79v368h223v-70h-141v-255q0 -60 -49 -75v-4q49 -15 49 -71v-308h141v-70h-223v421h-79z" />
    <glyph glyph-name="bar" unicode="|" horiz-adv-x="229" 
d="M78 -93v853h73v-853h-73z" />
    <glyph glyph-name="braceright" unicode="}" horiz-adv-x="372" 
d="M339 332v-64h-79v-421h-223v70h141v308q0 56 49 71v4q-49 15 -49 75v255h-141v70h223v-368h79z" />
    <glyph glyph-name="asciitilde" unicode="~" horiz-adv-x="559" 
d="M134 289h-72q0 123 94 123q28 0 131.5 -25.5t114.5 -25.5q25 0 27 39v10h72q0 -123 -94 -123q-28 0 -131.5 25t-114.5 25q-25 0 -27 -38v-10z" />
    <glyph glyph-name="exclamdown" unicode="&#xa1;" horiz-adv-x="232" 
d="M75 223h75v-476h-75v476zM53 394q0 27 19 46t46 19t46 -19t19 -46t-19 -46t-46 -19t-46 19t-19 46z" />
    <glyph glyph-name="cent" unicode="&#xa2;" horiz-adv-x="511" 
d="M218 0v128q-80 18 -131 80.5t-51 149.5q0 86 51 149t131 81v112h73v-107q54 -4 101 -29.5t74 -65.5l-65 -41q-37 59 -110 67v-332q73 8 110 67l65 -41q-27 -40 -74 -65.5t-101 -30.5v-122h-73zM117 358q0 -56 27 -98.5t74 -59.5v316q-47 -17 -74 -59.5t-27 -98.5z" />
    <glyph glyph-name="sterling" unicode="&#xa3;" horiz-adv-x="535" 
d="M53 316v64h53q-25 77 -25 131q0 93 57 147t150 54t149 -53.5t56 -146.5v-7h-81q0 64 -30.5 100.5t-93.5 36.5q-62 0 -93.5 -37t-31.5 -94q0 -49 29 -131h175v-64h-154q22 -73 22 -119q0 -74 -41 -128h272v-69h-415v69h63q4 2 13 12.5t21 39.5t12 64q0 44 -31 131h-76z
" />
    <glyph glyph-name="currency" unicode="&#xa4;" horiz-adv-x="744" 
d="M372 642q88 0 173 -57l89 87l57 -58l-91 -87q61 -78 61 -178t-61 -177l92 -87l-58 -58l-88 87q-86 -58 -174 -58t-174 58l-88 -87l-58 58l92 87q-61 77 -61 177t61 178l-91 87l57 58l89 -87q85 57 173 57zM372 134q89 0 147 62.5t58 152.5q0 91 -57.5 153.5t-147.5 62.5
t-147.5 -62.5t-57.5 -153.5q0 -90 58 -152.5t147 -62.5z" />
    <glyph glyph-name="yen" unicode="&#xa5;" horiz-adv-x="596" 
d="M60 229v64h199v17l-53 95h-146v65h109l-129 230h93l168 -314l163 314h92l-129 -230h109v-65h-145l-51 -92v-20h196v-64h-196v-229h-81v229h-199z" />
    <glyph glyph-name="brokenbar" unicode="&#xa6;" horiz-adv-x="234" 
d="M154 406h-74v354h74v-354zM154 -93h-74v354h74v-354z" />
    <glyph glyph-name="section" unicode="&#xa7;" horiz-adv-x="563" 
d="M39 306q0 49 37.5 83t94.5 39q-83 42 -83 132q0 68 62 110t154 42q126 0 201 -68l-47 -59q-25 26 -68 42.5t-86 16.5q-62 0 -97 -22.5t-35 -57.5q0 -33 19 -51t57 -29l112 -32q82 -24 123 -55t41 -94q0 -48 -34.5 -81.5t-99.5 -47.5q84 -42 84 -130q0 -69 -62 -112
t-154 -43q-125 0 -201 69l47 59q26 -26 68.5 -43t85.5 -17q62 0 97 23.5t35 58.5q0 33 -18.5 50t-57.5 29l-112 33q-77 23 -120 57t-43 98zM123 310q0 -34 25.5 -53t74.5 -33l85 -24q54 5 92.5 31.5t38.5 66.5q0 34 -24 49.5t-76 30.5l-77 21q-59 -1 -99 -23.5t-40 -65.5z
" />
    <glyph glyph-name="dieresis" unicode="&#xa8;" horiz-adv-x="306" 
d="M13 584q0 23 17 40.5t40 17.5t40.5 -17.5t17.5 -40.5t-17.5 -40t-40.5 -17t-40 17t-17 40zM178 584q0 23 17 40.5t40 17.5t40.5 -17.5t17.5 -40.5t-17.5 -40t-40.5 -17t-40 17t-17 40z" />
    <glyph glyph-name="copyright" unicode="&#xa9;" horiz-adv-x="820" 
d="M410 564q68 0 118.5 -38t69.5 -103h-63q-31 88 -125 88q-66 0 -108 -45t-42 -113q0 -67 42 -112t108 -45q94 0 125 87h63q-19 -65 -69.5 -102.5t-118.5 -37.5q-89 0 -150 59.5t-61 150.5q0 92 60.5 151.5t150.5 59.5zM410 712q153 0 258.5 -103t105.5 -259t-105.5 -259
t-258.5 -103t-258.5 103t-105.5 259t105.5 259t258.5 103zM410 41q134 0 218 87t84 222t-84 222t-218 87t-218.5 -87t-84.5 -222t84.5 -222t218.5 -87z" />
    <glyph glyph-name="ordfeminine" unicode="&#xaa;" horiz-adv-x="432" 
d="M195 370q44 0 72.5 22.5t28.5 68.5v33q-11 -5 -40 -5h-59q-76 0 -76 -58q0 -25 19 -43t55 -18zM296 572v4q0 35 -23.5 53t-63.5 18q-53 0 -107 -41l-36 52q60 54 148 54q71 0 112 -38t41 -99v-255h-71v38q-18 -23 -50 -36t-61 -13q-63 0 -101 33t-38 87q0 56 36 87t99 31
h89q26 0 26 25z" />
    <glyph glyph-name="guillemotleft" unicode="&#xab;" horiz-adv-x="452" 
d="M151 85l-104 154l104 154h84l-104 -154l104 -154h-84zM313 85l-104 154l104 154h84l-104 -154l104 -154h-84z" />
    <glyph glyph-name="logicalnot" unicode="&#xac;" 
d="M27 405v70h439v-250h-76v180h-363z" />
    <glyph glyph-name="registered" unicode="&#xae;" horiz-adv-x="820" 
d="M507 148l-99 181h-70v-181h-61v412h140q66 0 103 -30.5t37 -83.5q0 -34 -22 -65.5t-68 -44.5l108 -188h-68zM496 445q0 32 -22.5 48.5t-60.5 16.5h-75v-131h75q37 0 60 17t23 49zM410 712q153 0 258.5 -103t105.5 -259t-105.5 -259t-258.5 -103t-258.5 103t-105.5 259
t105.5 259t258.5 103zM410 41q134 0 218 87t84 222t-84 222t-218 87t-218.5 -87t-84.5 -222t84.5 -222t218.5 -87z" />
    <glyph glyph-name="macron" unicode="&#xaf;" horiz-adv-x="326" 
d="M30 549v67h266v-67h-266z" />
    <glyph glyph-name="degree" unicode="&#xb0;" horiz-adv-x="406" 
d="M45 554q0 65 46.5 111.5t111.5 46.5t111.5 -46.5t46.5 -111.5t-46.5 -111.5t-111.5 -46.5t-111.5 46.5t-46.5 111.5zM115 554q0 -38 26 -65.5t62 -27.5t62 27.5t26 65.5t-26 65.5t-62 27.5t-62 -27.5t-26 -65.5z" />
    <glyph glyph-name="plusminus" unicode="&#xb1;" 
d="M30 315v70h181v181h76v-181h182v-70h-182v-182h-76v182h-181zM30 0v70h439v-70h-439z" />
    <glyph glyph-name="twosuperior" unicode="&#xb2;" horiz-adv-x="382" 
d="M61 284v49q50 50 117 124q42 46 58.5 75t16.5 60q0 28 -16.5 47.5t-47.5 19.5q-28 0 -46.5 -16.5t-18.5 -43.5q0 -18 14 -52l-58 -12q-18 36 -18 65q0 47 34.5 79.5t92.5 32.5q57 0 92.5 -34t35.5 -84q0 -40 -21 -78.5t-87 -107.5l-65 -68h175v-56h-258z" />
    <glyph glyph-name="threesuperior" unicode="&#xb3;" horiz-adv-x="368" 
d="M157 527h20q33 0 51 18t18 47t-15.5 47.5t-46.5 18.5q-63 0 -63 -71v-23h-64v24q0 57 34.5 90.5t92.5 33.5t91.5 -32.5t33.5 -87.5q0 -60 -55 -89q62 -25 62 -101q0 -57 -36 -91.5t-95 -34.5t-95 33.5t-36 90.5v25h64v-24q0 -32 16.5 -51t50.5 -19q33 0 50.5 20t17.5 50
q0 31 -17.5 52t-50.5 21h-28v53z" />
    <glyph glyph-name="acute" unicode="&#xb4;" horiz-adv-x="226" 
d="M30 536l70 164h96l-83 -164h-83z" />
    <glyph glyph-name="mu" unicode="&#xb5;" horiz-adv-x="515" 
d="M73 -176v624h79v-277q0 -55 34 -84.5t87 -29.5t86 29t33 85v277h79v-287q0 -73 -53.5 -123t-144.5 -50q-79 0 -123 44v-208h-77z" />
    <glyph glyph-name="paragraph" unicode="&#xb6;" horiz-adv-x="598" 
d="M35 531q0 72 50 120.5t131 48.5h290v-700h-81v630h-133v-630h-82v363h-12q-73 0 -118 49.5t-45 118.5z" />
    <glyph glyph-name="periodcentered" unicode="&#xb7;" horiz-adv-x="247" 
d="M57 370q0 28 19 47.5t47 19.5t47.5 -19.5t19.5 -47.5t-19.5 -47t-47.5 -19t-47 19t-19 47z" />
    <glyph glyph-name="cedilla" unicode="&#xb8;" horiz-adv-x="226" 
d="M-10 -163l70 164h96l-83 -164h-83z" />
    <glyph glyph-name="onesuperior" unicode="&#xb9;" horiz-adv-x="327" 
d="M60 648v54h142v-364h80v-54h-222v54h79v310h-79z" />
    <glyph glyph-name="ordmasculine" unicode="&#xba;" horiz-adv-x="486" 
d="M42 510q0 86 58.5 144t142.5 58t142.5 -58t58.5 -144t-58.5 -143.5t-142.5 -57.5t-142.5 57.5t-58.5 143.5zM373 510q0 60 -36.5 99.5t-93.5 39.5t-93.5 -39.5t-36.5 -99.5t36.5 -99t93.5 -39t93.5 39t36.5 99z" />
    <glyph glyph-name="guillemotright" unicode="&#xbb;" horiz-adv-x="452" 
d="M243 239l-104 -154h-84l104 154l-104 154h84zM405 239l-104 -154h-84l104 154l-104 154h84z" />
    <glyph glyph-name="onequarter" unicode="&#xbc;" horiz-adv-x="790" 
d="M390 122v46l152 258h86v-253h53v-51h-53v-122h-60v122h-178zM568 372l-115 -199h115v199zM124 648v54h142v-364h80v-54h-222v54h79v310h-79z" />
    <glyph glyph-name="onehalf" unicode="&#xbd;" horiz-adv-x="790" 
d="M415 0v49q50 49 117 123q42 46 58.5 75t16.5 60q0 28 -16.5 47.5t-47.5 19.5q-28 0 -46.5 -16.5t-18.5 -43.5q0 -18 14 -52l-58 -12q-18 36 -18 65q0 47 34.5 79.5t92.5 32.5q57 0 92.5 -34t35.5 -84q0 -40 -21 -78.5t-87 -107.5l-65 -67h175v-56h-258zM122 648v54h142
v-364h80v-54h-222v54h79v310h-79z" />
    <glyph glyph-name="threequarters" unicode="&#xbe;" horiz-adv-x="790" 
d="M232 528h20q33 0 51 18t18 47t-15.5 47.5t-46.5 18.5q-63 0 -63 -71v-23h-64v24q0 57 34.5 90.5t92.5 33.5t91.5 -32.5t33.5 -87.5q0 -60 -55 -89q62 -25 62 -101q0 -57 -36 -91.5t-95 -34.5t-95 33.5t-36 90.5v25h64v-24q0 -32 16.5 -51t50.5 -19q33 0 50.5 20t17.5 50
q0 31 -17.5 52t-50.5 21h-28v53zM380 122v46l152 258h86v-253h53v-51h-53v-122h-60v122h-178zM558 372l-115 -199h115v199z" />
    <glyph glyph-name="questiondown" unicode="&#xbf;" horiz-adv-x="468" 
d="M32 -70q1 67 40.5 121t128.5 66l5 136h67l10 -197h-41q-63 0 -96 -35t-34 -92q0 -55 32 -89.5t88 -34.5q61 0 92.5 36.5t31.5 97.5v28h80q1 -1 1 -31q0 -93 -56.5 -147t-148.5 -54q-90 0 -145 53.5t-55 141.5zM305 394q0 -27 -19 -46t-46 -19t-46 19t-19 46t19 46t46 19
t46 -19t19 -46z" />
    <glyph glyph-name="Agrave" unicode="&#xc0;" horiz-adv-x="620" 
d="M432 239h-251l-77 -239h-82l239 700h97l241 -700h-87zM308 622l-104 -314h206zM328 953l70 -164h-83l-83 164h96z" />
    <glyph glyph-name="Aacute" unicode="&#xc1;" horiz-adv-x="620" 
d="M432 239h-251l-77 -239h-82l239 700h97l241 -700h-87zM308 622l-104 -314h206zM232 789l70 164h96l-83 -164h-83z" />
    <glyph glyph-name="Acircumflex" unicode="&#xc2;" horiz-adv-x="620" 
d="M432 239h-251l-77 -239h-82l239 700h97l241 -700h-87zM308 622l-104 -314h206zM172 789l90 164h106l90 -164h-83l-60 108l-60 -108h-83z" />
    <glyph glyph-name="Atilde" unicode="&#xc3;" horiz-adv-x="620" 
d="M432 239h-251l-77 -239h-82l239 700h97l241 -700h-87zM308 622l-104 -314h206zM232 792h-68v22t4.5 28t12.5 33.5t26.5 22.5t45.5 11q33 0 70.5 -24.5t47.5 -24.5q24 0 26 37v10h68v-22t-4.5 -28t-12.5 -33.5t-26.5 -22.5t-45.5 -11q-33 0 -70.5 24.5t-47.5 24.5
q-24 0 -26 -37v-10z" />
    <glyph glyph-name="Adieresis" unicode="&#xc4;" horiz-adv-x="620" 
d="M432 239h-251l-77 -239h-82l239 700h97l241 -700h-87zM308 622l-104 -314h206zM175 837q0 23 17 40.5t40 17.5t40.5 -17.5t17.5 -40.5t-17.5 -40t-40.5 -17t-40 17t-17 40zM340 837q0 23 17 40.5t40 17.5t40.5 -17.5t17.5 -40.5t-17.5 -40t-40.5 -17t-40 17t-17 40z" />
    <glyph glyph-name="Aring" unicode="&#xc5;" horiz-adv-x="620" 
d="M432 239h-251l-77 -239h-82l239 700h97l241 -700h-87zM194 845q0 49 35 82.5t84 33.5h1q48 0 83 -33.5t35 -82.5t-35 -82.5t-83 -33.5h-1q-49 0 -84 33.5t-35 82.5zM308 622l-104 -314h206zM368 845q0 24 -15.5 40t-38.5 16q-24 0 -40 -16t-16 -40q0 -25 16 -41t40 -16
q23 0 38.5 16t15.5 41z" />
    <glyph glyph-name="AE" unicode="&#xc6;" horiz-adv-x="993" 
d="M960 700v-70h-393v-239h255v-69h-255v-253h393v-69h-475v324h-191l-181 -324h-96l408 700h535zM485 630h-20l-134 -237h154v237z" />
    <glyph glyph-name="Ccedilla" unicode="&#xc7;" horiz-adv-x="766" 
d="M234 -163l70 163q-117 30 -190 125t-73 225q0 157 103.5 259.5t257.5 102.5q118 0 208 -61.5t122 -169.5h-83q-26 74 -92 117.5t-155 43.5q-124 0 -202 -83t-78 -209t78 -209t202 -83q89 0 155 43.5t92 117.5h83q-32 -108 -122 -169.5t-208 -61.5q-2 0 -5 0.5t-4 0.5
l-76 -152h-83z" />
    <glyph glyph-name="Egrave" unicode="&#xc8;" horiz-adv-x="598" 
d="M565 700v-70h-398v-239h256v-68h-256v-254h398v-69h-479v700h479zM327 953l70 -164h-83l-83 164h96z" />
    <glyph glyph-name="Eacute" unicode="&#xc9;" horiz-adv-x="598" 
d="M565 700v-70h-398v-239h256v-68h-256v-254h398v-69h-479v700h479zM271 789l70 164h96l-83 -164h-83z" />
    <glyph glyph-name="Ecircumflex" unicode="&#xca;" horiz-adv-x="598" 
d="M565 700v-70h-398v-239h256v-68h-256v-254h398v-69h-479v700h479zM186 789l90 164h106l90 -164h-83l-60 108l-60 -108h-83z" />
    <glyph glyph-name="Edieresis" unicode="&#xcb;" horiz-adv-x="598" 
d="M565 700v-70h-398v-239h256v-68h-256v-254h398v-69h-479v700h479zM174 837q0 23 17 40.5t40 17.5t40.5 -17.5t17.5 -40.5t-17.5 -40t-40.5 -17t-40 17t-17 40zM339 837q0 23 17 40.5t40 17.5t40.5 -17.5t17.5 -40.5t-17.5 -40t-40.5 -17t-40 17t-17 40z" />
    <glyph glyph-name="Igrave" unicode="&#xcc;" horiz-adv-x="253" 
d="M86 0v700h81v-700h-81zM143 953l70 -164h-83l-83 164h96z" />
    <glyph glyph-name="Iacute" unicode="&#xcd;" horiz-adv-x="253" 
d="M86 0v700h81v-700h-81zM47 789l70 164h96l-83 -164h-83z" />
    <glyph glyph-name="Icircumflex" unicode="&#xce;" horiz-adv-x="253" 
d="M86 0v700h81v-700h-81zM-12 789l90 164h106l90 -164h-83l-60 108l-60 -108h-83z" />
    <glyph glyph-name="Idieresis" unicode="&#xcf;" horiz-adv-x="253" 
d="M86 0v700h81v-700h-81zM-9 837q0 23 17 40.5t40 17.5t40.5 -17.5t17.5 -40.5t-17.5 -40t-40.5 -17t-40 17t-17 40zM156 837q0 23 17 40.5t40 17.5t40.5 -17.5t17.5 -40.5t-17.5 -40t-40.5 -17t-40 17t-17 40z" />
    <glyph glyph-name="Eth" unicode="&#xd0;" horiz-adv-x="692" 
d="M32 322v70h59v308h199q170 0 264.5 -95.5t94.5 -254.5t-94.5 -254.5t-264.5 -95.5h-199v322h-59zM568 350q0 139 -76.5 211t-215.5 72h-104v-241h220v-70h-220v-255h104q139 0 215.5 72t76.5 211z" />
    <glyph glyph-name="Ntilde" unicode="&#xd1;" horiz-adv-x="672" 
d="M167 594v-594h-81v700h105l314 -583v583h81v-700h-96zM257 791h-68v22t4.5 28t12.5 33.5t26.5 22.5t45.5 11q33 0 70.5 -24.5t47.5 -24.5q24 0 26 37v10h68v-22t-4.5 -28t-12.5 -33.5t-26.5 -22.5t-45.5 -11q-33 0 -70.5 24.5t-47.5 24.5q-24 0 -26 -37v-10z" />
    <glyph glyph-name="Ograve" unicode="&#xd2;" horiz-adv-x="803" 
d="M402 712q151 0 256 -103t105 -259t-105 -259t-256 -103q-152 0 -257 103t-105 259t105 259t257 103zM402 57q123 0 201.5 83.5t78.5 209.5t-78.5 209t-201.5 83q-124 0 -202.5 -83t-78.5 -209t79 -209.5t202 -83.5zM408 953l70 -164h-83l-83 164h96z" />
    <glyph glyph-name="Oacute" unicode="&#xd3;" horiz-adv-x="803" 
d="M402 712q151 0 256 -103t105 -259t-105 -259t-256 -103q-152 0 -257 103t-105 259t105 259t257 103zM402 57q123 0 201.5 83.5t78.5 209.5t-78.5 209t-201.5 83q-124 0 -202.5 -83t-78.5 -209t79 -209.5t202 -83.5zM322 789l70 164h96l-83 -164h-83z" />
    <glyph glyph-name="Ocircumflex" unicode="&#xd4;" horiz-adv-x="803" 
d="M402 712q151 0 256 -103t105 -259t-105 -259t-256 -103q-152 0 -257 103t-105 259t105 259t257 103zM402 57q123 0 201.5 83.5t78.5 209.5t-78.5 209t-201.5 83q-124 0 -202.5 -83t-78.5 -209t79 -209.5t202 -83.5zM262 789l90 164h106l90 -164h-83l-60 108l-60 -108h-83
z" />
    <glyph glyph-name="Otilde" unicode="&#xd5;" horiz-adv-x="803" 
d="M402 712q151 0 256 -103t105 -259t-105 -259t-256 -103q-152 0 -257 103t-105 259t105 259t257 103zM402 57q123 0 201.5 83.5t78.5 209.5t-78.5 209t-201.5 83q-124 0 -202.5 -83t-78.5 -209t79 -209.5t202 -83.5zM322 792h-68v22t4.5 28t12.5 33.5t26.5 22.5t45.5 11
q33 0 70.5 -24.5t47.5 -24.5q24 0 26 37v10h68v-22t-4.5 -28t-12.5 -33.5t-26.5 -22.5t-45.5 -11q-33 0 -70.5 24.5t-47.5 24.5q-24 0 -26 -37v-10z" />
    <glyph glyph-name="Odieresis" unicode="&#xd6;" horiz-adv-x="803" 
d="M402 712q151 0 256 -103t105 -259t-105 -259t-256 -103q-152 0 -257 103t-105 259t105 259t257 103zM402 57q123 0 201.5 83.5t78.5 209.5t-78.5 209t-201.5 83q-124 0 -202.5 -83t-78.5 -209t79 -209.5t202 -83.5zM265 837q0 23 17 40.5t40 17.5t40.5 -17.5t17.5 -40.5
t-17.5 -40t-40.5 -17t-40 17t-17 40zM430 837q0 23 17 40.5t40 17.5t40.5 -17.5t17.5 -40.5t-17.5 -40t-40.5 -17t-40 17t-17 40z" />
    <glyph glyph-name="multiply" unicode="&#xd7;" 
d="M91 162l-50 49l159 159l-159 159l50 49l158 -159l159 159l50 -49l-159 -159l159 -159l-50 -49l-159 158z" />
    <glyph glyph-name="Oslash" unicode="&#xd8;" horiz-adv-x="803" 
d="M402 712q120 0 213 -67l58 67h88l-96 -111q98 -101 98 -251q0 -156 -105 -259t-256 -103q-119 0 -212 65l-56 -65h-92l96 110q-98 101 -98 252q0 156 105 259t257 103zM121 350q0 -116 66 -196l380 437q-72 51 -165 51q-124 0 -202.5 -83t-78.5 -209zM402 57
q123 0 201.5 83.5t78.5 209.5q0 115 -66 195l-379 -438q70 -50 165 -50z" />
    <glyph glyph-name="Ugrave" unicode="&#xd9;" horiz-adv-x="634" 
d="M317 -12q-116 0 -177 66t-61 171v475h81v-470q0 -75 38.5 -125t120.5 -50q81 0 120 50.5t39 124.5v470h77v-475q0 -105 -61 -171t-177 -66zM334 953l70 -164h-83l-83 164h96z" />
    <glyph glyph-name="Uacute" unicode="&#xda;" horiz-adv-x="634" 
d="M317 -12q-116 0 -177 66t-61 171v475h81v-470q0 -75 38.5 -125t120.5 -50q81 0 120 50.5t39 124.5v470h77v-475q0 -105 -61 -171t-177 -66zM238 789l70 164h96l-83 -164h-83z" />
    <glyph glyph-name="Ucircumflex" unicode="&#xdb;" horiz-adv-x="634" 
d="M317 -12q-116 0 -177 66t-61 171v475h81v-470q0 -75 38.5 -125t120.5 -50q81 0 120 50.5t39 124.5v470h77v-475q0 -105 -61 -171t-177 -66zM178 789l90 164h106l90 -164h-83l-60 108l-60 -108h-83z" />
    <glyph glyph-name="Udieresis" unicode="&#xdc;" horiz-adv-x="634" 
d="M317 -12q-116 0 -177 66t-61 171v475h81v-470q0 -75 38.5 -125t120.5 -50q81 0 120 50.5t39 124.5v470h77v-475q0 -105 -61 -171t-177 -66zM181 837q0 23 17 40.5t40 17.5t40.5 -17.5t17.5 -40.5t-17.5 -40t-40.5 -17t-40 17t-17 40zM346 837q0 23 17 40.5t40 17.5
t40.5 -17.5t17.5 -40.5t-17.5 -40t-40.5 -17t-40 17t-17 40z" />
    <glyph glyph-name="Yacute" unicode="&#xdd;" horiz-adv-x="649" 
d="M285 310l-274 390h97l218 -321l218 321h92l-270 -387v-313h-81v310zM264 789l70 164h96l-83 -164h-83z" />
    <glyph glyph-name="Thorn" unicode="&#xde;" horiz-adv-x="560" 
d="M168 137v-137h-82v700h82v-134h128q109 0 171.5 -60.5t62.5 -151.5q0 -92 -62.5 -154.5t-171.5 -62.5h-128zM293 496h-125v-289h125q69 0 112 39.5t43 107.5q0 67 -43 104.5t-112 37.5z" />
    <glyph glyph-name="germandbls" unicode="&#xdf;" horiz-adv-x="504" 
d="M257 700q87 0 130.5 -44.5t43.5 -103.5q0 -21 -3.5 -38t-14 -35t-16.5 -27t-24 -30t-23 -27q-29 -36 -29 -57q0 -25 45 -54q27 -18 34.5 -23.5t28.5 -23.5t28.5 -31t15 -35t7.5 -47q0 -63 -43 -100t-113 -37q-45 0 -74 11l26 62q28 -7 45 -7q39 0 61 19t22 53
q0 13 -3.5 24.5t-6.5 18t-14.5 17t-15 13t-21.5 14.5l-21 14q-28 19 -39 27.5t-24.5 30.5t-13.5 49q0 33 17 63t37.5 49.5t37.5 47.5t17 58q0 37 -27.5 59t-68.5 22q-47 0 -79 -33.5t-32 -94.5v-504h-79v496q0 57 18.5 99t48.5 63.5t60.5 31.5t61.5 10z" />
    <glyph glyph-name="agrave" unicode="&#xe0;" horiz-adv-x="469" 
d="M205 55q52 0 87 27t35 83v48q-12 -13 -50 -13h-70q-93 0 -93 -70q0 -31 23.5 -53t67.5 -22zM327 297v5q0 43 -29 65t-77 22q-63 0 -125 -49l-42 59q69 61 173 61q84 0 131.5 -43.5t47.5 -115.5v-301h-79v51q-18 -31 -56 -47t-78 -16q-74 0 -118 39.5t-44 103.5
q0 65 42 99.5t116 34.5h105q33 0 33 32zM246 700l70 -164h-83l-83 164h96z" />
    <glyph glyph-name="aacute" unicode="&#xe1;" horiz-adv-x="469" 
d="M205 55q52 0 87 27t35 83v48q-12 -13 -50 -13h-70q-93 0 -93 -70q0 -31 23.5 -53t67.5 -22zM327 297v5q0 43 -29 65t-77 22q-63 0 -125 -49l-42 59q69 61 173 61q84 0 131.5 -43.5t47.5 -115.5v-301h-79v51q-18 -31 -56 -47t-78 -16q-74 0 -118 39.5t-44 103.5
q0 65 42 99.5t116 34.5h105q33 0 33 32zM150 536l70 164h96l-83 -164h-83z" />
    <glyph glyph-name="acircumflex" unicode="&#xe2;" horiz-adv-x="469" 
d="M205 55q52 0 87 27t35 83v48q-12 -13 -50 -13h-70q-93 0 -93 -70q0 -31 23.5 -53t67.5 -22zM327 297v5q0 43 -29 65t-77 22q-63 0 -125 -49l-42 59q69 61 173 61q84 0 131.5 -43.5t47.5 -115.5v-301h-79v51q-18 -31 -56 -47t-78 -16q-74 0 -118 39.5t-44 103.5
q0 65 42 99.5t116 34.5h105q33 0 33 32zM90 536l90 164h106l90 -164h-83l-60 108l-60 -108h-83z" />
    <glyph glyph-name="atilde" unicode="&#xe3;" horiz-adv-x="469" 
d="M205 55q52 0 87 27t35 83v48q-12 -13 -50 -13h-70q-93 0 -93 -70q0 -31 23.5 -53t67.5 -22zM327 297v5q0 43 -29 65t-77 22q-63 0 -125 -49l-42 59q69 61 173 61q84 0 131.5 -43.5t47.5 -115.5v-301h-79v51q-18 -31 -56 -47t-78 -16q-74 0 -118 39.5t-44 103.5
q0 65 42 99.5t116 34.5h105q33 0 33 32zM151 539h-68v22t4.5 28t12.5 33.5t26.5 22.5t45.5 11q33 0 70.5 -24.5t47.5 -24.5q24 0 26 37v10h68v-22t-4.5 -28t-12.5 -33.5t-26.5 -22.5t-45.5 -11q-33 0 -70.5 24.5t-47.5 24.5q-24 0 -26 -37v-10z" />
    <glyph glyph-name="adieresis" unicode="&#xe4;" horiz-adv-x="469" 
d="M205 55q52 0 87 27t35 83v48q-12 -13 -50 -13h-70q-93 0 -93 -70q0 -31 23.5 -53t67.5 -22zM327 297v5q0 43 -29 65t-77 22q-63 0 -125 -49l-42 59q69 61 173 61q84 0 131.5 -43.5t47.5 -115.5v-301h-79v51q-18 -31 -56 -47t-78 -16q-74 0 -118 39.5t-44 103.5
q0 65 42 99.5t116 34.5h105q33 0 33 32zM93 584q0 23 17 40.5t40 17.5t40.5 -17.5t17.5 -40.5t-17.5 -40t-40.5 -17t-40 17t-17 40zM258 584q0 23 17 40.5t40 17.5t40.5 -17.5t17.5 -40.5t-17.5 -40t-40.5 -17t-40 17t-17 40z" />
    <glyph glyph-name="aring" unicode="&#xe5;" horiz-adv-x="469" 
d="M205 55q52 0 87 27t35 83v48q-12 -13 -50 -13h-70q-93 0 -93 -70q0 -31 23.5 -53t67.5 -22zM327 297v5q0 43 -29 65t-77 22q-63 0 -125 -49l-42 59q69 61 173 61q84 0 131.5 -43.5t47.5 -115.5v-301h-79v51q-18 -31 -56 -47t-78 -16q-74 0 -118 39.5t-44 103.5
q0 65 42 99.5t116 34.5h105q33 0 33 32zM125 607q0 44 32 74.5t75 30.5h1q43 0 75 -30.5t32 -74.5t-32 -74.5t-75 -30.5h-1q-43 0 -75 30.5t-32 74.5zM282 607q0 22 -14 36.5t-35 14.5t-35.5 -14.5t-14.5 -36.5t14.5 -36.5t35.5 -14.5t35 14.5t14 36.5z" />
    <glyph glyph-name="ae" unicode="&#xe6;" horiz-adv-x="787" 
d="M550 -12q-59 0 -104.5 29t-67.5 73q-47 -102 -179 -102q-74 0 -121 39.5t-47 102.5q0 65 42 100t116 35h114q33 0 33 32v5q0 43 -30.5 65t-79.5 22q-65 0 -131 -49l-41 61q66 59 178 59q109 0 157 -71q59 71 159 71q87 0 147 -65.5t60 -194.5h-340q1 -58 43 -99.5
t95 -41.5q74 0 106 55h87q-26 -59 -79.5 -92.5t-116.5 -33.5zM209 50q54 0 89 35.5t35 97.5v22q-13 -5 -43 -5h-83q-93 0 -93 -73q0 -33 25 -55t70 -22zM545 390q-51 0 -85.5 -34.5t-45.5 -90.5h254q-2 53 -36.5 89t-86.5 36z" />
    <glyph glyph-name="ccedilla" unicode="&#xe7;" horiz-adv-x="498" 
d="M92 -163l70 164h31q-70 24 -113 84t-43 139q0 102 68.5 169t167.5 67q59 0 112 -26t82 -70l-65 -41q-43 68 -129 68q-68 0 -111.5 -47.5t-43.5 -119.5t43.5 -119.5t111.5 -47.5q86 0 129 68l65 -41q-29 -44 -82 -70t-112 -26q-14 0 -21 1l-77 -152h-83z" />
    <glyph glyph-name="egrave" unicode="&#xe8;" horiz-adv-x="519" 
d="M488 200h-368q8 -63 46.5 -102.5t98.5 -39.5q80 0 119 56h94q-30 -58 -87.5 -92t-126.5 -34q-98 0 -162.5 66.5t-64.5 169.5t64 169.5t162 66.5q96 0 160.5 -65t64.5 -195zM263 390q-57 0 -93.5 -34t-47.5 -91h274q-3 50 -40 87.5t-93 37.5zM275 700l70 -164h-83l-83 164
h96z" />
    <glyph glyph-name="eacute" unicode="&#xe9;" horiz-adv-x="519" 
d="M488 200h-368q8 -63 46.5 -102.5t98.5 -39.5q80 0 119 56h94q-30 -58 -87.5 -92t-126.5 -34q-98 0 -162.5 66.5t-64.5 169.5t64 169.5t162 66.5q96 0 160.5 -65t64.5 -195zM263 390q-57 0 -93.5 -34t-47.5 -91h274q-3 50 -40 87.5t-93 37.5zM179 536l70 164h96l-83 -164
h-83z" />
    <glyph glyph-name="ecircumflex" unicode="&#xea;" horiz-adv-x="519" 
d="M488 200h-368q8 -63 46.5 -102.5t98.5 -39.5q80 0 119 56h94q-30 -58 -87.5 -92t-126.5 -34q-98 0 -162.5 66.5t-64.5 169.5t64 169.5t162 66.5q96 0 160.5 -65t64.5 -195zM263 390q-57 0 -93.5 -34t-47.5 -91h274q-3 50 -40 87.5t-93 37.5zM119 536l90 164h106l90 -164
h-83l-60 108l-60 -108h-83z" />
    <glyph glyph-name="edieresis" unicode="&#xeb;" horiz-adv-x="519" 
d="M488 200h-368q8 -63 46.5 -102.5t98.5 -39.5q80 0 119 56h94q-30 -58 -87.5 -92t-126.5 -34q-98 0 -162.5 66.5t-64.5 169.5t64 169.5t162 66.5q96 0 160.5 -65t64.5 -195zM263 390q-57 0 -93.5 -34t-47.5 -91h274q-3 50 -40 87.5t-93 37.5zM122 584q0 23 17 40.5
t40 17.5t40.5 -17.5t17.5 -40.5t-17.5 -40t-40.5 -17t-40 17t-17 40zM287 584q0 23 17 40.5t40 17.5t40.5 -17.5t17.5 -40.5t-17.5 -40t-40.5 -17t-40 17t-17 40z" />
    <glyph glyph-name="igrave" unicode="&#xec;" horiz-adv-x="234" 
d="M166 448v-448h-79v383h-71v65h150zM131 700l70 -164h-83l-83 164h96z" />
    <glyph glyph-name="iacute" unicode="&#xed;" horiz-adv-x="234" 
d="M166 448v-448h-79v383h-71v65h150zM35 536l70 164h96l-83 -164h-83z" />
    <glyph glyph-name="icircumflex" unicode="&#xee;" horiz-adv-x="234" 
d="M166 448v-448h-79v383h-71v65h150zM-24 536l90 164h106l90 -164h-83l-60 108l-60 -108h-83z" />
    <glyph glyph-name="idieresis" unicode="&#xef;" horiz-adv-x="234" 
d="M166 448v-448h-79v383h-71v65h150zM-21 584q0 23 17 40.5t40 17.5t40.5 -17.5t17.5 -40.5t-17.5 -40t-40.5 -17t-40 17t-17 40zM144 584q0 23 17 40.5t40 17.5t40.5 -17.5t17.5 -40.5t-17.5 -40t-40.5 -17t-40 17t-17 40z" />
    <glyph glyph-name="eth" unicode="&#xf0;" horiz-adv-x="550" 
d="M222 700q38 -25 68 -49l90 62l34 -51l-76 -53q172 -166 172 -366q0 -113 -68.5 -184t-168.5 -71q-99 0 -168 67t-69 169t67 169t166 67q24 0 57.5 -10t56.5 -35l6 4q-28 64 -113 147l-83 -58l-34 51l71 50q-27 24 -55.5 46.5t-43.5 33.5l-15 11h106zM427 224
q0 71 -43 118t-111 47t-111 -47t-43 -118t43 -118t111 -47t111 47t43 118z" />
    <glyph glyph-name="ntilde" unicode="&#xf1;" horiz-adv-x="529" 
d="M466 293v-293h-79v288q0 47 -26 75.5t-74 28.5q-72 0 -140 -78v-314h-79v448h77v-61q62 73 156 73q78 0 121.5 -45.5t43.5 -121.5zM184 539h-68v22t4.5 28t12.5 33.5t26.5 22.5t45.5 11q33 0 70.5 -24.5t47.5 -24.5q24 0 26 37v10h68v-22t-4.5 -28t-12.5 -33.5
t-26.5 -22.5t-45.5 -11q-33 0 -70.5 24.5t-47.5 24.5q-24 0 -26 -37v-10z" />
    <glyph glyph-name="ograve" unicode="&#xf2;" horiz-adv-x="546" 
d="M36 224q0 102 69 169t168 67t168 -67t69 -169t-69 -169t-168 -67t-168 67t-69 169zM429 224q0 72 -44 119.5t-112 47.5t-112 -47.5t-44 -119.5t44 -119.5t112 -47.5t112 47.5t44 119.5zM286 700l70 -164h-83l-83 164h96z" />
    <glyph glyph-name="oacute" unicode="&#xf3;" horiz-adv-x="546" 
d="M36 224q0 102 69 169t168 67t168 -67t69 -169t-69 -169t-168 -67t-168 67t-69 169zM429 224q0 72 -44 119.5t-112 47.5t-112 -47.5t-44 -119.5t44 -119.5t112 -47.5t112 47.5t44 119.5zM190 536l70 164h96l-83 -164h-83z" />
    <glyph glyph-name="ocircumflex" unicode="&#xf4;" horiz-adv-x="546" 
d="M36 224q0 102 69 169t168 67t168 -67t69 -169t-69 -169t-168 -67t-168 67t-69 169zM429 224q0 72 -44 119.5t-112 47.5t-112 -47.5t-44 -119.5t44 -119.5t112 -47.5t112 47.5t44 119.5zM130 536l90 164h106l90 -164h-83l-60 108l-60 -108h-83z" />
    <glyph glyph-name="otilde" unicode="&#xf5;" horiz-adv-x="546" 
d="M36 224q0 102 69 169t168 67t168 -67t69 -169t-69 -169t-168 -67t-168 67t-69 169zM429 224q0 72 -44 119.5t-112 47.5t-112 -47.5t-44 -119.5t44 -119.5t112 -47.5t112 47.5t44 119.5zM190 539h-68v22t4.5 28t12.5 33.5t26.5 22.5t45.5 11q33 0 70.5 -24.5t47.5 -24.5
q24 0 26 37v10h68v-22t-4.5 -28t-12.5 -33.5t-26.5 -22.5t-45.5 -11q-33 0 -70.5 24.5t-47.5 24.5q-24 0 -26 -37v-10z" />
    <glyph glyph-name="odieresis" unicode="&#xf6;" horiz-adv-x="546" 
d="M36 224q0 102 69 169t168 67t168 -67t69 -169t-69 -169t-168 -67t-168 67t-69 169zM429 224q0 72 -44 119.5t-112 47.5t-112 -47.5t-44 -119.5t44 -119.5t112 -47.5t112 47.5t44 119.5zM133 584q0 23 17 40.5t40 17.5t40.5 -17.5t17.5 -40.5t-17.5 -40t-40.5 -17t-40 17
t-17 40zM298 584q0 23 17 40.5t40 17.5t40.5 -17.5t17.5 -40.5t-17.5 -40t-40.5 -17t-40 17t-17 40z" />
    <glyph glyph-name="divide" unicode="&#xf7;" 
d="M183 179q0 28 19 47.5t47 19.5t47.5 -19.5t19.5 -47.5t-19.5 -47t-47.5 -19t-47 19t-19 47zM183 519q0 28 19 47.5t47 19.5t47.5 -19.5t19.5 -47.5t-19.5 -47t-47.5 -19t-47 19t-19 47zM30 315v70h439v-70h-439z" />
    <glyph glyph-name="oslash" unicode="&#xf8;" horiz-adv-x="546" 
d="M36 224q0 102 69 169t168 67q69 0 126 -35l29 35h77l-59 -72q64 -69 64 -164q0 -102 -69 -169t-168 -67q-72 0 -127 35l-29 -35h-77l59 72q-63 68 -63 164zM429 224q0 59 -32 104l-205 -249q36 -22 81 -22q68 0 112 47.5t44 119.5zM117 224q0 -61 31 -104l205 249
q-36 22 -80 22q-68 0 -112 -47.5t-44 -119.5z" />
    <glyph glyph-name="ugrave" unicode="&#xf9;" horiz-adv-x="520" 
d="M260 -12q-91 0 -145 50t-54 123v287h79v-277q0 -55 33.5 -84.5t86.5 -29.5t86.5 29.5t33.5 84.5v277h79v-287q0 -73 -54 -123t-145 -50zM273 700l70 -164h-83l-83 164h96z" />
    <glyph glyph-name="uacute" unicode="&#xfa;" horiz-adv-x="520" 
d="M260 -12q-91 0 -145 50t-54 123v287h79v-277q0 -55 33.5 -84.5t86.5 -29.5t86.5 29.5t33.5 84.5v277h79v-287q0 -73 -54 -123t-145 -50zM177 536l70 164h96l-83 -164h-83z" />
    <glyph glyph-name="ucircumflex" unicode="&#xfb;" horiz-adv-x="520" 
d="M260 -12q-91 0 -145 50t-54 123v287h79v-277q0 -55 33.5 -84.5t86.5 -29.5t86.5 29.5t33.5 84.5v277h79v-287q0 -73 -54 -123t-145 -50zM117 536l90 164h106l90 -164h-83l-60 108l-60 -108h-83z" />
    <glyph glyph-name="udieresis" unicode="&#xfc;" horiz-adv-x="520" 
d="M260 -12q-91 0 -145 50t-54 123v287h79v-277q0 -55 33.5 -84.5t86.5 -29.5t86.5 29.5t33.5 84.5v277h79v-287q0 -73 -54 -123t-145 -50zM120 584q0 23 17 40.5t40 17.5t40.5 -17.5t17.5 -40.5t-17.5 -40t-40.5 -17t-40 17t-17 40zM285 584q0 23 17 40.5t40 17.5
t40.5 -17.5t17.5 -40.5t-17.5 -40t-40.5 -17t-40 17t-17 40z" />
    <glyph glyph-name="yacute" unicode="&#xfd;" horiz-adv-x="481" 
d="M191 -52l18 52h-20l-164 448h88l128 -380l136 380h83l-201 -525q-20 -52 -50.5 -75.5t-91.5 -23.5h-52v65h50q32 0 48 12.5t28 46.5zM195 536l70 164h96l-83 -164h-83z" />
    <glyph glyph-name="thorn" unicode="&#xfe;" horiz-adv-x="573" 
d="M307 -12q-52 0 -97 24t-63 60v-248h-79v876h79v-327q18 37 64.5 62t98.5 25q98 0 162 -66.5t64 -169.5q0 -102 -65 -169t-164 -67zM453 224q0 71 -43 118t-111 47t-111 -47t-43 -118t43 -118t111 -47t111 47t43 118z" />
    <glyph glyph-name="ydieresis" unicode="&#xff;" horiz-adv-x="481" 
d="M191 -52l18 52h-20l-164 448h88l128 -380l136 380h83l-201 -525q-20 -52 -50.5 -75.5t-91.5 -23.5h-52v65h50q32 0 48 12.5t28 46.5zM102 584q0 23 17 40.5t40 17.5t40.5 -17.5t17.5 -40.5t-17.5 -40t-40.5 -17t-40 17t-17 40zM267 584q0 23 17 40.5t40 17.5t40.5 -17.5
t17.5 -40.5t-17.5 -40t-40.5 -17t-40 17t-17 40z" />
    <glyph glyph-name="dotlessi" unicode="&#x131;" horiz-adv-x="234" 
d="M166 448v-448h-79v383h-71v65h150z" />
    <glyph glyph-name="Lslash" unicode="&#x141;" horiz-adv-x="497" 
d="M31 248v70l60 21v361h81v-332l207 75v-70l-207 -75v-229h310v-69h-391v269z" />
    <glyph glyph-name="lslash" unicode="&#x142;" horiz-adv-x="236" 
d="M158 700v-314l70 44v-74l-70 -44v-312h-79v263l-70 -44v74l70 44v363h79z" />
    <glyph glyph-name="OE" unicode="&#x152;" horiz-adv-x="1033" 
d="M1000 0h-597q-170 0 -265 95.5t-95 254.5t95 254.5t265 95.5h597v-70h-399v-239h256v-68h-256v-254h399v-69zM125 350q0 -139 76.5 -210t215.5 -71h103v562h-103q-139 0 -215.5 -71t-76.5 -210z" />
    <glyph glyph-name="oe" unicode="&#x153;" horiz-adv-x="909" 
d="M878 200h-368q8 -63 46.5 -102.5t98.5 -39.5q80 0 119 56h94q-30 -58 -87.5 -92t-126.5 -34q-63 0 -111.5 28.5t-75.5 79.5q-30 -51 -80.5 -79.5t-113.5 -28.5q-99 0 -168 67t-69 169t69 169t168 67q63 0 114 -28.5t80 -79.5q27 51 75 79.5t111 28.5q96 0 160.5 -65
t64.5 -195zM429 224q0 72 -44 119.5t-112 47.5t-112 -47.5t-44 -119.5t44 -119.5t112 -47.5t112 47.5t44 119.5zM653 390q-57 0 -93.5 -34t-47.5 -91h274q-3 50 -40 87.5t-93 37.5z" />
    <glyph glyph-name="Scaron" unicode="&#x160;" horiz-adv-x="504" 
d="M459 625l-45 -56q-27 34 -67 54t-83 20q-62 0 -95.5 -29.5t-33.5 -72.5q0 -68 83 -112l88 -47q85 -46 121.5 -92.5t36.5 -109.5q0 -81 -58 -136.5t-158 -55.5q-71 0 -130 27t-92 68l42 67q66 -91 177 -91q64 0 102 32t38 85q0 43 -26.5 74.5t-91.5 64.5l-74 38
q-71 37 -103.5 81t-32.5 105q0 82 60.5 127.5t145.5 45.5q57 0 109.5 -22.5t86.5 -64.5zM205 789l-90 164h83l60 -108l60 108h83l-90 -164h-106z" />
    <glyph glyph-name="scaron" unicode="&#x161;" horiz-adv-x="391" 
d="M355 399l-45 -52q-43 48 -107 48q-37 0 -57 -16.5t-20 -36.5q0 -41 50 -62l69 -28q58 -24 83.5 -55.5t25.5 -76.5v-2q0 -51 -43 -90.5t-119 -39.5q-101 0 -169 70l43 56q54 -59 127 -59q41 0 63 17.5t22 47.5q0 23 -16.5 39t-62.5 34l-53 21q-95 37 -95 122v1
q0 47 39.5 85t115.5 38q88 0 149 -61zM145 536l-90 164h83l60 -108l60 108h83l-90 -164h-106z" />
    <glyph glyph-name="Ydieresis" unicode="&#x178;" horiz-adv-x="649" 
d="M285 310l-274 390h97l218 -321l218 321h92l-270 -387v-313h-81v310zM187 837q0 23 17 40.5t40 17.5t40.5 -17.5t17.5 -40.5t-17.5 -40t-40.5 -17t-40 17t-17 40zM352 837q0 23 17 40.5t40 17.5t40.5 -17.5t17.5 -40.5t-17.5 -40t-40.5 -17t-40 17t-17 40z" />
    <glyph glyph-name="Zcaron" unicode="&#x17d;" horiz-adv-x="588" 
d="M459 631h-419v69h514v-70l-432 -561h432v-69h-524v70zM243 789l-90 164h83l60 -108l60 108h83l-90 -164h-106z" />
    <glyph glyph-name="zcaron" unicode="&#x17e;" horiz-adv-x="433" 
d="M395 448v-65l-267 -318h267v-65h-357v65l269 318h-269v65h357zM163 536l-90 164h83l60 -108l60 108h83l-90 -164h-106z" />
    <glyph glyph-name="florin" unicode="&#x192;" horiz-adv-x="374" 
d="M148 347v218q0 58 32 96.5t104 38.5h46v-65h-35q-68 0 -68 -57v-231h90v-65h-90v-323q0 -58 -32 -96.5t-104 -38.5h-46v65h35q68 0 68 57v336h-90v65h90z" />
    <glyph glyph-name="circumflex" unicode="&#x2c6;" horiz-adv-x="346" 
d="M30 536l90 164h106l90 -164h-83l-60 108l-60 -108h-83z" />
    <glyph glyph-name="caron" unicode="&#x2c7;" horiz-adv-x="346" 
d="M120 536l-90 164h83l60 -108l60 108h83l-90 -164h-106z" />
    <glyph glyph-name="breve" unicode="&#x2d8;" horiz-adv-x="294" 
d="M194 636v48h70v-47q0 -56 -33.5 -86.5t-83.5 -30.5t-83.5 30.5t-33.5 86.5v47h69v-48q0 -51 48 -51q47 0 47 51z" />
    <glyph glyph-name="dotaccent" unicode="&#x2d9;" horiz-adv-x="193" 
d="M30 600q0 28 19 47.5t47 19.5t47.5 -19.5t19.5 -47.5t-19.5 -47t-47.5 -19t-47 19t-19 47z" />
    <glyph glyph-name="ring" unicode="&#x2da;" horiz-adv-x="269" 
d="M27 607q0 44 32 74.5t75 30.5h1q43 0 75 -30.5t32 -74.5t-32 -74.5t-75 -30.5h-1q-43 0 -75 30.5t-32 74.5zM184 607q0 22 -14 36.5t-35 14.5t-35.5 -14.5t-14.5 -36.5t14.5 -36.5t35.5 -14.5t35 14.5t14 36.5z" />
    <glyph glyph-name="ogonek" unicode="&#x2db;" horiz-adv-x="251" 
d="M28 -109q0 27 19.5 51.5t50 41.5t50.5 26t37 15l34 -6q-67 -47 -94 -75t-27 -54q0 -27 47 -27q29 0 72 14v-50q-36 -18 -83 -18q-49 0 -77.5 21.5t-28.5 60.5z" />
    <glyph glyph-name="tilde" unicode="&#x2dc;" horiz-adv-x="379" 
d="M107 539h-68v22t4.5 28t12.5 33.5t26.5 22.5t45.5 11q33 0 70.5 -24.5t47.5 -24.5q24 0 26 37v10h68v-22t-4.5 -28t-12.5 -33.5t-26.5 -22.5t-45.5 -11q-33 0 -70.5 24.5t-47.5 24.5q-24 0 -26 -37v-10z" />
    <glyph glyph-name="hungarumlaut" unicode="&#x2dd;" horiz-adv-x="388" 
d="M30 536l70 164h96l-83 -164h-83zM192 536l70 164h96l-83 -164h-83z" />
    <glyph glyph-name="Delta" unicode="&#x394;" horiz-adv-x="663" 
d="M629 0h-595v75l245 625h104l246 -625v-75zM536 75l-207 540l-206 -540h413z" />
    <glyph glyph-name="Delta" unicode="&#x2206;" horiz-adv-x="663" 
d="M629 0h-595v75l245 625h104l246 -625v-75zM536 75l-207 540l-206 -540h413z" />
    <glyph glyph-name="pi" unicode="&#x3c0;" horiz-adv-x="598" 
d="M461 383v-279q0 -23 12.5 -31t35.5 -8l62 1v-66q-39 -4 -76 -4q-113 0 -113 94v293h-201v-383h-79v383h-81v65h530v-65h-90z" />
    <glyph glyph-name="endash" unicode="&#x2013;" horiz-adv-x="579" 
d="M60 225v70h459v-70h-459z" />
    <glyph glyph-name="emdash" unicode="&#x2014;" horiz-adv-x="1040" 
d="M60 225v70h920v-70h-920z" />
    <glyph glyph-name="quoteleft" unicode="&#x2018;" horiz-adv-x="238" 
d="M181 543q0 -28 -19 -47.5t-47 -19.5t-47.5 19.5t-19.5 47.5q0 20 10 40l70 129h63l-49 -108q39 -17 39 -61z" />
    <glyph glyph-name="quoteright" unicode="&#x2019;" horiz-adv-x="245" 
d="M67 645q0 28 19 47.5t47 19.5t47.5 -19.5t19.5 -47.5q0 -20 -10 -40l-70 -129h-63l49 108q-39 17 -39 61z" />
    <glyph glyph-name="quotesinglbase" unicode="&#x201a;" horiz-adv-x="251" 
d="M59 53q0 28 19 47.5t47 19.5t47.5 -19.5t19.5 -47.5q0 -20 -10 -40l-70 -129h-63l49 108q-39 17 -39 61z" />
    <glyph glyph-name="quotedblleft" unicode="&#x201c;" horiz-adv-x="431" 
d="M181 543q0 -28 -19 -47.5t-47 -19.5t-47.5 19.5t-19.5 47.5q0 20 10 40l70 129h63l-49 -108q39 -17 39 -61zM374 543q0 -28 -19 -47.5t-47 -19.5t-47.5 19.5t-19.5 47.5q0 20 10 40l70 129h63l-49 -108q39 -17 39 -61z" />
    <glyph glyph-name="quotedblright" unicode="&#x201d;" horiz-adv-x="438" 
d="M260 645q0 28 19 47.5t47 19.5t47.5 -19.5t19.5 -47.5q0 -20 -10 -40l-70 -129h-63l49 108q-39 17 -39 61zM67 645q0 28 19 47.5t47 19.5t47.5 -19.5t19.5 -47.5q0 -20 -10 -40l-70 -129h-63l49 108q-39 17 -39 61z" />
    <glyph glyph-name="quotedblbase" unicode="&#x201e;" horiz-adv-x="444" 
d="M252 53q0 28 19 47.5t47 19.5t47.5 -19.5t19.5 -47.5q0 -20 -10 -40l-70 -129h-63l49 108q-39 17 -39 61zM59 53q0 28 19 47.5t47 19.5t47.5 -19.5t19.5 -47.5q0 -20 -10 -40l-70 -129h-63l49 108q-39 17 -39 61z" />
    <glyph glyph-name="dagger" unicode="&#x2020;" horiz-adv-x="511" 
d="M293 0h-76v425h-181v70h181v205h76v-205h182v-70h-182v-425z" />
    <glyph glyph-name="daggerdbl" unicode="&#x2021;" horiz-adv-x="539" 
d="M50 425v70h181v205h76v-205h182v-70h-182v-110h182v-70h-182v-245h-76v245h-181v70h181v110h-181z" />
    <glyph glyph-name="bullet" unicode="&#x2022;" horiz-adv-x="374" 
d="M78 359q0 45 32 77t77 32t77 -32t32 -77t-32 -77t-77 -32t-77 32t-32 77z" />
    <glyph glyph-name="ellipsis" unicode="&#x2026;" horiz-adv-x="776" 
d="M59 53q0 28 19 47.5t47 19.5t47.5 -19.5t19.5 -47.5t-19.5 -47t-47.5 -19t-47 19t-19 47zM322 53q0 28 19 47.5t47 19.5t47.5 -19.5t19.5 -47.5t-19.5 -47t-47.5 -19t-47 19t-19 47zM585 53q0 28 19 47.5t47 19.5t47.5 -19.5t19.5 -47.5t-19.5 -47t-47.5 -19t-47 19
t-19 47z" />
    <glyph glyph-name="perthousand" unicode="&#x2030;" horiz-adv-x="1071" 
d="M54 554q0 65 46.5 111.5t111.5 46.5t111.5 -46.5t46.5 -111.5t-46.5 -111.5t-111.5 -46.5t-111.5 46.5t-46.5 111.5zM124 554q0 -38 26 -65.5t62 -27.5t62 27.5t26 65.5t-26 65.5t-62 27.5t-62 -27.5t-26 -65.5zM681 146q0 -65 -46.5 -111.5t-111.5 -46.5t-111.5 46.5
t-46.5 111.5t46.5 111.5t111.5 46.5t111.5 -46.5t46.5 -111.5zM611 146q0 38 -26 65.5t-62 27.5t-62 -27.5t-26 -65.5t26 -65.5t62 -27.5t62 27.5t26 65.5zM681 547l-586 -450l-41 55l585 450zM1037 146q0 -65 -46.5 -111.5t-111.5 -46.5t-111.5 46.5t-46.5 111.5
t46.5 111.5t111.5 46.5t111.5 -46.5t46.5 -111.5zM967 146q0 38 -26 65.5t-62 27.5t-62 -27.5t-26 -65.5t26 -65.5t62 -27.5t62 27.5t26 65.5z" />
    <glyph glyph-name="guilsinglleft" unicode="&#x2039;" horiz-adv-x="290" 
d="M151 85l-104 154l104 154h84l-104 -154l104 -154h-84z" />
    <glyph glyph-name="guilsinglright" unicode="&#x203a;" horiz-adv-x="290" 
d="M243 239l-104 -154h-84l104 154l-104 154h84z" />
    <glyph glyph-name="fraction" unicode="&#x2044;" horiz-adv-x="675" 
d="M650 547l-586 -450l-41 55l585 450z" />
    <glyph glyph-name="Euro" unicode="&#x20ac;" horiz-adv-x="735" 
d="M43 405v65h72q27 112 103 177t189 65q111 0 182.5 -61.5t97.5 -165.5h-85q-43 157 -196 157q-82 0 -134.5 -46t-74.5 -126h280v-65h-292q-3 -27 -3 -55q0 -39 2 -57h293v-65h-281q45 -171 211 -171q151 0 195 157h85q-26 -104 -98 -165t-182 -61q-114 0 -189.5 64.5
t-102.5 175.5h-72v65h61q-3 27 -3 57q0 28 3 55h-61z" />
    <glyph glyph-name="trademark" unicode="&#x2122;" horiz-adv-x="1094" 
d="M794 418l122 282h102v-431h-76v320l-120 -274h-60l-121 274v-320h-73v431h107zM57 700h397v-68h-162v-363h-74v363h-161v68z" />
    <glyph glyph-name="Omega" unicode="&#x2126;" horiz-adv-x="663" 
d="M332 642q-88 0 -148.5 -53.5t-60.5 -154.5q0 -177 163 -213v-221h-209v65h134v115q-68 20 -118 84t-50 170q0 124 83 201t206 77q122 0 205 -77.5t83 -200.5q0 -106 -50 -170t-118 -84v-115h134v-65h-209v221q163 36 163 213q0 101 -60.5 154.5t-147.5 53.5z" />
    <glyph glyph-name="partialdiff" unicode="&#x2202;" horiz-adv-x="558" 
d="M222 700q29 -18 59.5 -41.5t74 -67.5t75.5 -92t55.5 -116.5t23.5 -139.5q0 -113 -68.5 -184t-168.5 -71q-99 0 -168 67t-69 169t67 169t166 67q24 0 57.5 -10t56.5 -35l6 4q-15 35 -48.5 77t-71 76.5t-72.5 64.5t-58 47l-23 16h106zM427 224q0 71 -43 118t-111 47
t-111 -47t-43 -118t43 -118t111 -47t111 47t43 118z" />
    <glyph glyph-name="product" unicode="&#x220f;" horiz-adv-x="675" 
d="M588 0h-81v630h-339v-630h-81v700h501v-700z" />
    <glyph glyph-name="summation" unicode="&#x2211;" horiz-adv-x="599" 
d="M543 700v-70h-407l190 -248v-46l-194 -267h411v-69h-497v70l208 285l-208 275v70h497z" />
    <glyph glyph-name="minus" unicode="&#x2212;" 
d="M30 315v70h439v-70h-439z" />
    <glyph glyph-name="radical" unicode="&#x221a;" horiz-adv-x="564" 
d="M114 448l128 -380l231 632h83l-266 -700h-100l-164 448h88z" />
    <glyph glyph-name="infinity" unicode="&#x221e;" horiz-adv-x="942" 
d="M431 350q-39 82 -75 109.5t-86 27.5q-47 0 -86.5 -32t-39.5 -103q0 -74 39 -106.5t87 -32.5q50 0 86 27.5t75 109.5zM471 406q29 73 82 111t124 38q82 0 139.5 -54t57.5 -151t-57.5 -151t-139.5 -54q-71 0 -124 38t-82 111q-29 -73 -82 -111t-124 -38q-82 0 -139.5 54
t-57.5 151t57.5 151t139.5 54q71 0 124 -38t82 -111zM511 350q39 -82 75 -109.5t86 -27.5q48 0 87 32.5t39 106.5q0 71 -39.5 103t-86.5 32q-50 0 -86 -27.5t-75 -109.5z" />
    <glyph glyph-name="integral" unicode="&#x222b;" horiz-adv-x="328" 
d="M204 578v-619q0 -58 -32 -96.5t-104 -38.5h-46v65h35q68 0 68 57v619q0 58 32 96.5t104 38.5h46v-65h-35q-68 0 -68 -57z" />
    <glyph glyph-name="approxequal" unicode="&#x2248;" 
d="M105 375h-72q0 123 94 123q28 0 131.5 -25.5t114.5 -25.5q25 0 27 39v10h72q0 -123 -94 -123q-28 0 -131.5 25t-114.5 25q-25 0 -27 -38v-10zM105 201h-72q0 123 94 123q28 0 131.5 -25.5t114.5 -25.5q25 0 27 39v10h72q0 -123 -94 -123q-28 0 -131.5 25t-114.5 25
q-25 0 -27 -38v-10z" />
    <glyph glyph-name="notequal" unicode="&#x2260;" 
d="M33 405v65h182v96h76v-96h175v-65h-175v-111h175v-65h-175v-96h-76v96h-182v65h182v111h-182z" />
    <glyph glyph-name="lessequal" unicode="&#x2264;" 
d="M463 244v-84l-439 153v74l439 153v-84l-326 -106zM24 0v70h439v-70h-439z" />
    <glyph glyph-name="greaterequal" unicode="&#x2265;" 
d="M476 70v-70h-439v70h439zM37 160v84l326 106l-326 106v84l439 -153v-74z" />
    <glyph glyph-name="lozenge" unicode="&#x25ca;" horiz-adv-x="490" 
d="M35 350l160 350h106l151 -350l-151 -350h-106zM369 350l-121 287l-130 -287l130 -287z" />
    <glyph glyph-name="apple" horiz-adv-x="1200" 
d="M1053 734q48 -49 74.5 -118t26.5 -143q0 -85 -32 -168t-84 -151.5t-121.5 -130t-141.5 -107t-146 -78.5q-31 -14 -62 0q-97 44 -187 107.5t-166.5 144.5t-122.5 181.5t-46 203.5q0 74 27 143t75 119q92 93 235 93q124 0 222 -86q94 84 217 84q141 0 232 -94zM1110 474
q0 67 -24.5 128.5t-69.5 105.5q-82 79 -198 79q-121 0 -218 -87q-102 88 -221 88q-114 0 -195 -78q-45 -44 -70 -106.5t-25 -130.5q0 -137 90 -268q67 -98 171 -180q53 -43 113.5 -80.5t87.5 -51t38 -17.5q9 -4 18 0q11 4 38 17.5t88 51t115 79.5q106 83 171 179
q91 133 91 271zM818 751q103 0 172 -69q83 -81 83 -209q0 -125 -84 -250q-62 -89 -164 -170q-108 -86 -227 -143q-116 56 -226 144q-103 82 -163 172q-83 120 -83 248t84 210q71 68 172 68t192 -77q-55 -58 -99 -135q-77 -135 -123 -319l-50 10q-7 2 -13.5 -2t-7.5 -11
q-4 -16 14 -20l135 -29q16 -4 20 13q3 17 -13 21l-48 10q39 155 100 274q52 -19 109 -19q60 0 112 20q62 -124 98 -276l-48 -10q-16 -4 -14 -20q4 -18 21 -14l135 28q17 4 13 20q-1 7 -7 11.5t-13 2.5l-49 -10v1q-1 1 -1 2q-47 186 -123 320q-43 78 -95 131q90 77 191 77z
M747 97q0 7 -5.5 12.5t-12.5 5.5h-179q34 18 57 32.5t53.5 39t46.5 54.5t16 63q0 50 -33 87t-90 37q-56 0 -93.5 -32.5t-37.5 -83.5q0 -36 24.5 -64.5t62.5 -28.5q30 0 54 19t24 54q0 23 -11.5 33.5t-24.5 10.5q-14 0 -23.5 -9.5t-9.5 -22.5q0 -17 15 -27q1 -1 0 -6.5
t-7.5 -10.5t-18.5 -5q-22 0 -34.5 18.5t-12.5 39.5q0 36 25 58t66 22q40 0 62.5 -26t22.5 -62q0 -68 -109 -139q-22 -14 -46.5 -27t-38.5 -20.5t-15 -8.5q-8 -10 -4 -20q5 -11 17 -11h241q19 0 19 18zM791 595l26 -50q11 -22 35 -30q29 -8 55 7q25 13 34.5 39.5t-2.5 49.5
l-33 67q-3 7 -11 9t-14 -1l-135 -74q-16 -9 -7 -25t25 -7zM1031 403l-40 89q-3 7 -10 10q-8 2 -14 -1l-129 -62q-16 -9 -9 -24l47 -105q7 -16 23 -9q7 3 10 10t0 13l-40 90l33 15l15 -33q7 -16 24 -9q16 7 9 24l-15 34l31 15l32 -72q7 -16 24 -9q16 7 9 24zM598 506
q-48 0 -92 14q47 82 94 130q43 -44 93 -129q-43 -15 -95 -15zM352 597l-98 -22q-18 -4 -14 -22t22 -14l104 23l9 -22q-7 -9 -7 -18q0 -10 8 -18t18 -8q11 0 17 8q13 12 4 34l-63 159q-7 17 -24 10t-10 -24zM209 362l17 50l114 -40q18 -7 23 11q3 7 -0.5 14t-10.5 9l-115 41
l15 47q5 18 -12 23q-7 2 -14 -1.5t-9 -10.5l-43 -132q-2 -7 1.5 -14t10.5 -9q18 -5 23 12zM849 561l-26 52l59 32l25 -50q5 -12 0 -24t-17 -18q-29 -13 -41 8zM566 3q0 -14 9.5 -23.5t22.5 -9.5t22.5 10t9.5 22q0 14 -9 23.5t-23 9.5t-23 -9.5t-9 -22.5zM421 655
q0 -14 9.5 -23.5t22.5 -9.5t22.5 10t9.5 22q0 14 -9 23.5t-23 9.5t-23 -9.5t-9 -22.5z" />
    <glyph glyph-name="zero.onum" horiz-adv-x="544" 
d="M272 505q95 0 154.5 -65.5t59.5 -192.5q0 -128 -59.5 -194t-154.5 -66q-94 0 -153.5 66t-59.5 194q0 126 59.5 192t153.5 66zM138 247q0 -94 35.5 -142t98.5 -48t99 48t36 142t-36 141.5t-99 47.5t-98.5 -47.5t-35.5 -141.5z" />
    <glyph glyph-name="one.onum" horiz-adv-x="436" 
d="M62 429v65h209v-428h131v-66h-340v66h132v363h-132z" />
    <glyph glyph-name="two.onum" horiz-adv-x="514" 
d="M60 0v72l147 93q97 61 130 95.5t34 83.5q0 46 -32.5 71.5t-77.5 25.5q-50 0 -84.5 -26.5t-34.5 -75.5q0 -26 19 -62l-65 -19q-26 38 -26 89q0 60 50.5 109t138.5 49q86 0 136.5 -46.5t50.5 -112.5q0 -64 -38 -110t-124 -99l-114 -71h282v-66h-392z" />
    <glyph glyph-name="three.onum" horiz-adv-x="504" 
d="M244 -182q-90 0 -144.5 54t-54.5 143v25h77v-27q0 -58 30.5 -94.5t91.5 -36.5q63 0 94.5 41t31.5 107q0 60 -38 98.5t-101 38.5q-43 0 -66 -3v62l195 203h-283v65h362v-75l-187 -193q85 0 140.5 -55t55.5 -140q0 -93 -55.5 -153t-148.5 -60z" />
    <glyph glyph-name="four.onum" horiz-adv-x="515" 
d="M32 31v62l230 401h117v-401h103v-62h-103v-201h-75v201h-272zM302 442l-200 -349h202v349h-2z" />
    <glyph glyph-name="five.onum" horiz-adv-x="507" 
d="M251 -118q63 0 95 42.5t32 112.5t-31.5 112.5t-93.5 42.5q-63 0 -101 -36h-65v338h346v-65h-279v-202h3q39 30 103 30q93 0 144 -59t51 -155q0 -100 -55 -162.5t-148 -62.5q-91 0 -145.5 54t-54.5 143v25h77v-27q0 -58 30.5 -94.5t91.5 -36.5z" />
    <glyph glyph-name="six.onum" horiz-adv-x="518" 
d="M292 664h101q-166 -169 -232 -298l2 -1q46 43 115 43q81 0 136.5 -54t55.5 -155q0 -96 -56.5 -153.5t-148.5 -57.5t-148.5 59.5t-56.5 160.5q0 206 232 456zM137 198q0 -63 33 -104t95 -41t95 41t33 104t-33 104.5t-95 41.5t-95 -41.5t-33 -104.5z" />
    <glyph glyph-name="seven.onum" horiz-adv-x="458" 
d="M189 -171h-85l232 596h-307v69h380v-64z" />
    <glyph glyph-name="eight.onum" horiz-adv-x="552" 
d="M276 676q89 0 142 -50.5t53 -133.5q0 -51 -25.5 -91t-70.5 -59q46 -20 78.5 -64.5t32.5 -97.5q0 -87 -58.5 -139.5t-151.5 -52.5t-151.5 52.5t-58.5 139.5q0 53 32.5 97.5t78.5 64.5q-45 19 -70.5 59t-25.5 91q0 83 53 133.5t142 50.5zM276 370q60 0 90 34t30 87
t-30 86.5t-90 33.5t-90 -33.5t-30 -86.5t30 -87t90 -34zM276 51q62 0 97.5 37.5t35.5 90.5t-35.5 90.5t-97.5 37.5t-97.5 -37.5t-35.5 -90.5t35.5 -90.5t97.5 -37.5z" />
    <glyph glyph-name="nine.onum" horiz-adv-x="498" 
d="M218 -171h-101q166 169 232 298l-2 1q-46 -43 -115 -43q-81 0 -136.5 54t-55.5 155q0 96 56.5 153.5t148.5 57.5t148.5 -59.5t56.5 -160.5q0 -206 -232 -456zM373 295q0 63 -33 104t-95 41t-95 -41t-33 -104t33 -104.5t95 -41.5t95 41.5t33 104.5z" />
    </font>
</defs>
</svg>
