<?xml version="1.0" standalone="no"?>
<!DOCTYPE svg PUBLIC "-//W3C//DTD SVG 1.1//EN" "http://www.w3.org/Graphics/SVG/1.1/DTD/svg11.dtd" >
<svg>
<metadata>
Created by FontForge 20110222 at Tue Aug  6 06:09:55 2013
 By Orthosie Webhosting
Copyright (c) 2011 by Henrik Kubel, A2/SW/HK. All rights reserved.
</metadata>
<defs>
<font id="RegularBold" horiz-adv-x="542" >
  <font-face 
    font-family="RegularBold"
    font-weight="700"
    font-stretch="normal"
    units-per-em="1000"
    panose-1="2 0 8 3 3 0 0 2 0 3"
    ascent="750"
    descent="-250"
    x-height="458"
    cap-height="700"
    bbox="-31 -254 1155 977"
    underline-thickness="200"
    underline-position="0"
    unicode-range="U+0020-FB02"
  />
<missing-glyph horiz-adv-x="230" 
 />
    <glyph glyph-name="fi" unicode="fi" horiz-adv-x="527" 
d="M472 458v-458h-130v348h-123v-348h-129v348h-73v110h73v118q0 124 149 124h225v-120h-201q-44 0 -44 -45v-77h253z" />
    <glyph glyph-name="fl" unicode="fl" horiz-adv-x="551" 
d="M365 0v580h-102q-44 0 -44 -45v-77h89v-110h-89v-348h-129v348h-73v110h73v118q0 62 36 93t91 31h277v-700h-129z" />
    <glyph glyph-name=".notdef" horiz-adv-x="230" 
 />
    <glyph glyph-name=".null" horiz-adv-x="0" 
 />
    <glyph glyph-name="nonmarkingreturn" horiz-adv-x="333" 
 />
    <glyph glyph-name="space" unicode=" " horiz-adv-x="215" 
 />
    <glyph glyph-name="exclam" unicode="!" horiz-adv-x="273" 
d="M198 226h-124l-10 474h144zM50 75q0 36 25.5 61.5t61.5 25.5t61.5 -25.5t25.5 -61.5t-25.5 -61.5t-61.5 -25.5t-61.5 25.5t-25.5 61.5z" />
    <glyph glyph-name="quotedbl" unicode="&#x22;" horiz-adv-x="444" 
d="M59 425v275h132v-275h-132zM254 425v275h131v-275h-131z" />
    <glyph glyph-name="numbersign" unicode="#" horiz-adv-x="566" 
d="M49 417v99h88v144h105v-144h81v144h105v-144h89v-99h-89v-95h89v-99h-89v-145h-105v145h-81v-145h-105v145h-88v99h88v95h-88zM242 417v-95h81v95h-81z" />
    <glyph glyph-name="dollar" unicode="$" horiz-adv-x="567" 
d="M523 609l-84 -97q-39 45 -82 63l-24 -160l22 -11q94 -46 131.5 -94.5t37.5 -120.5q0 -83 -65.5 -142t-172.5 -59q-13 0 -19 1l-12 -82h-63l14 90q-112 24 -173 96l74 108q45 -55 118 -78l27 178l-47 23q-74 36 -108 82.5t-34 110.5q0 86 66 140.5t162 54.5q4 0 12 -0.5
t12 -0.5l11 69h63l-12 -80q88 -24 146 -91zM377 189q0 26 -15.5 45t-50.5 38l-25 -159q39 0 65 21.5t26 54.5zM207 523q0 -47 62 -77l5 -3l23 146h-2q-44 0 -66 -20t-22 -46z" />
    <glyph glyph-name="percent" unicode="%" horiz-adv-x="717" 
d="M43 547q0 68 49 116.5t119 48.5q68 0 117 -48.5t49 -116.5q0 -67 -49 -115.5t-117 -48.5q-70 0 -119 48t-49 116zM145 547q0 -29 19.5 -50t46.5 -21q26 0 45.5 21t19.5 50q0 30 -19 50.5t-46 20.5t-46.5 -20.5t-19.5 -50.5zM675 151q0 -68 -48.5 -115.5t-118.5 -47.5
t-118.5 47.5t-48.5 115.5t49 116.5t118 48.5t118 -48.5t49 -116.5zM574 151q0 30 -19.5 50.5t-46.5 20.5t-46.5 -20.5t-19.5 -50.5q0 -29 20 -50t46 -21t46 21t20 50zM677 540l-589 -453l-50 70l586 450z" />
    <glyph glyph-name="ampersand" unicode="&#x26;" horiz-adv-x="683" 
d="M671 20v-20h-165l-71 75q-68 -87 -193 -87q-90 0 -150.5 55.5t-60.5 140.5q0 117 121 205q-56 73 -56 142t53 125t155 56q80 0 133 -46.5t53 -112.5q0 -52 -24 -88l-115 12q14 30 14 51q0 28 -19.5 47t-45.5 19q-33 0 -51 -20.5t-18 -49.5q0 -48 52 -104
q102 -110 143 -151q31 57 51 116h151q-47 -121 -107 -210zM347 164q-40 44 -122 130q-55 -55 -55 -107q0 -35 26 -57t58 -22q27 0 52.5 15t40.5 41z" />
    <glyph glyph-name="quotesingle" unicode="'" horiz-adv-x="256" 
d="M59 424v276h138v-276h-138z" />
    <glyph glyph-name="parenleft" unicode="(" horiz-adv-x="335" 
d="M33 282q0 208 170 418h117v-16q-69 -82 -110.5 -187t-41.5 -215q0 -112 42.5 -226t109.5 -194v-15h-117q-170 207 -170 435z" />
    <glyph glyph-name="parenright" unicode=")" horiz-adv-x="335" 
d="M302 282q0 -228 -170 -435h-117v15q67 80 109.5 194t42.5 226q0 110 -41.5 215t-110.5 187v16h117q170 -210 170 -418z" />
    <glyph glyph-name="asterisk" unicode="*" horiz-adv-x="512" 
d="M335 483q6 -1 22 -5t23 -5.5t21 -6t21 -7.5t17 -9t14.5 -12t8.5 -14.5t5 -18.5q0 -25 -17.5 -42t-40.5 -17q-6 0 -13.5 2.5t-17 8t-16.5 10t-19 13.5t-17 13.5t-18 15t-15 12.5q2 -7 8.5 -28.5t11 -39t4.5 -27.5q0 -31 -15.5 -50.5t-45.5 -19.5t-45.5 19.5t-15.5 50.5
q0 10 4 27.5t10.5 40t8.5 28.5l-18 -15t-19 -15.5t-17.5 -14t-18 -13t-15.5 -9.5t-15 -7t-13 -2q-26 0 -41.5 16.5t-15.5 42.5q1 11 5 20t13.5 16t17 12t22.5 10t23 7.5t26 7t24 5.5q-6 2 -24.5 6t-26.5 6t-23.5 7t-22.5 9.5t-16 12t-13 17t-5 21.5q0 25 17 41.5t40 16.5
q18 0 41 -13q14 -8 43 -34t32 -28q-2 6 -8.5 28t-10.5 39.5t-4 28.5q0 30 15.5 49.5t45.5 19.5t45.5 -19.5t15.5 -49.5q0 -10 -4.5 -28t-11 -39t-8.5 -29q94 75 116 75q23 0 40.5 -16.5t17.5 -41.5q0 -9 -2.5 -16.5t-8 -14t-11 -11t-15.5 -9.5t-17 -7.5t-20 -6t-19 -5.5
t-20.5 -5t-18.5 -4zM205 483q0 -21 15 -36t36 -15t36 15t15 36t-15 36t-36 15t-36 -15t-15 -36z" />
    <glyph glyph-name="plus" unicode="+" horiz-adv-x="532" 
d="M204 293h-160v117h160v162h122v-162h161v-117h-161v-162h-122v162z" />
    <glyph glyph-name="comma" unicode="," horiz-adv-x="269" 
d="M46 74q0 37 25 62t62 25q38 0 64 -25t26 -62q0 -26 -13 -50l-79 -147h-105l57 126q-37 24 -37 71z" />
    <glyph glyph-name="hyphen" unicode="-" horiz-adv-x="362" 
d="M53 187v121h256v-121h-256z" />
    <glyph glyph-name="period" unicode="." horiz-adv-x="264" 
d="M45 75q0 36 25.5 61.5t61.5 25.5t61.5 -25.5t25.5 -61.5t-25.5 -61.5t-61.5 -25.5t-61.5 25.5t-25.5 61.5z" />
    <glyph glyph-name="slash" unicode="/" horiz-adv-x="421" 
d="M32 0l237 700h121l-238 -700h-120z" />
    <glyph glyph-name="zero" unicode="0" 
d="M271 712q114 0 179 -91t65 -270q0 -181 -65 -272t-179 -91q-115 0 -180 91t-65 272q0 179 65.5 270t179.5 91zM169 351q0 -235 102 -235t102 235q0 234 -102 234t-102 -234z" />
    <glyph glyph-name="one" unicode="1" 
d="M85 580v120h268v-581h135v-119h-411v119h135v461h-127z" />
    <glyph glyph-name="two" unicode="2" 
d="M44 0v120q106 86 206 189q62 64 85 105t23 85q0 38 -25 64t-68 26q-40 0 -66.5 -22.5t-26.5 -60.5q0 -32 18 -73l-128 -23q-26 51 -26 108q0 79 62.5 136.5t168.5 57.5q109 0 171.5 -60.5t62.5 -145.5q0 -70 -40.5 -140.5t-159.5 -175.5l-77 -68h276v-122h-456z" />
    <glyph glyph-name="three" unicode="3" 
d="M266 -12q-109 0 -171 58.5t-62 153.5v31h142v-30q0 -42 21 -70t67 -28t69 30t23 81q0 50 -29.5 81t-83.5 31q-48 0 -73 -7v124l160 137h-263v120h420v-133l-181 -145h2q83 -2 138 -62t55 -144q0 -101 -64.5 -164.5t-169.5 -63.5z" />
    <glyph glyph-name="four" unicode="4" 
d="M18 179v116l236 405h178v-406h88v-115h-88v-179h-135v179h-279zM292 560l-154 -266h159v266h-5z" />
    <glyph glyph-name="five" unicode="5" 
d="M180 201q0 -42 21 -70t66 -28q92 0 92 121q0 56 -23 89t-71 33q-50 0 -80 -30l-117 13v371h411v-124h-289v-141h5q35 26 100 26q98 0 153.5 -63t55.5 -166q0 -110 -61 -177t-172 -67q-109 0 -171 58.5t-62 153.5v31h142v-30z" />
    <glyph glyph-name="six" unicode="6" 
d="M209 412l5 -2q32 29 93 29q87 0 149 -57t62 -162t-66 -168.5t-172 -63.5q-111 0 -179 69t-68 179q0 63 21 127.5t46.5 111t67 97.5t64.5 74t56 54h184l-14 -12q-59 -50 -130 -125t-119 -151zM173 217q0 -49 27 -81t76 -32q48 0 74.5 32.5t26.5 80.5q0 49 -26.5 82
t-74.5 33q-49 0 -76 -33t-27 -82z" />
    <glyph glyph-name="seven" unicode="7" 
d="M258 0h-154l249 576h-315v124h450v-120z" />
    <glyph glyph-name="eight" unicode="8" 
d="M271 712q103 0 165 -55t62 -142q0 -48 -26.5 -90t-73.5 -62q52 -20 83.5 -66.5t31.5 -101.5q0 -95 -67 -151t-175 -56q-109 0 -175.5 56t-66.5 151q0 55 32 102t83 66q-47 20 -74 62t-27 90q0 87 62.5 142t165.5 55zM271 412q45 0 67.5 26.5t22.5 66.5t-22.5 66t-67.5 26
q-46 0 -68.5 -26t-22.5 -66t23 -66.5t68 -26.5zM271 103q48 0 75 29t27 70t-27 70t-75 29t-75.5 -29t-27.5 -70t27 -70t76 -29z" />
    <glyph glyph-name="nine" unicode="9" 
d="M334 287l-5 3q-33 -30 -94 -30q-87 0 -149 57t-62 163q0 104 66.5 168t172.5 64q111 0 178.5 -69.5t67.5 -179.5q0 -63 -21 -128t-46 -110t-67.5 -97t-64 -73.5t-55.5 -54.5h-184l14 12q182 167 249 275zM369 483q0 48 -26.5 80.5t-75.5 32.5t-75.5 -32.5t-26.5 -80.5
q0 -49 26.5 -82.5t75.5 -33.5t75.5 33.5t26.5 82.5z" />
    <glyph glyph-name="colon" unicode=":" horiz-adv-x="289" 
d="M57 75q0 36 25.5 61.5t61.5 25.5q37 0 62.5 -25.5t25.5 -61.5q0 -37 -25.5 -62t-62.5 -25q-36 0 -61.5 25t-25.5 62zM57 382q0 37 25.5 62.5t61.5 25.5q37 0 62.5 -25.5t25.5 -62.5q0 -36 -25.5 -61.5t-62.5 -25.5q-36 0 -61.5 25.5t-25.5 61.5z" />
    <glyph glyph-name="semicolon" unicode=";" horiz-adv-x="290" 
d="M58 74q0 37 25 62t62 25q38 0 64 -25t26 -62q0 -24 -13 -50l-79 -147h-105l57 126q-37 24 -37 71zM57 382q0 37 25.5 62.5t61.5 25.5q37 0 62 -25.5t25 -62.5q0 -36 -25 -61.5t-62 -25.5q-36 0 -61.5 25.5t-25.5 61.5z" />
    <glyph glyph-name="less" unicode="&#x3c;" horiz-adv-x="664" 
d="M616 298h-360l135 -149l-85 -83l-277 293l277 294l85 -83l-135 -149h360v-123z" />
    <glyph glyph-name="equal" unicode="=" horiz-adv-x="532" 
d="M44 386v118h443v-118h-443zM44 196v116h443v-116h-443z" />
    <glyph glyph-name="greater" unicode="&#x3e;" horiz-adv-x="665" 
d="M409 298h-361v123h361l-135 149l85 83l277 -294l-277 -293l-85 83z" />
    <glyph glyph-name="question" unicode="?" horiz-adv-x="507" 
d="M472 507q0 -40 -11.5 -76.5t-48.5 -72.5t-97 -48l-5 -101h-123l-11 189l41 2q58 3 86 31.5t28 69.5q0 38 -22.5 62t-59.5 24q-39 0 -60 -25t-21 -64v-14h-134q-1 1 -1 21q0 96 60.5 151.5t159.5 55.5q97 0 158 -57t61 -148zM162 74q0 37 25.5 62.5t61.5 25.5
q37 0 62.5 -25.5t25.5 -62.5q0 -35 -25.5 -60.5t-62.5 -25.5q-36 0 -61.5 25.5t-25.5 60.5z" />
    <glyph glyph-name="at" unicode="@" horiz-adv-x="924" 
d="M453 83q38 0 63.5 20.5t25.5 60.5v33q-10 -10 -40 -10h-49q-65 0 -65 -50q0 -24 17.5 -39t47.5 -15zM672 301v-194q0 -37 30 -37q44 0 72 61.5t28 130.5q0 142 -95 227t-237 85q-141 0 -239 -96.5t-98 -249.5t98 -249t248 -96q121 0 192 51l126 -12q-57 -57 -140.5 -87.5
t-177.5 -30.5q-191 0 -315.5 118t-124.5 306q0 187 126.5 306.5t319.5 119.5q166 0 285.5 -107.5t119.5 -283.5q0 -124 -55 -199.5t-156 -75.5q-90 0 -118 63q-48 -63 -144 -63q-77 0 -120 41.5t-43 102.5q0 67 44.5 104t121.5 37h90q32 0 32 27v5q0 25 -19.5 39.5
t-56.5 14.5q-65 0 -138 -43l-51 98q10 6 27 15.5t68.5 25t100.5 15.5q85 0 142 -42t57 -127z" />
    <glyph glyph-name="A" unicode="A" horiz-adv-x="640" 
d="M402 700l231 -700h-150l-60 191h-211l-56 -191h-146l226 700h166zM388 310l-71 242l-72 -242h143z" />
    <glyph glyph-name="B" unicode="B" horiz-adv-x="583" 
d="M515 521q0 -103 -94 -146q132 -52 132 -174q0 -87 -61.5 -144t-169.5 -57h-249v700h226q102 0 159 -53t57 -126zM212 302v-185h72q61 0 92.5 26t31.5 70q0 43 -32 66t-85 23h-79zM283 582h-71v-156h71q40 0 65.5 20t25.5 59q0 38 -26 57.5t-65 19.5z" />
    <glyph glyph-name="C" unicode="C" horiz-adv-x="765" 
d="M397 712q122 0 217.5 -70t125.5 -191h-153q-20 62 -70 97.5t-120 35.5q-98 0 -159 -66t-61 -168t61 -168.5t159 -66.5q70 0 120 35t70 97h155q-31 -121 -127 -190t-218 -69q-153 0 -259 103t-106 259q0 157 104.5 259.5t260.5 102.5z" />
    <glyph glyph-name="D" unicode="D" horiz-adv-x="710" 
d="M676 350q0 -158 -97 -254t-266 -96h-240v700h240q169 0 266 -96t97 -254zM534 350q0 112 -63 171.5t-163 59.5h-96v-463h96q101 0 163.5 59.5t62.5 172.5z" />
    <glyph glyph-name="E" unicode="E" horiz-adv-x="629" 
d="M594 700v-120h-382v-164h223v-119h-223v-178h382v-119h-521v700h521z" />
    <glyph glyph-name="F" unicode="F" horiz-adv-x="591" 
d="M482 278h-270v-278h-139v700h507v-120h-368v-182h270v-120z" />
    <glyph glyph-name="G" unicode="G" horiz-adv-x="776" 
d="M390 -12q-152 0 -255 102.5t-103 259.5t104.5 259.5t260.5 102.5q122 0 217.5 -70t125.5 -191h-153q-20 62 -70 97.5t-120 35.5q-98 0 -159 -66t-61 -168q0 -107 63 -171t159 -64q69 0 118 35t65 83h-153v112h297v-345h-113v95q-27 -42 -82 -74.5t-141 -32.5z" />
    <glyph glyph-name="H" unicode="H" horiz-adv-x="702" 
d="M629 0h-139v297h-278v-297h-139v700h139v-284h278v284h139v-700z" />
    <glyph glyph-name="I" unicode="I" horiz-adv-x="285" 
d="M73 0v700h139v-700h-139z" />
    <glyph glyph-name="J" unicode="J" horiz-adv-x="285" 
d="M-21 -15h46q29 0 38.5 11.5t9.5 45.5v658h139v-694q0 -71 -34 -106t-113 -35h-86v120z" />
    <glyph glyph-name="K" unicode="K" horiz-adv-x="635" 
d="M212 700v-276h36l230 276h167l-285 -332l274 -368h-172l-218 306h-32v-306h-139v700h139z" />
    <glyph glyph-name="L" unicode="L" horiz-adv-x="520" 
d="M509 0h-436v700h139v-581h297v-119z" />
    <glyph glyph-name="M" unicode="M" horiz-adv-x="838" 
d="M493 150h-147l-138 345v-495h-135v700h196l153 -397l156 397h187v-700h-138v495z" />
    <glyph glyph-name="N" unicode="N" horiz-adv-x="702" 
d="M210 506v-506h-137v700h186l233 -466v466h137v-700h-160z" />
    <glyph glyph-name="O" unicode="O" horiz-adv-x="795" 
d="M398 712q153 0 259.5 -103t106.5 -259t-106.5 -259t-259.5 -103q-154 0 -260 103t-106 259t106 259t260 103zM398 115q98 0 159 66.5t61 168.5t-61 168t-159 66t-159.5 -66t-61.5 -168t61.5 -168.5t159.5 -66.5z" />
    <glyph glyph-name="P" unicode="P" horiz-adv-x="580" 
d="M211 237v-237h-138v700h237q119 0 185.5 -65t66.5 -165q0 -99 -66.5 -166t-185.5 -67h-99zM289 580h-78v-224h78q60 0 95.5 29t35.5 85t-35.5 83t-95.5 27z" />
    <glyph glyph-name="Q" unicode="Q" horiz-adv-x="795" 
d="M398 712q153 0 259.5 -103t106.5 -259q0 -91 -39 -166.5t-107 -124.5l19 -27q25 -36 80 -36l50 3v-122q-64 -5 -101 -5q-59 0 -93 27.5t-82 100.5q-51 -12 -93 -12q-154 0 -260 103t-106 259t106 259t260 103zM398 115q20 0 28 2l-63 100l115 69l67 -110q73 61 73 174
q0 102 -61 168t-159 66t-159.5 -66t-61.5 -168t61.5 -168.5t159.5 -66.5z" />
    <glyph glyph-name="R" unicode="R" horiz-adv-x="601" 
d="M425 0l-135 269h-78v-269h-139v700h243q112 0 177.5 -59.5t65.5 -153.5q0 -139 -133 -192l159 -295h-160zM420 486q0 46 -32 70t-90 24h-86v-190h86q58 0 90 25.5t32 70.5z" />
    <glyph glyph-name="S" unicode="S" horiz-adv-x="543" 
d="M508 609l-84 -97q-65 77 -144 77q-44 0 -66 -20t-22 -46q0 -47 62 -77l86 -42q94 -46 131.5 -94.5t37.5 -120.5q0 -83 -65.5 -142t-172.5 -59q-83 0 -150 31.5t-103 73.5l74 108q30 -36 79.5 -62t98.5 -26q39 0 65.5 21.5t26.5 54.5q0 30 -20.5 51t-70.5 45l-81 39
q-74 36 -108 82.5t-34 110.5q0 86 66 140.5t162 54.5q65 0 127 -26t105 -77z" />
    <glyph glyph-name="T" unicode="T" horiz-adv-x="590" 
d="M17 700h556v-124h-209v-576h-138v576h-209v124z" />
    <glyph glyph-name="U" unicode="U" horiz-adv-x="656" 
d="M328 -12q-126 0 -193.5 68.5t-67.5 175.5v468h139v-452q0 -60 32.5 -99.5t91.5 -39.5q62 0 92.5 39t30.5 100v452h136v-468q0 -107 -68 -175.5t-193 -68.5z" />
    <glyph glyph-name="V" unicode="V" horiz-adv-x="638" 
d="M244 0l-238 700h154l160 -519l168 519h144l-237 -700h-151z" />
    <glyph glyph-name="W" unicode="W" horiz-adv-x="960" 
d="M409 700h145l135 -502l112 502h142l-171 -700h-156l-137 513l-134 -513h-156l-173 700h150l109 -501z" />
    <glyph glyph-name="X" unicode="X" horiz-adv-x="627" 
d="M621 700l-225 -352l231 -348h-163l-155 248l-150 -248h-160l228 354l-218 346h162l146 -245l146 245h158z" />
    <glyph glyph-name="Y" unicode="Y" horiz-adv-x="672" 
d="M268 304l-268 396h166l174 -270l171 270h160l-265 -393v-307h-138v304z" />
    <glyph glyph-name="Z" unicode="Z" horiz-adv-x="633" 
d="M421 576h-380v124h555v-119l-384 -458h384v-123h-563v114z" />
    <glyph glyph-name="bracketleft" unicode="[" horiz-adv-x="370" 
d="M336 583h-133v-620h133v-116h-269v853h269v-117z" />
    <glyph glyph-name="backslash" unicode="\" horiz-adv-x="420" 
d="M151 700l238 -700h-120l-238 700h120z" />
    <glyph glyph-name="bracketright" unicode="]" horiz-adv-x="370" 
d="M167 583h-133v117h269v-853h-269v117h133v619z" />
    <glyph glyph-name="asciicircum" unicode="^" horiz-adv-x="532" 
d="M38 225l152 475h161l143 -475h-133l-92 338l-97 -338h-134z" />
    <glyph glyph-name="underscore" unicode="_" horiz-adv-x="406" 
d="M53 -153v114h300v-114h-300z" />
    <glyph glyph-name="grave" unicode="`" horiz-adv-x="243" 
d="M187 700l50 -173h-124l-92 173h166z" />
    <glyph glyph-name="a" unicode="a" horiz-adv-x="492" 
d="M222 83q38 0 63.5 20.5t25.5 60.5v33q-10 -10 -40 -10h-49q-65 0 -65 -50q0 -24 17.5 -39t47.5 -15zM311 300v5q0 25 -19.5 39.5t-56.5 14.5q-65 0 -138 -43l-51 98q10 6 27 15.5t68.5 25t100.5 15.5q85 0 142 -42t57 -127v-301h-130v43q-37 -55 -125 -55
q-72 0 -117.5 40t-45.5 104q0 67 44.5 104t121.5 37h90q32 0 32 27z" />
    <glyph glyph-name="b" unicode="b" horiz-adv-x="579" 
d="M300 354q-51 0 -84 -35.5t-33 -89.5q0 -53 33 -89.5t84 -36.5t84 36.5t33 89.5q0 54 -33 89.5t-84 35.5zM186 58v-58h-130v700h130v-226q0 -17 -1 -44t-1 -31q17 31 56 51t89 20q95 0 158.5 -68.5t63.5 -172.5t-64 -172.5t-159 -68.5q-47 0 -85.5 20t-56.5 50z" />
    <glyph glyph-name="c" unicode="c" horiz-adv-x="515" 
d="M272 354q-51 0 -83 -35.5t-32 -89.5t32 -89.5t83 -35.5q73 0 101 70l122 -38q-22 -68 -83.5 -108t-140.5 -40q-103 0 -173.5 68.5t-70.5 172.5t70.5 172.5t173.5 68.5q79 0 140.5 -40.5t83.5 -108.5l-122 -37q-13 32 -39.5 51t-61.5 19z" />
    <glyph glyph-name="d" unicode="d" horiz-adv-x="579" 
d="M279 354q-51 0 -84 -35.5t-33 -89.5q0 -53 33 -89.5t84 -36.5t84 36.5t33 89.5q0 54 -33 89.5t-84 35.5zM393 0v58q-18 -30 -56.5 -50t-86.5 -20q-95 0 -158.5 68.5t-63.5 172.5q0 105 63 173t158 68q50 0 89 -20t57 -51q0 5 -1 36.5t-1 50.5v214h130v-700h-130z" />
    <glyph glyph-name="e" unicode="e" horiz-adv-x="526" 
d="M505 196v-5h-341q5 -39 34 -65.5t71 -26.5q65 0 92 47l135 -14q-30 -72 -90 -108t-139 -36q-103 0 -171.5 68t-68.5 173t67.5 173t170.5 68t171.5 -69t68.5 -205zM265 362q-40 0 -68 -23t-36 -61h205q-5 36 -33 60t-68 24z" />
    <glyph glyph-name="f" unicode="f" horiz-adv-x="327" 
d="M90 458v130q0 63 36 92t94 29l95 -6v-119q-40 5 -54 5q-21 0 -31.5 -8t-10.5 -30v-93h89v-110h-89v-348h-129v348h-73v110h73z" />
    <glyph glyph-name="g" unicode="g" horiz-adv-x="576" 
d="M390 458h130v-492q0 -61 -35 -101t-112 -40h-199v109h167q49 0 49 41v89q-17 -29 -56 -49t-86 -20q-95 0 -157.5 65.5t-62.5 171.5t62 172t157 66q50 0 88.5 -20t56.5 -51l-1 12q-1 12 -1 26v21zM162 232q0 -55 32 -90t83 -35q52 0 84 34.5t32 90.5t-32 91t-84 35
q-51 0 -83 -35t-32 -91z" />
    <glyph glyph-name="h" unicode="h" 
d="M186 297v-297h-130v700h128v-244q0 -17 -1 -33t-1 -19q54 66 139 66q76 0 123 -45.5t47 -124.5v-300h-130v267q0 41 -22.5 61.5t-55.5 20.5q-55 0 -97 -52z" />
    <glyph glyph-name="i" unicode="i" horiz-adv-x="272" 
d="M216 458v-458h-130v348h-64v110h194zM62 616q0 35 24.5 59.5t58.5 24.5q35 0 59.5 -24.5t24.5 -59.5t-24.5 -59t-59.5 -24t-59 24t-24 59z" />
    <glyph glyph-name="j" unicode="j" horiz-adv-x="272" 
d="M87 -37v385h-65v110h194v-523q0 -29 -9 -50t-23 -32.5t-34.5 -18t-38 -8.5t-40.5 -2h-69v110h45q40 0 40 29zM62 616q0 35 24.5 59.5t58.5 24.5q35 0 59.5 -24.5t24.5 -59.5t-24.5 -59t-59.5 -24t-59 24t-24 59z" />
    <glyph glyph-name="k" unicode="k" horiz-adv-x="508" 
d="M185 700v-401h31l126 159h157l-177 -210l182 -248h-156l-132 189h-31v-189h-129v700h129z" />
    <glyph glyph-name="l" unicode="l" horiz-adv-x="243" 
d="M186 700v-700h-129v700h129z" />
    <glyph glyph-name="m" unicode="m" horiz-adv-x="839" 
d="M658 0v269q0 40 -21.5 60t-54.5 20q-53 0 -95 -52v-297h-130v269q0 39 -21.5 59.5t-54.5 20.5q-53 0 -95 -52v-297h-130v458h127v-18l-2 -36q53 66 137 66q107 0 147 -83q60 83 154 83q76 0 122.5 -45.5t46.5 -124.5v-300h-130z" />
    <glyph glyph-name="n" unicode="n" 
d="M181 404q54 66 140 66q76 0 123 -45.5t47 -124.5v-300h-130v267q0 41 -22.5 61.5t-55.5 20.5q-55 0 -97 -52v-297h-130v458h127v-18z" />
    <glyph glyph-name="o" unicode="o" horiz-adv-x="544" 
d="M272 -12q-103 0 -174 68.5t-71 172.5t71 172.5t174 68.5t174 -68.5t71 -172.5t-71 -172.5t-174 -68.5zM272 354q-51 0 -83 -35.5t-32 -89.5t32 -89.5t83 -35.5q50 0 82 35.5t32 89.5t-32 89.5t-82 35.5z" />
    <glyph glyph-name="p" unicode="p" horiz-adv-x="579" 
d="M300 354q-51 0 -84 -35.5t-33 -89.5q0 -53 33 -89.5t84 -36.5t84 36.5t33 89.5q0 54 -33 89.5t-84 35.5zM186 58v-233h-130v633h130v-22q0 -13 -1 -25l-1 -12q17 31 56 51t89 20q95 0 158.5 -68.5t63.5 -172.5t-64 -172.5t-159 -68.5q-47 0 -85.5 20t-56.5 50z" />
    <glyph glyph-name="q" unicode="q" horiz-adv-x="579" 
d="M279 354q-51 0 -84 -35.5t-33 -89.5q0 -53 33 -89.5t84 -36.5t84 36.5t33 89.5q0 54 -33 89.5t-84 35.5zM393 -175v233q-18 -30 -56.5 -50t-86.5 -20q-95 0 -158.5 68.5t-63.5 172.5q0 105 63 173t158 68q50 0 89 -20t57 -51l-1 12q-1 12 -1 26v21h130v-633h-130z" />
    <glyph glyph-name="r" unicode="r" horiz-adv-x="355" 
d="M337 460v-130h-55q-50 0 -73 -26t-23 -85v-219h-130v458h126v-73q14 37 45 58t74 21q20 0 36 -4z" />
    <glyph glyph-name="s" unicode="s" horiz-adv-x="431" 
d="M401 402l-74 -85q-48 47 -110 47q-22 0 -34 -8.5t-12 -20.5q0 -24 32 -35l75 -25q126 -42 126 -142q0 -57 -47 -101t-134 -44q-120 0 -203 72l69 93q25 -24 62.5 -40.5t68.5 -16.5q22 0 35 9t13 23q0 16 -11 24.5t-41 18.5l-72 23q-106 34 -106 132v2q0 59 48.5 100.5
t128.5 41.5q113 0 186 -68z" />
    <glyph glyph-name="t" unicode="t" horiz-adv-x="354" 
d="M90 632h130v-174h99v-110h-99v-207q0 -33 43 -33l60 3v-111q-63 -6 -101 -6q-28 0 -48.5 3.5t-41 13.5t-31.5 31.5t-11 54.5v251h-72v110h72v174z" />
    <glyph glyph-name="u" unicode="u" horiz-adv-x="535" 
d="M268 -12q-101 0 -159.5 52t-58.5 128v290h130v-266q0 -44 25 -66t63 -22t63 21.5t25 66.5v266h129v-290q0 -76 -58 -128t-159 -52z" />
    <glyph glyph-name="v" unicode="v" horiz-adv-x="500" 
d="M153 458l98 -318l104 318h137l-163 -458h-161l-156 458h141z" />
    <glyph glyph-name="w" unicode="w" horiz-adv-x="734" 
d="M431 458l83 -298l70 298h134l-119 -458h-154l-80 286l-82 -286h-153l-112 458h140l61 -294l85 294h127z" />
    <glyph glyph-name="x" unicode="x" horiz-adv-x="483" 
d="M10 0l146 228l-145 230h150l81 -137l84 137h146l-145 -227l147 -231h-151l-83 137l-80 -137h-150z" />
    <glyph glyph-name="y" unicode="y" horiz-adv-x="500" 
d="M185 -30l10 30h-28l-157 458h145l97 -326l98 326h141l-183 -530q-18 -53 -50.5 -78t-92.5 -25h-90v109h63q35 0 47 36z" />
    <glyph glyph-name="z" unicode="z" horiz-adv-x="468" 
d="M431 458v-107l-236 -242h236v-109h-395v107l237 241h-235v110h393z" />
    <glyph glyph-name="braceleft" unicode="{" horiz-adv-x="391" 
d="M240 208v-244h117v-117h-253v391h-75v113h75v349h253v-117h-117v-189q0 -81 -56 -99q56 -24 56 -87z" />
    <glyph glyph-name="bar" unicode="|" horiz-adv-x="238" 
d="M171 -93h-104v853h104v-853z" />
    <glyph glyph-name="braceright" unicode="}" horiz-adv-x="390" 
d="M150 -36v231q0 77 56 100q-56 18 -56 99v189h-116v117h252v-349h75v-113h-75v-391h-252v117h116z" />
    <glyph glyph-name="asciitilde" unicode="~" horiz-adv-x="548" 
d="M395 261q-26 0 -108.5 21.5t-89.5 21.5q-25 0 -25 -25v-16h-117v48q0 16 0.5 25t5.5 29.5t15 33t31 22.5t51 10q26 0 108.5 -21.5t89.5 -21.5q24 0 24 25v16h118v-48q0 -16 -0.5 -25.5t-5.5 -30t-15 -32.5t-31 -22t-51 -10z" />
    <glyph glyph-name="exclamdown" unicode="&#xa1;" horiz-adv-x="254" 
d="M65 232h124l10 -474h-144zM41 383q0 36 25.5 61.5t61.5 25.5t61.5 -25.5t25.5 -61.5t-25.5 -61.5t-61.5 -25.5t-61.5 25.5t-25.5 61.5z" />
    <glyph glyph-name="cent" unicode="&#xa2;" horiz-adv-x="540" 
d="M232 0v115q-87 15 -142.5 80t-55.5 157t55.5 157t142.5 80v111h78v-109q68 -8 120 -47.5t72 -99.5l-122 -37q-21 51 -70 66v-242q49 14 70 66l122 -38q-20 -61 -72 -100t-120 -47v-112h-78zM164 352q0 -40 18 -71t50 -45v231q-32 -14 -50 -44.5t-18 -70.5z" />
    <glyph glyph-name="sterling" unicode="&#xa3;" horiz-adv-x="570" 
d="M49 296v99h46q-21 59 -21 106q0 94 63 152.5t171 58.5q98 0 161 -56.5t63 -151.5v-13h-139q0 37 -20.5 68.5t-67.5 31.5q-39 0 -64 -26.5t-25 -70.5q0 -41 21 -99h196v-99h-163q12 -43 12 -71q0 -70 -46 -106h276v-119h-464v119h69q4 2 12 9.5t18.5 28t10.5 45.5
q0 37 -24 94h-85z" />
    <glyph glyph-name="currency" unicode="&#xa4;" horiz-adv-x="764" 
d="M79 349q0 98 56 175l-93 89l77 78l92 -89q79 54 171 54q93 0 172 -54l91 89l77 -78l-93 -89q56 -77 56 -175q0 -99 -56 -175l93 -89l-77 -78l-91 89q-80 -55 -172 -55t-172 55l-91 -89l-77 78l93 89q-56 76 -56 175zM574 349q0 85 -54.5 143.5t-137.5 58.5t-137 -58.5
t-54 -143.5t54 -143.5t137 -58.5t137.5 58.5t54.5 143.5z" />
    <glyph glyph-name="yen" unicode="&#xa5;" horiz-adv-x="688" 
d="M594 154h-179v-154h-139v154h-181v98h203l-49 83h-154v98h103l-167 267h164l152 -269l150 269h159l-166 -267h104v-98h-157l-47 -83h204v-98z" />
    <glyph glyph-name="brokenbar" unicode="&#xa6;" horiz-adv-x="242" 
d="M173 391h-104v369h104v-369zM173 -93h-104v368h104v-368z" />
    <glyph glyph-name="section" unicode="&#xa7;" horiz-adv-x="589" 
d="M37 281q0 51 36 90.5t90 48.5q-81 41 -81 129q0 77 65 124t164 47q137 0 232 -84l-77 -99q-32 33 -74 52.5t-78 19.5q-47 0 -71.5 -17t-24.5 -39q0 -55 99 -73l27 -5q115 -21 161.5 -58t46.5 -107q0 -45 -31 -82.5t-87 -51.5q78 -45 78 -132q0 -76 -65.5 -123.5
t-165.5 -47.5q-74 0 -137.5 23.5t-102.5 61.5l76 95q32 -32 76.5 -49.5t83.5 -17.5q45 0 69.5 15.5t24.5 37.5q0 29 -17 39.5t-59 20.5l-89 22q-80 19 -124.5 55t-44.5 105zM170 301q0 -42 55 -57l98 -26q39 5 66 24t27 47q0 23 -20.5 37t-72.5 25l-70 15
q-36 -4 -59.5 -21.5t-23.5 -43.5z" />
    <glyph glyph-name="dieresis" unicode="&#xa8;" horiz-adv-x="396" 
d="M24 584q0 32 23 55t55 23t55.5 -23.5t23.5 -54.5t-23.5 -54.5t-55.5 -23.5t-55 23t-23 55zM215 584q0 32 23.5 55t54.5 23q32 0 55.5 -23.5t23.5 -54.5t-23.5 -54.5t-55.5 -23.5q-31 0 -54.5 23t-23.5 55z" />
    <glyph glyph-name="copyright" unicode="&#xa9;" horiz-adv-x="830" 
d="M420 563q71 0 126 -44t73 -118l-104 -3q-11 35 -36 55t-59 20q-52 0 -83.5 -35t-31.5 -88q0 -54 31.5 -89t83.5 -35q34 0 59 20t36 55l104 -3q-18 -73 -73 -117t-126 -44q-90 0 -153 60.5t-63 152.5t62 152.5t154 60.5zM415 723q159 0 268 -106.5t109 -268.5t-109 -268
t-268 -106t-268 106t-109 268t109 268.5t268 106.5zM415 52q126 0 206 83.5t80 212.5t-80 212t-206 83t-205.5 -83t-79.5 -212t80 -212.5t205 -83.5z" />
    <glyph glyph-name="ordfeminine" unicode="&#xaa;" horiz-adv-x="453" 
d="M208 385q32 0 53.5 17t21.5 50v26q-10 -7 -33 -7h-42q-54 0 -54 -41q0 -20 14.5 -32.5t39.5 -12.5zM282 569v6q0 40 -62 40q-65 0 -118 -37l-49 83q71 51 172 51q81 0 125.5 -38t44.5 -102v-260h-112v35q-33 -45 -105 -45q-66 0 -102.5 35t-36.5 88q0 57 37.5 88.5
t103.5 31.5h76q26 0 26 24z" />
    <glyph glyph-name="guillemotleft" unicode="&#xab;" horiz-adv-x="537" 
d="M153 62l-119 176l119 175h135l-111 -175l111 -176h-135zM361 62l-119 176l119 175h135l-111 -175l111 -176h-135z" />
    <glyph glyph-name="logicalnot" unicode="&#xac;" horiz-adv-x="532" 
d="M34 386v119h445v-310h-129v191h-316z" />
    <glyph glyph-name="registered" unicode="&#xae;" horiz-adv-x="830" 
d="M492 151l-83 148h-48v-148h-98v409h164q72 0 112.5 -33.5t40.5 -91.5q0 -34 -19.5 -67t-62.5 -49l107 -168h-113zM479 431q0 46 -62 46h-56v-94h56q27 0 44.5 12.5t17.5 35.5zM415 723q159 0 268 -106.5t109 -268.5t-109 -268t-268 -106t-268 106t-109 268t109 268.5
t268 106.5zM415 52q126 0 206 83.5t80 212.5t-80 212t-206 83t-205.5 -83t-79.5 -212t80 -212.5t205 -83.5z" />
    <glyph glyph-name="macron" unicode="&#xaf;" horiz-adv-x="372" 
d="M29 532v111h314v-111h-314z" />
    <glyph glyph-name="degree" unicode="&#xb0;" horiz-adv-x="410" 
d="M36 543q0 70 49.5 119.5t119.5 49.5t119.5 -49.5t49.5 -119.5t-49.5 -119.5t-119.5 -49.5q-71 0 -120 49t-49 120zM129 543q0 -34 22 -57.5t54 -23.5q31 0 53 23.5t22 57.5q0 32 -22 56t-53 24t-53.5 -24t-22.5 -56z" />
    <glyph glyph-name="plusminus" unicode="&#xb1;" horiz-adv-x="532" 
d="M44 118h444v-118h-444v118zM205 327h-161v118h161v162h123v-162h160v-118h-160v-163h-123v163z" />
    <glyph glyph-name="twosuperior" unicode="&#xb2;" horiz-adv-x="416" 
d="M56 262v80l128 112q42 37 57 62.5t16 55.5q0 20 -14 36.5t-38 16.5q-23 0 -38 -13.5t-15 -35.5q0 -23 13 -48l-91 -17q-20 31 -20 73q0 54 41 91t111 37q68 0 111 -39.5t43 -94.5q0 -44 -19 -82t-75 -86l-73 -62h167v-86h-304z" />
    <glyph glyph-name="threesuperior" unicode="&#xb3;" horiz-adv-x="403" 
d="M172 529h19q27 0 43 14.5t16 35.5t-12.5 34.5t-36.5 13.5q-25 0 -38 -15.5t-13 -39.5v-18h-102v21q0 63 41.5 100t112.5 37t111.5 -35.5t40.5 -93.5q0 -28 -18.5 -55t-53.5 -36q39 -11 58 -38.5t19 -63.5q0 -61 -42.5 -98.5t-113.5 -37.5q-72 0 -115 36.5t-43 98.5v26
h105v-22q0 -24 13.5 -39t39.5 -15q27 0 40.5 14t13.5 37q0 24 -15.5 41t-41.5 17h-28v81z" />
    <glyph glyph-name="acute" unicode="&#xb4;" horiz-adv-x="265" 
d="M24 527l50 173h166l-92 -173h-124z" />
    <glyph glyph-name="mu" unicode="&#xb5;" horiz-adv-x="534" 
d="M286 -12q-30 0 -60.5 10t-44.5 25v-198h-118v633h130v-266q0 -44 25 -66t63 -22t62.5 22t24.5 66v266h130v-290q0 -76 -55.5 -128t-156.5 -52z" />
    <glyph glyph-name="paragraph" unicode="&#xb6;" horiz-adv-x="653" 
d="M33 510q0 84 54.5 137t144.5 53h338v-700h-139v580h-90v-580h-140v330q-73 5 -120.5 54t-47.5 126z" />
    <glyph glyph-name="periodcentered" unicode="&#xb7;" horiz-adv-x="264" 
d="M44 362q0 37 25.5 62.5t61.5 25.5q37 0 62.5 -25.5t25.5 -62.5q0 -36 -25.5 -61.5t-62.5 -25.5q-36 0 -61.5 25.5t-25.5 61.5z" />
    <glyph glyph-name="cedilla" unicode="&#xb8;" horiz-adv-x="289" 
d="M31 -174l77 187h149l-93 -187h-133z" />
    <glyph glyph-name="onesuperior" unicode="&#xb9;" horiz-adv-x="368" 
d="M58 615v88h187v-354h86v-87h-278v87h88v266h-83z" />
    <glyph glyph-name="ordmasculine" unicode="&#xba;" horiz-adv-x="484" 
d="M242 302q-87 0 -147.5 59t-60.5 147t60.5 146t147.5 58q88 0 148.5 -58t60.5 -146t-60.5 -147t-148.5 -59zM242 612q-42 0 -69 -29.5t-27 -74.5q0 -46 27 -76t69 -30t69 30t27 76q0 45 -27 74.5t-69 29.5z" />
    <glyph glyph-name="guillemotright" unicode="&#xbb;" horiz-adv-x="538" 
d="M296 238l-119 -176h-136l111 176l-111 175h136zM504 238l-119 -176h-135l111 176l-111 175h135z" />
    <glyph glyph-name="onequarter" unicode="&#xbc;" horiz-adv-x="790" 
d="M386 114v74l150 258h137v-256h54v-76h-54v-114h-104v114h-183zM569 347l-88 -157h88v157zM81 615v88h187v-354h86v-87h-278v87h88v266h-83z" />
    <glyph glyph-name="onehalf" unicode="&#xbd;" horiz-adv-x="790" 
d="M410 0v82l130 109q44 37 60 63t16 56q0 20 -14.5 36.5t-38.5 16.5q-23 0 -38 -13.5t-15 -35.5q0 -25 12 -48l-93 -17q-21 30 -21 73q0 54 42.5 91t114.5 37q70 0 114 -39.5t44 -94.5q0 -44 -19 -82t-77 -86l-75 -62h171v-86h-313zM77 615v88h187v-354h86v-87h-278v87h88
v266h-83z" />
    <glyph glyph-name="threequarters" unicode="&#xbe;" horiz-adv-x="790" 
d="M380 114v74l150 258h138v-256h53v-76h-53v-114h-105v114h-183zM563 347l-88 -159h88v159zM203 529h20q26 0 42 14.5t16 35.5t-12.5 34.5t-36.5 13.5q-25 0 -38 -15.5t-13 -39.5v-18h-102v21q0 63 41.5 100t113.5 37q70 0 111 -35.5t41 -93.5q0 -28 -18.5 -55t-54.5 -36
q39 -11 58.5 -39t19.5 -63q0 -61 -42.5 -98.5t-113.5 -37.5q-72 0 -115.5 36.5t-43.5 98.5v26h105v-22q0 -24 13.5 -39t40.5 -15q26 0 40 14.5t14 36.5q0 24 -15.5 41t-42.5 17h-28v81z" />
    <glyph glyph-name="questiondown" unicode="&#xbf;" horiz-adv-x="499" 
d="M31 -49q0 40 11.5 76.5t48.5 72.5t97 48l5 101h123l11 -189l-41 -2q-58 -3 -86 -31.5t-28 -69.5q0 -38 22.5 -62t59.5 -24q39 0 60 25t21 64v14h134q1 -1 1 -21q0 -96 -60.5 -151.5t-159.5 -55.5q-97 0 -158 57t-61 148zM341 384q0 -37 -25.5 -62.5t-61.5 -25.5
q-37 0 -62.5 25.5t-25.5 62.5q0 35 25.5 60.5t62.5 25.5q36 0 61.5 -25.5t25.5 -60.5z" />
    <glyph glyph-name="Agrave" unicode="&#xc0;" horiz-adv-x="640" 
d="M402 700l231 -700h-150l-60 191h-211l-56 -191h-146l226 700h166zM379 941l50 -173h-124l-92 173h166zM388 310l-71 242l-72 -242h143z" />
    <glyph glyph-name="Aacute" unicode="&#xc1;" horiz-adv-x="640" 
d="M402 700l231 -700h-150l-60 191h-211l-56 -191h-146l226 700h166zM213 768l50 173h166l-92 -173h-124zM388 310l-71 242l-72 -242h143z" />
    <glyph glyph-name="Acircumflex" unicode="&#xc2;" horiz-adv-x="640" 
d="M402 700l231 -700h-150l-60 191h-211l-56 -191h-146l226 700h166zM146 769l101 172h147l102 -172h-136l-40 76l-38 -76h-136zM388 310l-71 242l-72 -242h143z" />
    <glyph glyph-name="Atilde" unicode="&#xc3;" horiz-adv-x="640" 
d="M402 700l231 -700h-150l-60 191h-211l-56 -191h-146l226 700h166zM255 906q27 0 68 -19t46 -19q22 0 22 26v9h101q0 -148 -106 -148q-27 0 -68 19t-46 19q-22 0 -22 -26v-10h-101q0 149 106 149zM388 310l-71 242l-72 -242h143z" />
    <glyph glyph-name="Adieresis" unicode="&#xc4;" horiz-adv-x="640" 
d="M402 700l231 -700h-150l-60 191h-211l-56 -191h-146l226 700h166zM147 825q0 32 23 55t55 23t55.5 -23.5t23.5 -54.5t-23.5 -54.5t-55.5 -23.5t-55 23t-23 55zM338 825q0 31 23 54.5t55 23.5t55.5 -23.5t23.5 -54.5t-23.5 -54.5t-55.5 -23.5t-55 23.5t-23 54.5zM388 310
l-71 242l-72 -242h143z" />
    <glyph glyph-name="Aring" unicode="&#xc5;" horiz-adv-x="640" 
d="M402 700l231 -700h-150l-60 191h-211l-56 -191h-146l226 700h166zM320 728q-54 0 -92 36t-38 88q0 54 37.5 89.5t92.5 35.5t92.5 -35.5t37.5 -89.5q0 -52 -37.5 -88t-92.5 -36zM388 310l-71 242l-72 -242h143zM320 905q-20 0 -34.5 -15.5t-14.5 -37.5t14.5 -37t34.5 -15
q21 0 35 15t14 37q0 23 -14 38t-35 15z" />
    <glyph glyph-name="AE" unicode="&#xc6;" horiz-adv-x="1009" 
d="M453 226h-178l-111 -226h-162l365 700h607v-120h-382v-164h223v-119h-223v-178h382v-119h-521v226zM453 345v244l-120 -244h120z" />
    <glyph glyph-name="Ccedilla" unicode="&#xc7;" horiz-adv-x="765" 
d="M262 -174l69 168q-130 21 -214.5 119t-84.5 237q0 157 104.5 259.5t260.5 102.5q122 0 217.5 -70t125.5 -191h-153q-20 62 -70 97.5t-120 35.5q-98 0 -159 -66t-61 -168t61 -168.5t159 -66.5q70 0 120 35t70 97h155q-26 -99 -96.5 -164t-165.5 -86l-85 -171h-133z" />
    <glyph glyph-name="Egrave" unicode="&#xc8;" horiz-adv-x="629" 
d="M594 700v-120h-382v-164h223v-119h-223v-178h382v-119h-521v700h521zM374 941l50 -173h-124l-92 173h166z" />
    <glyph glyph-name="Eacute" unicode="&#xc9;" horiz-adv-x="629" 
d="M594 700v-120h-382v-164h223v-119h-223v-178h382v-119h-521v700h521zM253 768l50 173h166l-92 -173h-124z" />
    <glyph glyph-name="Ecircumflex" unicode="&#xca;" horiz-adv-x="629" 
d="M594 700v-120h-382v-164h223v-119h-223v-178h382v-119h-521v700h521zM146 769l101 172h147l102 -172h-136l-40 76l-38 -76h-136z" />
    <glyph glyph-name="Edieresis" unicode="&#xcb;" horiz-adv-x="629" 
d="M594 700v-120h-382v-164h223v-119h-223v-178h382v-119h-521v700h521zM153 825q0 32 23 55t55 23t55.5 -23.5t23.5 -54.5t-23.5 -54.5t-55.5 -23.5t-55 23t-23 55zM344 825q0 31 23 54.5t55 23.5t55.5 -23.5t23.5 -54.5t-23.5 -54.5t-55.5 -23.5t-55 23.5t-23 54.5z" />
    <glyph glyph-name="Igrave" unicode="&#xcc;" horiz-adv-x="285" 
d="M73 0v700h139v-700h-139zM200 941l50 -173h-124l-92 173h166z" />
    <glyph glyph-name="Iacute" unicode="&#xcd;" horiz-adv-x="285" 
d="M73 0v700h139v-700h-139zM34 768l50 173h166l-92 -173h-124z" />
    <glyph glyph-name="Icircumflex" unicode="&#xce;" horiz-adv-x="285" 
d="M73 0v700h139v-700h-139zM-31 769l101 172h147l102 -172h-136l-40 76l-38 -76h-136z" />
    <glyph glyph-name="Idieresis" unicode="&#xcf;" horiz-adv-x="285" 
d="M73 0v700h139v-700h-139zM-30 825q0 32 23 55t55 23t55.5 -23.5t23.5 -54.5t-23.5 -54.5t-55.5 -23.5t-55 23t-23 55zM161 825q0 31 23.5 54.5t54.5 23.5q32 0 55.5 -23.5t23.5 -54.5t-23.5 -54.5t-55.5 -23.5q-31 0 -54.5 23.5t-23.5 54.5z" />
    <glyph glyph-name="Eth" unicode="&#xd0;" horiz-adv-x="714" 
d="M19 307v99h58v294h240q169 0 266 -96t97 -254t-97 -254t-266 -96h-240v307h-58zM538 350q0 112 -63 171.5t-163 59.5h-96v-175h178v-99h-178v-189h96q101 0 163.5 59.5t62.5 172.5z" />
    <glyph glyph-name="Ntilde" unicode="&#xd1;" horiz-adv-x="702" 
d="M210 506v-506h-137v700h186l233 -466v466h137v-700h-160zM285 906q27 0 68 -19t46 -19q22 0 22 26v9h101q0 -148 -106 -148q-27 0 -68 19t-46 19q-22 0 -22 -26v-10h-101q0 149 106 149z" />
    <glyph glyph-name="Ograve" unicode="&#xd2;" horiz-adv-x="795" 
d="M398 712q153 0 259.5 -103t106.5 -259t-106.5 -259t-259.5 -103q-154 0 -260 103t-106 259t106 259t260 103zM398 115q98 0 159 66.5t61 168.5t-61 168t-159 66t-159.5 -66t-61.5 -168t61.5 -168.5t159.5 -66.5zM453 941l50 -173h-124l-92 173h166z" />
    <glyph glyph-name="Oacute" unicode="&#xd3;" horiz-adv-x="795" 
d="M398 712q153 0 259.5 -103t106.5 -259t-106.5 -259t-259.5 -103q-154 0 -260 103t-106 259t106 259t260 103zM398 115q98 0 159 66.5t61 168.5t-61 168t-159 66t-159.5 -66t-61.5 -168t61.5 -168.5t159.5 -66.5zM290 768l50 173h166l-92 -173h-124z" />
    <glyph glyph-name="Ocircumflex" unicode="&#xd4;" horiz-adv-x="795" 
d="M398 712q153 0 259.5 -103t106.5 -259t-106.5 -259t-259.5 -103q-154 0 -260 103t-106 259t106 259t260 103zM398 115q98 0 159 66.5t61 168.5t-61 168t-159 66t-159.5 -66t-61.5 -168t61.5 -168.5t159.5 -66.5zM223 769l101 172h147l102 -172h-136l-40 76l-38 -76h-136z
" />
    <glyph glyph-name="Otilde" unicode="&#xd5;" horiz-adv-x="795" 
d="M398 712q153 0 259.5 -103t106.5 -259t-106.5 -259t-259.5 -103q-154 0 -260 103t-106 259t106 259t260 103zM398 115q98 0 159 66.5t61 168.5t-61 168t-159 66t-159.5 -66t-61.5 -168t61.5 -168.5t159.5 -66.5zM332 906q27 0 68 -19t46 -19q22 0 22 26v9h101
q0 -148 -106 -148q-27 0 -68 19t-46 19q-22 0 -22 -26v-10h-101q0 149 106 149z" />
    <glyph glyph-name="Odieresis" unicode="&#xd6;" horiz-adv-x="795" 
d="M398 712q153 0 259.5 -103t106.5 -259t-106.5 -259t-259.5 -103q-154 0 -260 103t-106 259t106 259t260 103zM398 115q98 0 159 66.5t61 168.5t-61 168t-159 66t-159.5 -66t-61.5 -168t61.5 -168.5t159.5 -66.5zM224 825q0 32 23 55t55 23t55.5 -23.5t23.5 -54.5
t-23.5 -54.5t-55.5 -23.5t-55 23t-23 55zM415 825q0 31 23.5 54.5t54.5 23.5q32 0 55.5 -23.5t23.5 -54.5t-23.5 -54.5t-55.5 -23.5q-31 0 -54.5 23.5t-23.5 54.5z" />
    <glyph glyph-name="multiply" unicode="&#xd7;" horiz-adv-x="532" 
d="M265 443l141 142l87 -85l-143 -141l143 -143l-87 -83l-141 141l-139 -141l-88 83l143 143l-143 141l87 85z" />
    <glyph glyph-name="Oslash" unicode="&#xd8;" horiz-adv-x="795" 
d="M398 712q106 0 195 -54l46 54h136l-102 -120q91 -99 91 -242q0 -156 -106.5 -259t-259.5 -103q-105 0 -195 52l-45 -53h-136l101 119q-91 101 -91 244q0 156 106 259t260 103zM177 350q0 -78 37 -137l293 344q-51 27 -109 27q-98 0 -159.5 -66t-61.5 -168zM398 115
q98 0 159 66.5t61 168.5q0 76 -36 135l-293 -344q47 -26 109 -26z" />
    <glyph glyph-name="Ugrave" unicode="&#xd9;" horiz-adv-x="656" 
d="M328 -12q-126 0 -193.5 68.5t-67.5 175.5v468h139v-452q0 -60 32.5 -99.5t91.5 -39.5q62 0 92.5 39t30.5 100v452h136v-468q0 -107 -68 -175.5t-193 -68.5zM386 941l50 -173h-124l-92 173h166z" />
    <glyph glyph-name="Uacute" unicode="&#xda;" horiz-adv-x="656" 
d="M328 -12q-126 0 -193.5 68.5t-67.5 175.5v468h139v-452q0 -60 32.5 -99.5t91.5 -39.5q62 0 92.5 39t30.5 100v452h136v-468q0 -107 -68 -175.5t-193 -68.5zM220 768l50 173h166l-92 -173h-124z" />
    <glyph glyph-name="Ucircumflex" unicode="&#xdb;" horiz-adv-x="656" 
d="M328 -12q-126 0 -193.5 68.5t-67.5 175.5v468h139v-452q0 -60 32.5 -99.5t91.5 -39.5q62 0 92.5 39t30.5 100v452h136v-468q0 -107 -68 -175.5t-193 -68.5zM153 769l101 172h147l102 -172h-136l-40 76l-38 -76h-136z" />
    <glyph glyph-name="Udieresis" unicode="&#xdc;" horiz-adv-x="656" 
d="M328 -12q-126 0 -193.5 68.5t-67.5 175.5v468h139v-452q0 -60 32.5 -99.5t91.5 -39.5q62 0 92.5 39t30.5 100v452h136v-468q0 -107 -68 -175.5t-193 -68.5zM154 825q0 32 23 55t55 23t55.5 -23.5t23.5 -54.5t-23.5 -54.5t-55.5 -23.5t-55 23t-23 55zM345 825
q0 31 23.5 54.5t54.5 23.5q32 0 55.5 -23.5t23.5 -54.5t-23.5 -54.5t-55.5 -23.5q-31 0 -54.5 23.5t-23.5 54.5z" />
    <glyph glyph-name="Yacute" unicode="&#xdd;" horiz-adv-x="672" 
d="M268 304l-268 396h166l174 -270l171 270h160l-265 -393v-307h-138v304zM268 768l50 173h166l-92 -173h-124z" />
    <glyph glyph-name="Thorn" unicode="&#xde;" horiz-adv-x="584" 
d="M211 123v-123h-138v700h138v-115h99q119 0 185.5 -64.5t66.5 -163.5q0 -100 -66.5 -167t-185.5 -67h-99zM289 466h-78v-223h78q60 0 95.5 28.5t35.5 85.5q0 55 -35.5 82t-95.5 27z" />
    <glyph glyph-name="germandbls" unicode="&#xdf;" horiz-adv-x="517" 
d="M265 708q93 0 145.5 -48t52.5 -118q0 -35 -15 -67.5t-32.5 -52.5t-32.5 -40.5t-15 -33.5q0 -3 0.5 -6t1 -5t2 -4.5t3 -4.5t5 -5.5l6 -6t8.5 -8t10 -9.5q37 -36 52.5 -53.5t29.5 -47t14 -63.5q0 -66 -45.5 -106.5t-121.5 -40.5q-49 0 -93 15l23 97q23 -9 45 -9
q28 0 43.5 14t15.5 37q0 13 -8 26t-15 20t-23 22l-12 11q-25 22 -36 33t-23 34.5t-12 48.5q0 40 23.5 74.5t47 64t23.5 57.5q0 25 -19 42t-47 17q-33 0 -56 -24.5t-23 -69.5v-498h-131v497q0 106 62 158.5t147 52.5z" />
    <glyph glyph-name="agrave" unicode="&#xe0;" horiz-adv-x="492" 
d="M222 83q38 0 63.5 20.5t25.5 60.5v33q-10 -10 -40 -10h-49q-65 0 -65 -50q0 -24 17.5 -39t47.5 -15zM311 300v5q0 25 -19.5 39.5t-56.5 14.5q-65 0 -138 -43l-51 98q10 6 27 15.5t68.5 25t100.5 15.5q85 0 142 -42t57 -127v-301h-130v43q-37 -55 -125 -55
q-72 0 -117.5 40t-45.5 104q0 67 44.5 104t121.5 37h90q32 0 32 27zM300 700l50 -173h-124l-92 173h166z" />
    <glyph glyph-name="aacute" unicode="&#xe1;" horiz-adv-x="492" 
d="M222 83q38 0 63.5 20.5t25.5 60.5v33q-10 -10 -40 -10h-49q-65 0 -65 -50q0 -24 17.5 -39t47.5 -15zM311 300v5q0 25 -19.5 39.5t-56.5 14.5q-65 0 -138 -43l-51 98q10 6 27 15.5t68.5 25t100.5 15.5q85 0 142 -42t57 -127v-301h-130v43q-37 -55 -125 -55
q-72 0 -117.5 40t-45.5 104q0 67 44.5 104t121.5 37h90q32 0 32 27zM133 527l50 173h166l-92 -173h-124z" />
    <glyph glyph-name="acircumflex" unicode="&#xe2;" horiz-adv-x="492" 
d="M222 83q38 0 63.5 20.5t25.5 60.5v33q-10 -10 -40 -10h-49q-65 0 -65 -50q0 -24 17.5 -39t47.5 -15zM311 300v5q0 25 -19.5 39.5t-56.5 14.5q-65 0 -138 -43l-51 98q10 6 27 15.5t68.5 25t100.5 15.5q85 0 142 -42t57 -127v-301h-130v43q-37 -55 -125 -55
q-72 0 -117.5 40t-45.5 104q0 67 44.5 104t121.5 37h90q32 0 32 27zM66 528l101 172h147l102 -172h-136l-40 76l-38 -76h-136z" />
    <glyph glyph-name="atilde" unicode="&#xe3;" horiz-adv-x="492" 
d="M222 83q38 0 63.5 20.5t25.5 60.5v33q-10 -10 -40 -10h-49q-65 0 -65 -50q0 -24 17.5 -39t47.5 -15zM311 300v5q0 25 -19.5 39.5t-56.5 14.5q-65 0 -138 -43l-51 98q10 6 27 15.5t68.5 25t100.5 15.5q85 0 142 -42t57 -127v-301h-130v43q-37 -55 -125 -55
q-72 0 -117.5 40t-45.5 104q0 67 44.5 104t121.5 37h90q32 0 32 27zM176 665q27 0 68 -19t46 -19q22 0 22 26v9h101q0 -148 -106 -148q-27 0 -68 19t-46 19q-22 0 -22 -26v-10h-101q0 149 106 149z" />
    <glyph glyph-name="adieresis" unicode="&#xe4;" horiz-adv-x="492" 
d="M222 83q38 0 63.5 20.5t25.5 60.5v33q-10 -10 -40 -10h-49q-65 0 -65 -50q0 -24 17.5 -39t47.5 -15zM311 300v5q0 25 -19.5 39.5t-56.5 14.5q-65 0 -138 -43l-51 98q10 6 27 15.5t68.5 25t100.5 15.5q85 0 142 -42t57 -127v-301h-130v43q-37 -55 -125 -55
q-72 0 -117.5 40t-45.5 104q0 67 44.5 104t121.5 37h90q32 0 32 27zM67 584q0 32 23 55t55 23t55.5 -23.5t23.5 -54.5t-23.5 -54.5t-55.5 -23.5t-55 23t-23 55zM258 584q0 32 23 55t55 23t55.5 -23.5t23.5 -54.5t-23.5 -54.5t-55.5 -23.5t-55 23t-23 55z" />
    <glyph glyph-name="aring" unicode="&#xe5;" horiz-adv-x="492" 
d="M222 83q38 0 63.5 20.5t25.5 60.5v33q-10 -10 -40 -10h-49q-65 0 -65 -50q0 -24 17.5 -39t47.5 -15zM311 300v5q0 25 -19.5 39.5t-56.5 14.5q-65 0 -138 -43l-51 98q10 6 27 15.5t68.5 25t100.5 15.5q85 0 142 -42t57 -127v-301h-130v43q-37 -55 -125 -55
q-72 0 -117.5 40t-45.5 104q0 67 44.5 104t121.5 37h90q32 0 32 27zM241 496q-53 0 -89.5 34t-36.5 85q0 53 36.5 86.5t89.5 33.5t89 -33.5t36 -86.5q0 -51 -36 -85t-89 -34zM241 666q-20 0 -34 -14.5t-14 -36.5q0 -21 14 -35.5t34 -14.5t33.5 14.5t13.5 35.5
q0 22 -13.5 36.5t-33.5 14.5z" />
    <glyph glyph-name="ae" unicode="&#xe6;" horiz-adv-x="802" 
d="M546 362q-38 0 -65 -23.5t-35 -60.5h198q-5 37 -32 60.5t-66 23.5zM222 82q39 0 64 23.5t25 67.5v24q-10 -9 -34 -9h-56q-31 0 -48 -13.5t-17 -37.5q0 -25 18 -40t48 -15zM232 360q-68 0 -136 -46l-51 98q74 58 197 58q100 0 152 -55q63 55 153 55q100 0 167 -68.5
t67 -205.5v-5h-332q4 -38 33.5 -65t68.5 -27q62 0 88 47l133 -14q-29 -72 -87.5 -108t-135.5 -36q-118 0 -179 83q-49 -83 -171 -83q-82 0 -129 41.5t-47 103.5q0 67 44 103.5t121 36.5h91q33 0 33 29v4q0 24 -21.5 39t-58.5 15z" />
    <glyph glyph-name="ccedilla" unicode="&#xe7;" horiz-adv-x="518" 
d="M120 -174l72 174q-73 24 -118.5 85.5t-45.5 143.5q0 104 70.5 172.5t173.5 68.5q79 0 140.5 -40.5t83.5 -108.5l-122 -37q-13 32 -39.5 51t-61.5 19q-51 0 -83 -35.5t-32 -89.5t32 -89.5t83 -35.5q73 0 101 70l122 -38q-18 -53 -60 -89.5t-99 -50.5l-84 -170h-133z" />
    <glyph glyph-name="egrave" unicode="&#xe8;" horiz-adv-x="526" 
d="M505 196v-5h-341q5 -39 34 -65.5t71 -26.5q65 0 92 47l135 -14q-30 -72 -90 -108t-139 -36q-103 0 -171.5 68t-68.5 173t67.5 173t170.5 68t171.5 -69t68.5 -205zM265 362q-40 0 -68 -23t-36 -61h205q-5 36 -33 60t-68 24zM325 700l50 -173h-124l-92 173h166z" />
    <glyph glyph-name="eacute" unicode="&#xe9;" horiz-adv-x="526" 
d="M505 196v-5h-341q5 -39 34 -65.5t71 -26.5q65 0 92 47l135 -14q-30 -72 -90 -108t-139 -36q-103 0 -171.5 68t-68.5 173t67.5 173t170.5 68t171.5 -69t68.5 -205zM265 362q-40 0 -68 -23t-36 -61h205q-5 36 -33 60t-68 24zM158 527l50 173h166l-92 -173h-124z" />
    <glyph glyph-name="ecircumflex" unicode="&#xea;" horiz-adv-x="526" 
d="M505 196v-5h-341q5 -39 34 -65.5t71 -26.5q65 0 92 47l135 -14q-30 -72 -90 -108t-139 -36q-103 0 -171.5 68t-68.5 173t67.5 173t170.5 68t171.5 -69t68.5 -205zM265 362q-40 0 -68 -23t-36 -61h205q-5 36 -33 60t-68 24zM92 528l101 172h147l102 -172h-136l-40 76
l-38 -76h-136z" />
    <glyph glyph-name="edieresis" unicode="&#xeb;" horiz-adv-x="526" 
d="M505 196v-5h-341q5 -39 34 -65.5t71 -26.5q65 0 92 47l135 -14q-30 -72 -90 -108t-139 -36q-103 0 -171.5 68t-68.5 173t67.5 173t170.5 68t171.5 -69t68.5 -205zM265 362q-40 0 -68 -23t-36 -61h205q-5 36 -33 60t-68 24zM93 584q0 32 23 55t55 23t55.5 -23.5
t23.5 -54.5t-23.5 -54.5t-55.5 -23.5t-55 23t-23 55zM284 584q0 32 23 55t55 23t55.5 -23.5t23.5 -54.5t-23.5 -54.5t-55.5 -23.5t-55 23t-23 55z" />
    <glyph glyph-name="igrave" unicode="&#xec;" horiz-adv-x="273" 
d="M204 700l50 -173h-124l-92 173h166zM217 458v-458h-130v348h-65v110h195z" />
    <glyph glyph-name="iacute" unicode="&#xed;" horiz-adv-x="273" 
d="M39 527l50 173h166l-92 -173h-124zM217 458v-458h-130v348h-65v110h195z" />
    <glyph glyph-name="icircumflex" unicode="&#xee;" horiz-adv-x="273" 
d="M217 458v-458h-130v348h-65v110h195zM-27 528l101 172h147l102 -172h-136l-40 76l-38 -76h-136z" />
    <glyph glyph-name="idieresis" unicode="&#xef;" horiz-adv-x="273" 
d="M-26 584q0 32 23 55t55 23t55.5 -23.5t23.5 -54.5t-23.5 -54.5t-55.5 -23.5t-55 23t-23 55zM165 584q0 32 23.5 55t54.5 23q32 0 55.5 -23.5t23.5 -54.5t-23.5 -54.5t-55.5 -23.5q-31 0 -54.5 23t-23.5 55zM217 458v-458h-130v348h-65v110h195z" />
    <glyph glyph-name="eth" unicode="&#xf0;" horiz-adv-x="553" 
d="M286 700q22 -20 38 -36l67 41l35 -57l-55 -34q152 -175 152 -358q0 -110 -67.5 -189t-182.5 -79q-104 0 -175 68t-71 172q0 103 63.5 170t160.5 67q67 0 102 -38l5 5q-32 51 -93 117l-68 -42l-34 60l54 33q-20 20 -41.5 40.5t-40.5 37.5t-24 22h175zM274 350
q-49 0 -80.5 -34t-31.5 -87q0 -52 32 -87t80 -35q49 0 80.5 35t31.5 87q0 53 -31.5 87t-80.5 34z" />
    <glyph glyph-name="ntilde" unicode="&#xf1;" 
d="M181 404q54 66 140 66q76 0 123 -45.5t47 -124.5v-300h-130v267q0 41 -22.5 61.5t-55.5 20.5q-55 0 -97 -52v-297h-130v458h127v-18zM206 665q27 0 68 -19t46 -19q22 0 22 26v9h101q0 -148 -106 -148q-27 0 -68 19t-46 19q-22 0 -22 -26v-10h-101q0 149 106 149z" />
    <glyph glyph-name="ograve" unicode="&#xf2;" horiz-adv-x="544" 
d="M272 -12q-103 0 -174 68.5t-71 172.5t71 172.5t174 68.5t174 -68.5t71 -172.5t-71 -172.5t-174 -68.5zM272 354q-51 0 -83 -35.5t-32 -89.5t32 -89.5t83 -35.5q50 0 82 35.5t32 89.5t-32 89.5t-82 35.5zM329 700l50 -173h-124l-92 173h166z" />
    <glyph glyph-name="oacute" unicode="&#xf3;" horiz-adv-x="544" 
d="M272 -12q-103 0 -174 68.5t-71 172.5t71 172.5t174 68.5t174 -68.5t71 -172.5t-71 -172.5t-174 -68.5zM272 354q-51 0 -83 -35.5t-32 -89.5t32 -89.5t83 -35.5q50 0 82 35.5t32 89.5t-32 89.5t-82 35.5zM163 527l50 173h166l-92 -173h-124z" />
    <glyph glyph-name="ocircumflex" unicode="&#xf4;" horiz-adv-x="544" 
d="M272 -12q-103 0 -174 68.5t-71 172.5t71 172.5t174 68.5t174 -68.5t71 -172.5t-71 -172.5t-174 -68.5zM272 354q-51 0 -83 -35.5t-32 -89.5t32 -89.5t83 -35.5q50 0 82 35.5t32 89.5t-32 89.5t-82 35.5zM96 528l101 172h147l102 -172h-136l-40 76l-38 -76h-136z" />
    <glyph glyph-name="otilde" unicode="&#xf5;" horiz-adv-x="544" 
d="M272 -12q-103 0 -174 68.5t-71 172.5t71 172.5t174 68.5t174 -68.5t71 -172.5t-71 -172.5t-174 -68.5zM272 354q-51 0 -83 -35.5t-32 -89.5t32 -89.5t83 -35.5q50 0 82 35.5t32 89.5t-32 89.5t-82 35.5zM206 665q27 0 68 -19t46 -19q22 0 22 26v9h101q0 -148 -106 -148
q-27 0 -68 19t-46 19q-22 0 -22 -26v-10h-101q0 149 106 149z" />
    <glyph glyph-name="odieresis" unicode="&#xf6;" horiz-adv-x="544" 
d="M272 -12q-103 0 -174 68.5t-71 172.5t71 172.5t174 68.5t174 -68.5t71 -172.5t-71 -172.5t-174 -68.5zM272 354q-51 0 -83 -35.5t-32 -89.5t32 -89.5t83 -35.5q50 0 82 35.5t32 89.5t-32 89.5t-82 35.5zM97 584q0 32 23 55t55 23t55.5 -23.5t23.5 -54.5t-23.5 -54.5
t-55.5 -23.5t-55 23t-23 55zM288 584q0 32 23 55t55 23t55.5 -23.5t23.5 -54.5t-23.5 -54.5t-55.5 -23.5t-55 23t-23 55z" />
    <glyph glyph-name="divide" unicode="&#xf7;" horiz-adv-x="532" 
d="M179 167q0 37 25.5 62t61.5 25t61.5 -25t25.5 -62q0 -36 -25.5 -61.5t-61.5 -25.5t-61.5 25.5t-25.5 61.5zM179 535q0 37 25.5 62.5t61.5 25.5t61.5 -25.5t25.5 -62.5q0 -36 -25.5 -61.5t-61.5 -25.5t-61.5 25.5t-25.5 61.5zM44 292v119h444v-119h-444z" />
    <glyph glyph-name="oslash" unicode="&#xf8;" horiz-adv-x="544" 
d="M272 -12q-65 0 -124 31l-27 -32h-96l64 78q-62 67 -62 164q0 104 71 172.5t174 68.5q65 0 124 -32l26 32h96l-64 -78q63 -68 63 -163q0 -104 -71 -172.5t-174 -68.5zM272 354q-51 0 -83 -35.5t-32 -89.5q0 -34 14 -64l147 179q-23 10 -46 10zM386 229q0 35 -14 63
l-147 -179q21 -9 47 -9q50 0 82 35.5t32 89.5z" />
    <glyph glyph-name="ugrave" unicode="&#xf9;" horiz-adv-x="535" 
d="M268 -12q-101 0 -159.5 52t-58.5 128v290h130v-266q0 -44 25 -66t63 -22t63 21.5t25 66.5v266h129v-290q0 -76 -58 -128t-159 -52zM325 700l50 -173h-124l-92 173h166z" />
    <glyph glyph-name="uacute" unicode="&#xfa;" horiz-adv-x="535" 
d="M268 -12q-101 0 -159.5 52t-58.5 128v290h130v-266q0 -44 25 -66t63 -22t63 21.5t25 66.5v266h129v-290q0 -76 -58 -128t-159 -52zM159 527l50 173h166l-92 -173h-124z" />
    <glyph glyph-name="ucircumflex" unicode="&#xfb;" horiz-adv-x="535" 
d="M268 -12q-101 0 -159.5 52t-58.5 128v290h130v-266q0 -44 25 -66t63 -22t63 21.5t25 66.5v266h129v-290q0 -76 -58 -128t-159 -52zM92 528l101 172h147l102 -172h-136l-40 76l-38 -76h-136z" />
    <glyph glyph-name="udieresis" unicode="&#xfc;" horiz-adv-x="535" 
d="M268 -12q-101 0 -159.5 52t-58.5 128v290h130v-266q0 -44 25 -66t63 -22t63 21.5t25 66.5v266h129v-290q0 -76 -58 -128t-159 -52zM93 584q0 32 23 55t55 23t55.5 -23.5t23.5 -54.5t-23.5 -54.5t-55.5 -23.5t-55 23t-23 55zM284 584q0 32 23 55t55 23t55.5 -23.5
t23.5 -54.5t-23.5 -54.5t-55.5 -23.5t-55 23t-23 55z" />
    <glyph glyph-name="yacute" unicode="&#xfd;" horiz-adv-x="500" 
d="M185 -30l10 30h-28l-157 458h145l97 -326l98 326h141l-183 -530q-18 -53 -50.5 -78t-92.5 -25h-90v109h63q35 0 47 36zM176 527l50 173h166l-92 -173h-124z" />
    <glyph glyph-name="thorn" unicode="&#xfe;" horiz-adv-x="579" 
d="M300 354q-51 0 -84 -36t-33 -89t33 -89t84 -36t84 36t33 89t-33 89t-84 36zM186 58v-226h-130v868h130v-241q0 -17 -1 -36.5t-1 -23.5q17 31 56 51t89 20q95 0 158.5 -68.5t63.5 -172.5t-64 -172.5t-159 -68.5q-47 0 -85.5 20t-56.5 50z" />
    <glyph glyph-name="ydieresis" unicode="&#xff;" horiz-adv-x="500" 
d="M185 -30l10 30h-28l-157 458h145l97 -326l98 326h141l-183 -530q-18 -53 -50.5 -78t-92.5 -25h-90v109h63q35 0 47 36zM77 584q0 32 23 55t55 23t55.5 -23.5t23.5 -54.5t-23.5 -54.5t-55.5 -23.5t-55 23t-23 55zM268 584q0 32 23 55t55 23t55.5 -23.5t23.5 -54.5
t-23.5 -54.5t-55.5 -23.5t-55 23t-23 55z" />
    <glyph glyph-name="dotlessi" unicode="&#x131;" horiz-adv-x="272" 
d="M216 458v-458h-130v348h-65v110h195z" />
    <glyph glyph-name="Lslash" unicode="&#x141;" horiz-adv-x="524" 
d="M24 231v96l53 19v354h139v-304l176 63v-96l-176 -63v-181h297v-119h-436v250z" />
    <glyph glyph-name="lslash" unicode="&#x142;" horiz-adv-x="263" 
d="M191 700v-286l56 36v-101l-56 -35v-314h-129v233l-52 -32v100l52 32v367h129z" />
    <glyph glyph-name="OE" unicode="&#x152;" horiz-adv-x="1050" 
d="M1015 700v-120h-382v-164h223v-119h-223v-178h382v-119h-618q-170 0 -266.5 95.5t-96.5 254.5t96.5 254.5t266.5 95.5h618zM176 350q0 -113 62 -172t163 -59h93v461h-93q-100 0 -162.5 -59t-62.5 -171z" />
    <glyph glyph-name="oe" unicode="&#x153;" horiz-adv-x="886" 
d="M272 351q-49 0 -81 -34.5t-32 -87.5t32 -88t81 -35t80.5 35t31.5 88t-31.5 87.5t-80.5 34.5zM627 470q103 0 170.5 -68.5t67.5 -205.5v-5h-341q5 -39 34 -65.5t71 -26.5q65 0 92 47l135 -14q-30 -72 -89.5 -108t-138.5 -36q-123 0 -180 89q-29 -42 -76.5 -65.5
t-105.5 -23.5q-102 0 -170.5 68t-68.5 173t68.5 173t170.5 68q58 0 105.5 -23.5t76.5 -65.5q27 41 74 65t105 24zM627 362q-41 0 -69 -23t-36 -61h204q-5 35 -32 59.5t-67 24.5z" />
    <glyph glyph-name="Scaron" unicode="&#x160;" horiz-adv-x="543" 
d="M508 609l-84 -97q-65 77 -144 77q-44 0 -66 -20t-22 -46q0 -47 62 -77l86 -42q94 -46 131.5 -94.5t37.5 -120.5q0 -83 -65.5 -142t-172.5 -59q-83 0 -150 31.5t-103 73.5l74 108q30 -36 79.5 -62t98.5 -26q39 0 65.5 21.5t26.5 54.5q0 30 -20.5 51t-70.5 45l-81 39
q-74 36 -108 82.5t-34 110.5q0 86 66 140.5t162 54.5q65 0 127 -26t105 -77zM198 770l-101 172h136l39 -71l39 71h136l-102 -172h-147z" />
    <glyph glyph-name="scaron" unicode="&#x161;" horiz-adv-x="431" 
d="M401 402l-74 -85q-48 47 -110 47q-22 0 -34 -8.5t-12 -20.5q0 -24 32 -35l75 -25q126 -42 126 -142q0 -57 -47 -101t-134 -44q-120 0 -203 72l69 93q25 -24 62.5 -40.5t68.5 -16.5q22 0 35 9t13 23q0 16 -11 24.5t-41 18.5l-72 23q-106 34 -106 132v2q0 59 48.5 100.5
t128.5 41.5q113 0 186 -68zM141 528l-101 172h136l39 -71l39 71h136l-102 -172h-147z" />
    <glyph glyph-name="Ydieresis" unicode="&#x178;" horiz-adv-x="672" 
d="M268 304l-268 396h166l174 -270l171 270h160l-265 -393v-307h-138v304zM162 825q0 32 23 55t55 23t55.5 -23.5t23.5 -54.5t-23.5 -54.5t-55.5 -23.5t-55 23t-23 55zM353 825q0 31 23.5 54.5t54.5 23.5q32 0 55.5 -23.5t23.5 -54.5t-23.5 -54.5t-55.5 -23.5
q-31 0 -54.5 23.5t-23.5 54.5z" />
    <glyph glyph-name="Zcaron" unicode="&#x17d;" horiz-adv-x="633" 
d="M421 576h-380v124h555v-119l-384 -458h384v-123h-563v114zM242 769l-101 172h136l39 -71l39 71h136l-102 -172h-147z" />
    <glyph glyph-name="zcaron" unicode="&#x17e;" horiz-adv-x="468" 
d="M431 458v-107l-236 -242h236v-109h-395v107l237 241h-235v110h393zM148 528l-101 172h136l39 -71l39 71h136l-102 -172h-147z" />
    <glyph glyph-name="florin" unicode="&#x192;" horiz-adv-x="413" 
d="M274 528v-199h85v-116h-85v-244q0 -145 -142 -145h-96v122h35q21 0 33 2t23.5 14t11.5 34v217h-84v116h84v236q0 60 33.5 97.5t108.5 37.5h96v-122h-35q-21 0 -33 -2t-23.5 -14t-11.5 -34z" />
    <glyph glyph-name="circumflex" unicode="&#x2c6;" horiz-adv-x="407" 
d="M28 528l101 172h147l102 -172h-136l-40 76l-38 -76h-136z" />
    <glyph glyph-name="caron" unicode="&#x2c7;" horiz-adv-x="407" 
d="M129 528l-101 172h136l39 -71l39 71h136l-102 -172h-147z" />
    <glyph glyph-name="breve" unicode="&#x2d8;" horiz-adv-x="348" 
d="M213 629v52h105v-51q0 -65 -40.5 -100t-103.5 -35t-103.5 35t-40.5 100v51h104v-52q0 -18 10.5 -28.5t29.5 -10.5q39 0 39 39z" />
    <glyph glyph-name="dotaccent" unicode="&#x2d9;" horiz-adv-x="223" 
d="M24 604q0 37 25.5 62.5t61.5 25.5q37 0 62.5 -25.5t25.5 -62.5q0 -36 -25.5 -61.5t-62.5 -25.5q-36 0 -61.5 25.5t-25.5 61.5z" />
    <glyph glyph-name="ring" unicode="&#x2da;" horiz-adv-x="320" 
d="M160 495q-53 0 -89.5 34.5t-36.5 85.5q0 53 36.5 87t89.5 34t89 -34t36 -87q0 -51 -36 -85.5t-89 -34.5zM160 666q-20 0 -34 -14.5t-14 -36.5q0 -21 14 -35.5t34 -14.5t33.5 14.5t13.5 35.5q0 22 -13.5 36.5t-33.5 14.5z" />
    <glyph glyph-name="ogonek" unicode="&#x2db;" horiz-adv-x="304" 
d="M237 10l-1 -3q-79 -52 -79 -91q0 -29 41 -29q28 0 73 15l-13 -77q-59 -24 -111 -24t-84.5 24.5t-32.5 66.5q0 50 52.5 84t119.5 39z" />
    <glyph glyph-name="tilde" unicode="&#x2dc;" horiz-adv-x="415" 
d="M142 665q27 0 68 -19t46 -19q22 0 22 26v9h101q0 -148 -106 -148q-27 0 -68 19t-46 19q-22 0 -22 -26v-10h-101q0 149 106 149z" />
    <glyph glyph-name="hungarumlaut" unicode="&#x2dd;" horiz-adv-x="468" 
d="M25 527l50 173h167l-93 -173h-124zM226 527l50 173h166l-91 -173h-125z" />
    <glyph glyph-name="pi" unicode="&#x3c0;" horiz-adv-x="597" 
d="M481 348v-208q0 -32 41 -32l42 3v-111q-50 -5 -89 -5q-124 0 -124 103v250h-134v-348h-129v348h-69v110h536v-110h-74z" />
    <glyph glyph-name="endash" unicode="&#x2013;" horiz-adv-x="591" 
d="M52 202v122h487v-122h-487z" />
    <glyph glyph-name="emdash" unicode="&#x2014;" horiz-adv-x="1025" 
d="M52 202v122h921v-122h-921z" />
    <glyph glyph-name="quoteleft" unicode="&#x2018;" horiz-adv-x="267" 
d="M216 514q0 -37 -25.5 -62.5t-62.5 -25.5q-38 0 -64.5 25.5t-26.5 62.5q0 26 13 50l80 148h105l-57 -127q38 -25 38 -71z" />
    <glyph glyph-name="quoteright" unicode="&#x2019;" horiz-adv-x="276" 
d="M64 624q0 37 25 62.5t62 25.5q38 0 64.5 -25.5t26.5 -62.5q0 -27 -13 -51l-79 -147h-106l57 127q-37 24 -37 71z" />
    <glyph glyph-name="quotesinglbase" unicode="&#x201a;" horiz-adv-x="270" 
d="M46 74q0 37 25 62.5t62 25.5q38 0 64.5 -25.5t26.5 -62.5q0 -26 -13 -50l-79 -148h-106l57 127q-37 24 -37 71z" />
    <glyph glyph-name="quotedblleft" unicode="&#x201c;" horiz-adv-x="491" 
d="M216 514q0 -37 -25.5 -62.5t-61.5 -25.5q-38 0 -65 25.5t-27 62.5q0 24 14 50l79 148h106l-58 -127q38 -25 38 -71zM440 514q0 -37 -25 -62.5t-62 -25.5q-38 0 -64.5 25.5t-26.5 62.5q0 26 13 50l79 148h106l-58 -127q38 -24 38 -71z" />
    <glyph glyph-name="quotedblright" unicode="&#x201d;" horiz-adv-x="501" 
d="M64 624q0 37 25.5 62.5t61.5 25.5q38 0 65 -25.5t27 -62.5q0 -25 -14 -51l-79 -147h-106l58 127q-38 25 -38 71zM288 624q0 37 25.5 62.5t61.5 25.5q38 0 65 -25.5t27 -62.5q0 -25 -14 -51l-78 -147h-107l58 127q-38 25 -38 71z" />
    <glyph glyph-name="quotedblbase" unicode="&#x201e;" horiz-adv-x="495" 
d="M46 74q0 37 25.5 62.5t62.5 25.5q38 0 64.5 -25.5t26.5 -62.5q0 -24 -14 -50l-78 -148h-107l58 127q-38 25 -38 71zM271 74q0 37 25.5 62.5t61.5 25.5q38 0 64.5 -25.5t26.5 -62.5q0 -26 -13 -50l-79 -148h-106l58 127q-38 24 -38 71z" />
    <glyph glyph-name="dagger" unicode="&#x2020;" horiz-adv-x="516" 
d="M191 381h-157v114h157v205h133v-205h158v-114h-158v-381h-133v381z" />
    <glyph glyph-name="daggerdbl" unicode="&#x2021;" horiz-adv-x="538" 
d="M45 302h157v102h-157v114h157v182h133v-182h158v-114h-158v-102h158v-114h-158v-188h-133v188h-157v114z" />
    <glyph glyph-name="bullet" unicode="&#x2022;" horiz-adv-x="378" 
d="M68 359q0 50 35.5 85.5t85.5 35.5t85.5 -35.5t35.5 -85.5t-35.5 -85.5t-85.5 -35.5t-85.5 35.5t-35.5 85.5z" />
    <glyph glyph-name="ellipsis" unicode="&#x2026;" horiz-adv-x="827" 
d="M46 75q0 36 25 61.5t61 25.5q37 0 62.5 -25.5t25.5 -61.5t-25.5 -61.5t-62.5 -25.5q-36 0 -61 25.5t-25 61.5zM326 75q0 36 25.5 61.5t61.5 25.5q37 0 62.5 -25.5t25.5 -61.5t-25.5 -61.5t-62.5 -25.5q-36 0 -61.5 25.5t-25.5 61.5zM607 75q0 36 25.5 61.5t61.5 25.5
q37 0 62 -25.5t25 -61.5t-25 -61.5t-62 -25.5q-36 0 -61.5 25.5t-25.5 61.5z" />
    <glyph glyph-name="perthousand" unicode="&#x2030;" horiz-adv-x="1084" 
d="M51 547q0 68 49.5 116.5t119.5 48.5q69 0 118 -48.5t49 -116.5t-49 -117t-118 -49q-70 0 -119.5 49t-49.5 117zM154 547q0 -30 19.5 -50.5t46.5 -20.5t46 20.5t19 50.5q0 29 -19.5 49.5t-45.5 20.5q-27 0 -46.5 -20.5t-19.5 -49.5zM687 152q0 -68 -49.5 -116t-119.5 -48
t-119 48t-49 116t49 116.5t119 48.5t119.5 -48.5t49.5 -116.5zM584 152q0 30 -19.5 50.5t-46.5 20.5t-46 -20.5t-19 -50.5q0 -29 19.5 -49.5t45.5 -20.5q27 0 46.5 20.5t19.5 49.5zM687 540l-588 -453l-52 71l587 450zM1052 152q0 -68 -49 -116t-119 -48t-119 48t-49 116
t49 116.5t119 48.5t119 -48.5t49 -116.5zM950 152q0 29 -20 50t-46 21q-27 0 -46.5 -20.5t-19.5 -50.5q0 -29 19.5 -49.5t46.5 -20.5q26 0 46 20.5t20 49.5z" />
    <glyph glyph-name="guilsinglleft" unicode="&#x2039;" horiz-adv-x="329" 
d="M153 62l-119 176l119 175h135l-111 -175l111 -176h-135z" />
    <glyph glyph-name="guilsinglright" unicode="&#x203a;" horiz-adv-x="330" 
d="M296 238l-119 -176h-136l111 176l-111 175h136z" />
    <glyph glyph-name="fraction" unicode="&#x2044;" horiz-adv-x="718" 
d="M710 558l-647 -497l-56 79l646 497z" />
    <glyph glyph-name="Euro" unicode="&#x20ac;" horiz-adv-x="763" 
d="M37 385v93h64q32 108 114.5 171t199.5 63q118 0 200 -69t110 -190h-153q-37 131 -160 131q-118 0 -162 -106h222v-93h-244q-1 -12 -1 -35q0 -25 1 -36h244v-92h-223q44 -108 164 -108q122 0 159 132h154q-29 -120 -111.5 -189t-199.5 -69t-199.5 63t-114.5 171h-64v92h48
q-1 12 -1 36q0 23 1 35h-48z" />
    <glyph glyph-name="trademark" unicode="&#x2122;" horiz-adv-x="1123" 
d="M808 489l83 211h162v-432h-126v276l-82 -199h-79l-82 198v-275h-123v432h165zM56 700h429v-116h-153v-316h-124v316h-152v116z" />
    <glyph glyph-name="Omega" unicode="&#x2126;" horiz-adv-x="720" 
d="M360 712q139 0 230.5 -79.5t91.5 -204.5q0 -103 -53.5 -166t-126.5 -78v-66h135v-118h-253v259q64 11 106.5 53t42.5 114q0 77 -51 118t-122 41t-122 -41t-51 -118q0 -72 42.5 -114t106.5 -53v-259h-253v118h135v66q-73 15 -126.5 78t-53.5 166q0 125 91.5 204.5
t230.5 79.5z" />
    <glyph glyph-name="partialdiff" unicode="&#x2202;" horiz-adv-x="574" 
d="M294 700q28 -25 53.5 -51t61 -71.5t60.5 -91.5t43.5 -107.5t18.5 -122.5q0 -110 -67.5 -189t-182.5 -79q-104 0 -175 68t-71 172q0 103 63.5 170t160.5 67q67 0 102 -38l5 5q-12 19 -28 40.5t-31.5 40t-37 41t-36 37.5t-36.5 36t-31.5 30t-27.5 26l-19 17h175zM282 350
q-49 0 -80.5 -34t-31.5 -87q0 -52 32 -87t80 -35q49 0 80.5 35t31.5 87q0 53 -31.5 87t-80.5 34z" />
    <glyph glyph-name="Delta" unicode="&#x2206;" horiz-adv-x="693" 
d="M422 700l238 -578v-122h-627v122l238 578h151zM513 120l-167 422l-167 -422h334z" />
    <glyph glyph-name="product" unicode="&#x220f;" horiz-adv-x="694" 
d="M618 0h-139v580h-264v-580h-139v700h542v-700z" />
    <glyph glyph-name="summation" unicode="&#x2211;" horiz-adv-x="629" 
d="M579 700v-120h-363l161 -193v-55l-165 -213h367v-119h-534v110l195 245l-195 235v110h534z" />
    <glyph glyph-name="minus" unicode="&#x2212;" horiz-adv-x="532" 
d="M44 292v119h444v-119h-444z" />
    <glyph glyph-name="radical" unicode="&#x221a;" horiz-adv-x="554" 
d="M158 458l88 -324l166 566h139l-223 -700h-168l-142 458h140z" />
    <glyph glyph-name="infinity" unicode="&#x221e;" horiz-adv-x="944" 
d="M670 120q-131 0 -198 116q-67 -116 -198 -116q-90 0 -154.5 61t-64.5 169t64.5 169t154.5 61q131 0 198 -116q66 116 198 116q90 0 154.5 -61t64.5 -169t-64.5 -169t-154.5 -61zM751 350q0 58 -29.5 82.5t-64.5 24.5q-39 0 -70 -22t-61 -85q30 -63 61 -85t70 -22
q35 0 64.5 24.5t29.5 82.5zM193 350q0 -58 29.5 -82.5t64.5 -24.5q39 0 70 22t61 85q-30 63 -61 85t-70 22q-35 0 -64.5 -24.5t-29.5 -82.5z" />
    <glyph glyph-name="integral" unicode="&#x222b;" horiz-adv-x="377" 
d="M257 528v-569q0 -58 -32 -96.5t-104 -38.5h-103v121h35q15 0 24.5 1.5t21 6t17 15.5t5.5 28v569q0 58 32 96.5t104 38.5h103v-122h-35q-21 0 -33 -2t-23.5 -14t-11.5 -34z" />
    <glyph glyph-name="approxequal" unicode="&#x2248;" horiz-adv-x="532" 
d="M384 367q-27 0 -109 21.5t-89 21.5q-25 0 -25 -25v-16h-118v49q0 119 104 119q26 0 108.5 -21.5t89.5 -21.5q24 0 24 25v16h118v-49q0 -119 -103 -119zM384 162q-27 0 -109 21.5t-89 21.5q-25 0 -25 -25v-16h-118v49q0 20 2 34.5t11 37t32 35t59 12.5q26 0 108.5 -21.5
t89.5 -21.5q24 0 24 25v16h118v-49q0 -16 -1 -27t-6.5 -30t-15.5 -31t-30.5 -21.5t-49.5 -9.5z" />
    <glyph glyph-name="notequal" unicode="&#x2260;" horiz-adv-x="532" 
d="M44 386v118h160v66h122v-66h161v-118h-161v-74h161v-116h-161v-65h-122v65h-160v116h160v74h-160z" />
    <glyph glyph-name="lessequal" unicode="&#x2264;" horiz-adv-x="532" 
d="M483 118v-118h-444v118h444zM483 304v-132l-444 159v149l444 159v-132l-317 -101z" />
    <glyph glyph-name="greaterequal" unicode="&#x2265;" horiz-adv-x="532" 
d="M49 172v132l317 102l-317 101v132l444 -159v-149zM49 0v118h444v-118h-444z" />
    <glyph glyph-name="lozenge" unicode="&#x25ca;" horiz-adv-x="547" 
d="M347 700l167 -350l-167 -350h-146l-169 350l169 350h146zM368 350l-94 211l-96 -211l96 -213z" />
    <glyph glyph-name="apple" horiz-adv-x="1200" 
d="M1054 734q48 -49 74.5 -118t26.5 -143q0 -85 -32 -168t-84 -151.5t-121.5 -130t-141.5 -107t-146 -78.5q-31 -14 -62 0q-97 44 -187 107.5t-166.5 144.5t-122.5 181.5t-46 203.5q0 74 27 143t75 119q91 93 235 93q124 0 222 -86q94 84 217 84q141 0 232 -94zM1111 474
q0 67 -24.5 128.5t-69.5 105.5q-82 79 -198 79q-121 0 -218 -87q-102 88 -221 88q-114 0 -195 -78q-45 -44 -70 -106.5t-25 -130.5q0 -137 90 -268q67 -98 171 -180q53 -43 113.5 -80.5t87.5 -51t38 -17.5q9 -4 18 0q11 4 38 17.5t88 51t115 79.5q106 83 171 179
q91 133 91 271zM819 751q103 0 172 -69q83 -81 83 -209q0 -125 -84 -250q-62 -89 -164 -170q-108 -86 -227 -143q-116 56 -226 144q-103 82 -163 172q-83 120 -83 248t84 210q71 68 172 68t192 -77q-55 -58 -99 -135q-77 -135 -123 -319l-50 10q-7 2 -13.5 -2t-7.5 -11
q-4 -16 14 -20l135 -29q16 -4 20 13q3 17 -13 21l-48 10q39 155 100 274q52 -19 109 -19q60 0 112 20q62 -124 98 -276l-48 -10q-16 -4 -14 -20q4 -18 21 -14l135 28q17 4 13 20q-1 7 -7 11.5t-13 2.5l-49 -10l-1 1v2q-47 186 -123 320q-43 78 -95 131q90 77 191 77zM748 97
q0 7 -5 12.5t-13 5.5h-179q34 18 57 32.5t53.5 39t46.5 54.5t16 63q0 50 -33 87t-90 37q-56 0 -93.5 -32.5t-37.5 -83.5q0 -36 24.5 -64.5t62.5 -28.5q30 0 54 19t24 54q0 23 -11.5 33.5t-24.5 10.5q-14 0 -23.5 -9.5t-9.5 -22.5q0 -17 15 -27q1 -1 0 -6.5t-7.5 -10.5
t-18.5 -5q-22 0 -34.5 18.5t-12.5 39.5q0 36 25 58t66 22q40 0 62.5 -26t22.5 -62q0 -68 -109 -139q-22 -14 -46.5 -27t-38.5 -20.5t-15 -8.5q-8 -10 -4 -20q5 -11 17 -11h241q19 0 19 18zM792 595l26 -50q11 -22 35 -30q29 -8 55 7q25 13 34.5 39.5t-2.5 49.5l-33 67
q-3 7 -11 9t-14 -1l-135 -74q-16 -9 -7 -25t25 -7zM1032 403l-40 89q-3 7 -10 10q-8 2 -14 -1l-129 -62q-16 -9 -9 -24l47 -105q7 -16 23 -9q7 3 10 10t0 13l-40 90l33 15l15 -33q7 -16 24 -9q16 7 9 24l-15 34l31 15l32 -72q7 -16 24 -9q16 7 9 24zM599 506q-48 0 -92 14
q47 82 94 130q43 -44 93 -129q-43 -15 -95 -15zM353 597l-98 -22q-18 -4 -14 -22t22 -14l104 23l9 -22q-7 -9 -7 -18q0 -10 7.5 -18t18.5 -8t17 8q13 12 4 34l-63 159q-7 17 -24 10t-10 -24zM210 362l17 50l114 -40q18 -7 23 11q3 7 -0.5 14t-10.5 9l-115 41l15 47
q5 18 -12 23q-7 2 -14 -1.5t-9 -10.5l-43 -132q-2 -7 1.5 -14t10.5 -9q18 -5 23 12zM850 561l-26 52l59 32l25 -50q5 -12 0 -24t-17 -18q-29 -13 -41 8zM567 3q0 -14 9.5 -23.5t22.5 -9.5t22.5 10t9.5 22q0 14 -9 23.5t-23 9.5t-23 -9.5t-9 -22.5zM422 655q0 -14 9.5 -23.5
t22.5 -9.5t22.5 10t9.5 22q0 14 -9 23.5t-23 9.5t-23 -9.5t-9 -22.5z" />
    <glyph glyph-name="zero.onum" horiz-adv-x="586" 
d="M293 522q105 0 171.5 -68t66.5 -198q0 -132 -66 -200t-172 -68q-105 0 -171.5 68t-66.5 200q0 130 66.5 198t171.5 68zM196 256q0 -71 26 -108.5t71 -37.5t71.5 37.5t26.5 108.5q0 70 -26.5 107t-71.5 37t-71 -37t-26 -107z" />
    <glyph glyph-name="one.onum" horiz-adv-x="461" 
d="M55 400v114h255v-401h128v-113h-390v113h128v287h-121z" />
    <glyph glyph-name="two.onum" horiz-adv-x="544" 
d="M59 0v122l158 79q79 40 107 67t28 69q0 27 -21 50.5t-63 23.5q-37 0 -60.5 -21.5t-23.5 -52.5q0 -28 16 -55l-119 -18q-25 38 -25 89q0 70 60 119.5t157 49.5q96 0 155 -51t59 -125q0 -117 -138 -189q-60 -30 -95 -44h232v-113h-427z" />
    <glyph glyph-name="three.onum" horiz-adv-x="514" 
d="M252 -169q-104 0 -162.5 55.5t-58.5 145.5v30h135v-29q0 -40 19.5 -66.5t63.5 -26.5t66 29t22 76t-28 77t-80 30q-46 0 -69 -7v118l152 130h-250v114h399v-126l-172 -138h2q79 -2 131 -59t52 -137q0 -96 -61.5 -156t-160.5 -60z" />
    <glyph glyph-name="four.onum" horiz-adv-x="521" 
d="M20 13v110l224 384h170v-385h83v-109h-83v-170h-129v170h-265zM280 374l-146 -252h151v252h-5z" />
    <glyph glyph-name="five.onum" horiz-adv-x="517" 
d="M173 33q0 -40 19.5 -66.5t62.5 -26.5q88 0 88 115q0 53 -22 84.5t-68 31.5q-49 0 -76 -29l-111 13v352h391v-118h-275v-134h5q32 25 95 25q93 0 145.5 -60t52.5 -157q0 -104 -58 -168t-163 -64q-104 0 -162.5 55.5t-58.5 145.5v30h135v-29z" />
    <glyph glyph-name="six.onum" horiz-adv-x="539" 
d="M210 391l5 -2q31 28 89 28q82 0 141 -54.5t59 -154.5q0 -99 -63 -159.5t-163 -60.5q-106 0 -170.5 65.5t-64.5 170.5q0 60 19.5 121.5t44.5 105t64.5 92t61 70.5t52.5 51h175l-13 -11q-157 -135 -237 -262zM176 205q0 -46 25.5 -76.5t72.5 -30.5q46 0 71 30.5t25 76.5
q0 47 -25 78.5t-71 31.5q-47 0 -72.5 -31.5t-25.5 -78.5z" />
    <glyph glyph-name="seven.onum" horiz-adv-x="486" 
d="M228 -151h-147l237 541h-299v117h427v-114z" />
    <glyph glyph-name="eight.onum" horiz-adv-x="558" 
d="M279 675q98 0 157 -52t59 -134q0 -46 -25.5 -86t-69.5 -59q49 -20 79 -63.5t30 -95.5q0 -90 -63.5 -143t-166.5 -53t-166.5 53t-63.5 143q0 52 30 95.5t79 63.5q-44 19 -69.5 59t-25.5 86q0 82 59 134t157 52zM279 391q43 0 64.5 24.5t21.5 63.5q0 38 -21.5 63t-64.5 25
t-64.5 -25t-21.5 -63q0 -39 21.5 -63.5t64.5 -24.5zM279 97q46 0 72 27.5t26 66.5t-26 66.5t-72 27.5t-72 -27.5t-26 -66.5t26 -66.5t72 -27.5z" />
    <glyph glyph-name="nine.onum" horiz-adv-x="538" 
d="M328 119l-5 2q-31 -28 -89 -28q-83 0 -141.5 54t-58.5 155q0 99 62.5 159.5t163.5 60.5q106 0 170 -65.5t64 -170.5q0 -60 -19.5 -121.5t-44.5 -105t-64.5 -92t-61 -70.5t-52.5 -51h-174l13 11q172 157 237 262zM361 305q0 46 -25 76.5t-72 30.5q-46 0 -71.5 -30.5
t-25.5 -76.5q0 -47 25.5 -78.5t71.5 -31.5q47 0 72 31.5t25 78.5z" />
    </font>
</defs>
</svg>
