<?xml version="1.0" standalone="no"?>
<!DOCTYPE svg PUBLIC "-//W3C//DTD SVG 1.1//EN" "http://www.w3.org/Graphics/SVG/1.1/DTD/svg11.dtd" >
<svg>
<metadata>
Created by FontForge 20110222 at Tue Aug  6 06:09:00 2013
 By Orthosie Webhosting
Copyright (c) 2011 by Henrik Kubel, A2/SW/HK. All rights reserved.
</metadata>
<defs>
<font id="RegularRegular" horiz-adv-x="490" >
  <font-face 
    font-family="RegularRegular"
    font-weight="400"
    font-stretch="normal"
    units-per-em="1000"
    panose-1="2 0 5 3 5 0 0 2 0 3"
    ascent="750"
    descent="-250"
    x-height="441"
    cap-height="700"
    bbox="-27 -272 1154 951"
    underline-thickness="200"
    underline-position="0"
    unicode-range="U+0020-FB02"
  />
<missing-glyph horiz-adv-x="230" 
 />
    <glyph glyph-name="fi" unicode="fi" horiz-adv-x="462" 
d="M394 441v-441h-61v390h-174v-390h-61v390h-76v51h76v122q0 58 31 97.5t105 39.5h148v-51h-144q-37 0 -58 -20t-21 -57v-131h235z" />
    <glyph glyph-name="fl" unicode="fl" horiz-adv-x="469" 
d="M159 572v-131h90v-51h-90v-390h-61v390h-76v51h76v122q0 58 31 97.5t105 39.5h160v-700h-61v649h-95q-37 0 -58 -20t-21 -57z" />
    <glyph glyph-name=".notdef" horiz-adv-x="230" 
 />
    <glyph glyph-name=".null" horiz-adv-x="0" 
 />
    <glyph glyph-name="nonmarkingreturn" horiz-adv-x="333" 
 />
    <glyph glyph-name="space" unicode=" " horiz-adv-x="215" 
 />
    <glyph glyph-name="exclam" unicode="!" horiz-adv-x="251" 
d="M66 48q0 25 17.5 43t42.5 18q26 0 43.5 -17.5t17.5 -43.5q0 -25 -18 -42.5t-43 -17.5t-42.5 17.5t-17.5 42.5zM153 223h-58l-3 477h64z" />
    <glyph glyph-name="quotedbl" unicode="&#x22;" horiz-adv-x="351" 
d="M69 449v251h62v-251h-62zM220 449v251h62v-251h-62z" />
    <glyph glyph-name="numbersign" unicode="#" horiz-adv-x="532" 
d="M57 436v54h88v146h57v-146h127v146h57v-146h89v-54h-89v-133h89v-55h-89v-145h-57v145h-127v-145h-57v145h-88v55h88v133h-88zM202 436v-133h127v133h-127z" />
    <glyph glyph-name="dollar" unicode="$" horiz-adv-x="509" 
d="M458 632l-34 -44q-42 47 -106 65l-27 -271l13 -7q87 -47 124 -92t37 -111q0 -87 -63 -135.5t-149 -48.5h-1l-8 -81h-51l8 85q-102 15 -165 85l34 52q57 -68 137 -83l29 297l-36 19q-72 38 -103 78t-31 102q0 70 54.5 120t149.5 50h3l7 68h51l-8 -74q83 -15 135 -74z
M403 165q0 50 -26.5 83t-91.5 69l-28 -275q62 2 104 35t42 88zM128 544q0 -36 20.5 -65.5t73.5 -58.5l21 -12l25 252q-63 -1 -101.5 -33t-38.5 -83z" />
    <glyph glyph-name="percent" unicode="%" horiz-adv-x="708" 
d="M62 564q0 61 43 104.5t104 43.5q60 0 103 -43.5t43 -104.5q0 -60 -43 -103t-103 -43q-61 0 -104 43t-43 103zM118 564q0 -38 27 -66.5t64 -28.5t63.5 28.5t26.5 66.5q0 40 -26.5 68t-63.5 28q-38 0 -64.5 -28t-26.5 -68zM652 134q0 -60 -43 -103t-104 -43t-104 43
t-43 103q0 61 43 104.5t104 43.5t104 -43.5t43 -104.5zM595 134q0 40 -26.5 68t-63.5 28t-63.5 -28t-26.5 -68q0 -39 26.5 -67t63.5 -28t63.5 28t26.5 67zM660 548l-585 -449l-32 42l585 449z" />
    <glyph glyph-name="ampersand" unicode="&#x26;" horiz-adv-x="630" 
d="M524 0l-88 93q-78 -105 -203 -105q-83 0 -139 51.5t-56 130.5q0 112 129 219q-67 82 -67 159q0 72 48.5 118t122.5 46q71 0 116 -43t45 -106q0 -45 -22 -85l-56 15q17 37 17 65q0 46 -29.5 73t-71.5 27q-47 0 -76.5 -30.5t-29.5 -78.5q0 -67 70 -145q30 -34 68 -75.5
t77.5 -84.5t50.5 -55q51 87 73 179h69q-34 -121 -99 -223l134 -145h-83zM238 44q98 0 158 94l-194 210q-53 -51 -76 -90t-23 -85q0 -60 40.5 -94.5t94.5 -34.5z" />
    <glyph glyph-name="quotesingle" unicode="'" horiz-adv-x="200" 
d="M69 449v251h62v-251h-62z" />
    <glyph glyph-name="parenleft" unicode="(" horiz-adv-x="306" 
d="M44 280q0 118 44 216.5t129 203.5h61v-15q-171 -188 -171 -405q0 -113 46 -222.5t125 -195.5v-15h-61q-173 212 -173 433z" />
    <glyph glyph-name="parenright" unicode=")" horiz-adv-x="306" 
d="M262 280q0 -221 -173 -433h-61v15q79 86 125.5 195.5t46.5 222.5q0 216 -172 405v15h61q85 -105 129 -203.5t44 -216.5z" />
    <glyph glyph-name="asterisk" unicode="*" horiz-adv-x="512" 
d="M267 525h-22q-31 112 -31 144q0 17 12.5 29t30.5 12q17 0 29 -12t12 -29q0 -32 -31 -144zM257 277h-1q-17 0 -29.5 12t-12.5 29q0 30 31 142h22q31 -112 31 -142q0 -17 -12 -29t-29 -12zM394 377q-9 5 -26 18t-30.5 24.5t-33 27.5t-23.5 20l11 21q106 -21 140 -37
q14 -8 19.5 -24.5t-1.5 -31.5q-8 -16 -24 -21t-32 3zM394 613q16 8 32 3t24 -21q7 -15 1.5 -31.5t-19.5 -24.5q-30 -15 -140 -37l-11 21q4 4 23.5 20t33 27.5t30.5 24.5t26 18zM118 377q-16 -8 -32 -3t-24 21q-7 15 -1.5 31.5t19.5 24.5q31 14 140 37l11 -21l-31 -26
q-30 -26 -50 -42t-32 -22zM118 613q12 -6 32 -22t50 -42l31 -26l-11 -21q-116 24 -140 37q-14 8 -19.5 24.5t1.5 31.5q8 16 24 21t32 -3z" />
    <glyph glyph-name="plus" unicode="+" 
d="M273 561v-181h182v-54h-182v-182h-57v182h-181v54h181v181h57z" />
    <glyph glyph-name="comma" unicode="," horiz-adv-x="245" 
d="M63 48q0 24 17 42t42 18t42.5 -17.5t17.5 -42.5q0 -20 -10 -38l-65 -120h-53l46 101q-37 13 -37 57z" />
    <glyph glyph-name="hyphen" unicode="-" horiz-adv-x="333" 
d="M62 219v54h209v-54h-209z" />
    <glyph glyph-name="period" unicode="." horiz-adv-x="245" 
d="M62 48q0 25 17.5 43t42.5 18q26 0 43.5 -17.5t17.5 -43.5q0 -25 -18 -42.5t-43 -17.5t-42.5 17.5t-17.5 42.5z" />
    <glyph glyph-name="slash" unicode="/" horiz-adv-x="378" 
d="M43 0l236 700h57l-234 -700h-59z" />
    <glyph glyph-name="zero" unicode="0" horiz-adv-x="520" 
d="M260 712q199 0 199 -361q0 -363 -199 -363t-199 363q0 361 199 361zM124 351q0 -310 136 -310t136 310q0 308 -136 308q-71 0 -103.5 -77t-32.5 -231z" />
    <glyph glyph-name="one" unicode="1" horiz-adv-x="520" 
d="M101 645v55h202v-645h137v-55h-338v55h138v590h-139z" />
    <glyph glyph-name="two" unicode="2" horiz-adv-x="520" 
d="M60 0v53q92 95 212 231q67 76 94.5 130.5t27.5 108.5q0 61 -38.5 98.5t-102.5 37.5q-58 0 -97 -32.5t-39 -89.5q0 -38 21 -80l-58 -14q-23 49 -23 95q0 78 57.5 126t140.5 48q88 0 144 -51.5t56 -136.5q0 -120 -155 -290l-161 -176h323v-58h-402z" />
    <glyph glyph-name="three" unicode="3" horiz-adv-x="520" 
d="M253 41q64 0 101 42.5t37 125.5q0 79 -43 117.5t-117 38.5q-31 0 -54 -3v48l203 233h-297v57h361v-62l-193 -223h2q87 0 144 -56.5t57 -149.5q0 -108 -57 -164.5t-143 -56.5q-81 0 -136.5 50t-55.5 138v44h60l1 -38q1 -69 37 -105t93 -36z" />
    <glyph glyph-name="four" unicode="4" horiz-adv-x="520" 
d="M33 221v53l248 426h98v-426h107v-53h-107v-221h-61v221h-285zM314 658l-221 -384h225v384h-4z" />
    <glyph glyph-name="five" unicode="5" horiz-adv-x="520" 
d="M397 221q0 79 -36.5 125t-107.5 46q-67 0 -108 -39h-55v347h349v-57h-294v-227h3q42 32 111 32q97 0 149 -61.5t52 -163.5q-1 -109 -59.5 -172t-143.5 -63q-81 0 -136.5 50t-55.5 138v44h60l1 -38q1 -69 37 -105t93 -36q63 0 101.5 48t39.5 132z" />
    <glyph glyph-name="six" unicode="6" horiz-adv-x="520" 
d="M291 700h81q-167 -178 -229 -323l3 -1q54 55 134 55q82 0 138.5 -57.5t56.5 -164.5q0 -100 -58.5 -160.5t-150.5 -60.5q-93 0 -150.5 62.5t-57.5 168.5q0 221 233 481zM119 208q0 -73 37.5 -120.5t109.5 -47.5t110 48t38 120q0 73 -38 121.5t-110 48.5q-71 0 -109 -48.5
t-38 -121.5z" />
    <glyph glyph-name="seven" unicode="7" horiz-adv-x="520" 
d="M215 0h-68l241 641h-327v59h386v-53z" />
    <glyph glyph-name="eight" unicode="8" horiz-adv-x="520" 
d="M260 712q90 0 143 -52.5t53 -138.5q0 -50 -28 -95t-76 -66q54 -22 87.5 -69.5t33.5 -105.5q0 -90 -59.5 -143.5t-153.5 -53.5t-153.5 53.5t-59.5 143.5q0 58 33.5 105.5t87.5 69.5q-48 21 -76 66t-28 95q0 86 53 138.5t143 52.5zM398 523q0 57 -36 95.5t-102 38.5
t-102.5 -38.5t-36.5 -95.5t36.5 -95.5t102.5 -38.5t102 38.5t36 95.5zM260 39q71 0 111 42.5t40 102.5t-40 103t-111 43t-111 -43t-40 -103t40 -102.5t111 -42.5z" />
    <glyph glyph-name="nine" unicode="9" horiz-adv-x="520" 
d="M228 0h-81q167 178 229 323l-3 1q-54 -55 -134 -55q-82 0 -138.5 57.5t-56.5 164.5q0 100 58.5 160.5t150.5 60.5q93 0 150.5 -62.5t57.5 -168.5q0 -221 -233 -481zM400 492q0 73 -37.5 120.5t-109.5 47.5t-110 -48t-38 -120q0 -73 38 -121.5t110 -48.5q71 0 109 48.5
t38 121.5z" />
    <glyph glyph-name="colon" unicode=":" horiz-adv-x="244" 
d="M62 48q0 25 17.5 42.5t42.5 17.5t42.5 -17.5t17.5 -42.5t-17.5 -42.5t-42.5 -17.5t-42.5 17.5t-17.5 42.5zM62 393q0 25 17.5 42.5t42.5 17.5t42.5 -17.5t17.5 -42.5t-17.5 -42.5t-42.5 -17.5t-42.5 17.5t-17.5 42.5z" />
    <glyph glyph-name="semicolon" unicode=";" horiz-adv-x="254" 
d="M69 47q0 25 17 42.5t42 17.5t42 -17.5t17 -42.5q0 -21 -9 -37l-65 -120h-52l45 101q-16 6 -26.5 21.5t-10.5 34.5zM69 393q0 25 17.5 42.5t42.5 17.5t42.5 -17.5t17.5 -42.5t-17.5 -42.5t-42.5 -17.5t-42.5 17.5t-17.5 42.5z" />
    <glyph glyph-name="less" unicode="&#x3c;" horiz-adv-x="579" 
d="M520 387v-54h-379l178 -175l-39 -38l-245 240l245 241l39 -39l-178 -175h379z" />
    <glyph glyph-name="equal" unicode="=" 
d="M36 406v53h418v-53h-418zM36 239v54h418v-54h-418z" />
    <glyph glyph-name="greater" unicode="&#x3e;" horiz-adv-x="579" 
d="M59 333v54h380l-179 175l39 39l245 -241l-245 -240l-39 38l179 175h-380z" />
    <glyph glyph-name="question" unicode="?" horiz-adv-x="464" 
d="M427 521q-1 -67 -42.5 -122t-129.5 -67l-5 -140h-52l-9 188h29q72 0 109 40.5t37 102.5t-37 98t-93 36q-62 0 -98.5 -38t-36.5 -106l1 -21h-62v12q0 100 53 154t144 54q82 0 137 -52t55 -139zM163 48q0 25 18 42.5t43 17.5t42.5 -17.5t17.5 -42.5t-17.5 -42.5
t-42.5 -17.5q-26 0 -43.5 17.5t-17.5 42.5z" />
    <glyph glyph-name="at" unicode="@" horiz-adv-x="891" 
d="M434 40q55 0 93 30t38 87v61q-14 -17 -57 -17h-82q-47 0 -71 -21t-24 -57q0 -33 26 -58t77 -25zM458 453q78 0 123 -40.5t45 -109.5v-201q0 -62 50 -62q43 0 71.5 39t38 84t9.5 91q0 144 -97 234.5t-243 90.5t-248.5 -100.5t-102.5 -257.5q0 -156 106.5 -258t257.5 -102
q124 0 203 58h87q-112 -109 -288 -109q-185 0 -306 116.5t-121 294.5q0 177 120 293.5t304 116.5q159 0 273 -106t114 -275q0 -120 -48.5 -191t-128.5 -71q-42 0 -70 21t-32 53q-20 -33 -59 -53.5t-89 -20.5q-72 0 -116 37.5t-44 97.5t40 94.5t109 34.5h106q43 0 43 40v13
q0 47 -31.5 70.5t-79.5 23.5q-65 0 -136 -48l-29 46q73 56 169 56z" />
    <glyph glyph-name="A" unicode="A" horiz-adv-x="613" 
d="M436 247h-263l-82 -247h-64l241 700h77l242 -700h-67zM303 639l-113 -338h228l-112 338h-3z" />
    <glyph glyph-name="B" unicode="B" horiz-adv-x="538" 
d="M456 529q0 -58 -29.5 -98.5t-77.5 -57.5q66 -16 107 -64.5t41 -115.5q0 -84 -60 -138.5t-166 -54.5h-181v700h162q97 0 150.5 -51t53.5 -120zM152 342v-288h112q74 0 121.5 37t47.5 106t-49 107t-116 38h-116zM250 645h-98v-249h99q62 0 101.5 32t39.5 93q0 62 -39.5 93
t-102.5 31z" />
    <glyph glyph-name="C" unicode="C" horiz-adv-x="762" 
d="M399 712q115 0 203.5 -63t122.5 -170h-65q-31 83 -98.5 130.5t-162.5 47.5q-129 0 -211 -87t-82 -220t82 -220.5t211 -87.5q95 0 162.5 47.5t98.5 130.5h65q-34 -107 -122 -169.5t-204 -62.5q-149 0 -252 103t-103 259q0 157 102.5 259.5t252.5 102.5z" />
    <glyph glyph-name="D" unicode="D" horiz-adv-x="682" 
d="M636 350q0 -160 -96 -255t-272 -95h-178v700h178q176 0 272 -95t96 -255zM573 350q0 143 -82 219t-224 76h-115v-591h115q142 0 224 76t82 220z" />
    <glyph glyph-name="E" unicode="E" horiz-adv-x="588" 
d="M553 700v-58h-401v-258h258v-55h-258v-272h401v-57h-463v700h463z" />
    <glyph glyph-name="F" unicode="F" horiz-adv-x="551" 
d="M430 315h-278v-315h-62v700h442v-58h-380v-272h278v-55z" />
    <glyph glyph-name="G" unicode="G" horiz-adv-x="776" 
d="M106 350q0 -133 82.5 -220.5t210.5 -87.5q112 0 179.5 66.5t70.5 140.5h-192v56h254v-305h-59v125q-23 -49 -89 -93t-168 -44q-150 0 -250.5 102.5t-100.5 259.5q0 156 103.5 259t253.5 103q116 0 206 -63t123 -170h-65q-30 83 -99.5 130.5t-164.5 47.5
q-129 0 -212 -87.5t-83 -219.5z" />
    <glyph glyph-name="H" unicode="H" horiz-adv-x="662" 
d="M572 0h-63v329h-357v-329h-62v700h62v-316h357v316h63v-700z" />
    <glyph glyph-name="I" unicode="I" horiz-adv-x="242" 
d="M90 0v700h62v-700h-62z" />
    <glyph glyph-name="J" unicode="J" horiz-adv-x="242" 
d="M-27 -56h37q45 0 62.5 17t17.5 61v678h62v-681q0 -66 -31.5 -98.5t-103.5 -32.5h-44v56z" />
    <glyph glyph-name="K" unicode="K" horiz-adv-x="585" 
d="M152 700v-305h29l323 305h80l-356 -330l349 -370h-83l-315 340h-27v-340h-62v700h62z" />
    <glyph glyph-name="L" unicode="L" horiz-adv-x="481" 
d="M464 0h-374v700h62v-645h312v-55z" />
    <glyph glyph-name="M" unicode="M" horiz-adv-x="824" 
d="M413 204l227 496h94v-700h-63v626l-228 -494h-65l-227 494v-626h-61v700h95z" />
    <glyph glyph-name="N" unicode="N" horiz-adv-x="662" 
d="M152 623v-623h-62v700h86l333 -610v610h63v-700h-78z" />
    <glyph glyph-name="O" unicode="O" horiz-adv-x="798" 
d="M399 712q149 0 252 -103t103 -259t-103 -259t-252 -103t-252 103t-103 259t103 259t252 103zM399 42q129 0 211 87.5t82 220.5t-82 220t-211 87t-211 -87t-82 -220t82 -220.5t211 -87.5z" />
    <glyph glyph-name="P" unicode="P" horiz-adv-x="541" 
d="M152 272v-272h-62v700h186q115 0 177.5 -60t62.5 -152q0 -93 -62.5 -154.5t-177.5 -61.5h-124zM283 645h-131v-318h131q73 0 121.5 42.5t48.5 118.5q0 75 -48.5 116t-121.5 41z" />
    <glyph glyph-name="Q" unicode="Q" horiz-adv-x="798" 
d="M399 712q149 0 252 -103t103 -259q0 -106 -50 -190.5t-135 -129.5l24 -36q37 -58 85 -58l52 3v-54q-21 -4 -56 -4q-41 0 -69.5 16t-54.5 55l-37 54q-59 -18 -114 -18q-149 0 -252 103t-103 259t103 259t252 103zM399 42q42 0 83 11l-88 133l48 33l96 -144
q72 38 113 110.5t41 164.5q0 133 -82 220t-211 87t-211 -87t-82 -220t82 -220.5t211 -87.5z" />
    <glyph glyph-name="R" unicode="R" horiz-adv-x="553" 
d="M455 0l-175 308h-128v-308h-62v700h178q109 0 171.5 -52t62.5 -141q0 -63 -38 -117t-125 -71l187 -319h-71zM439 504q0 66 -45 103.5t-123 37.5h-119v-282h119q77 0 122.5 38t45.5 103z" />
    <glyph glyph-name="S" unicode="S" horiz-adv-x="500" 
d="M451 632l-34 -44q-27 31 -69.5 51.5t-85.5 20.5q-63 0 -102 -32.5t-39 -83.5q0 -36 20.5 -65.5t73.5 -58.5l82 -45q87 -47 124 -92t37 -111q0 -87 -63 -135.5t-149 -48.5q-136 0 -217 89l34 52q74 -87 181 -87q64 0 108 33.5t44 89.5q0 52 -29 86t-102 73l-72 38
q-72 38 -103 78t-31 102q0 70 54.5 120t149.5 50q55 0 105 -21t83 -59z" />
    <glyph glyph-name="T" unicode="T" horiz-adv-x="547" 
d="M23 700h501v-57h-220v-643h-62v643h-219v57z" />
    <glyph glyph-name="U" unicode="U" horiz-adv-x="628" 
d="M314 -12q-115 0 -173 63.5t-58 167.5v481h62v-480q0 -80 42 -129.5t128 -49.5q85 0 127.5 49.5t42.5 129.5v480h60v-480q0 -104 -58 -168t-173 -64z" />
    <glyph glyph-name="V" unicode="V" horiz-adv-x="609" 
d="M266 0l-242 700h69l212 -637h2l214 637h63l-241 -700h-77z" />
    <glyph glyph-name="W" unicode="W" horiz-adv-x="937" 
d="M729 0h-89l-172 635l-169 -635h-90l-175 700h66l156 -637h2l171 637h79l175 -637h2l154 637h63z" />
    <glyph glyph-name="X" unicode="X" horiz-adv-x="579" 
d="M562 700l-236 -347l245 -353h-75l-207 308l-206 -308h-74l243 354l-233 346h74l198 -301l201 301h70z" />
    <glyph glyph-name="Y" unicode="Y" horiz-adv-x="637" 
d="M287 310l-271 390h75l229 -332l227 332h73l-270 -388v-312h-63v310z" />
    <glyph glyph-name="Z" unicode="Z" horiz-adv-x="571" 
d="M465 643h-425v57h497v-59l-436 -584h436v-57h-508v59z" />
    <glyph glyph-name="bracketleft" unicode="[" horiz-adv-x="327" 
d="M288 643h-144v-739h144v-57h-206v853h206v-57z" />
    <glyph glyph-name="backslash" unicode="\" horiz-adv-x="377" 
d="M98 700l236 -700h-58l-234 700h56z" />
    <glyph glyph-name="bracketright" unicode="]" horiz-adv-x="327" 
d="M39 -153v57h143v738h-143v58h206v-853h-206z" />
    <glyph glyph-name="asciicircum" unicode="^" 
d="M50 225l156 475h85l148 -475h-66l-124 420l-134 -420h-65z" />
    <glyph glyph-name="underscore" unicode="_" horiz-adv-x="383" 
d="M61 -137v56h261v-56h-261z" />
    <glyph glyph-name="grave" unicode="`" horiz-adv-x="203" 
d="M99 688l70 -159h-65l-80 159h75z" />
    <glyph glyph-name="a" unicode="a" horiz-adv-x="459" 
d="M201 40q55 0 93 30t38 87v61q-14 -17 -57 -17h-82q-47 0 -71 -21t-24 -57q0 -33 26 -58t77 -25zM332 292v13q0 47 -31.5 70.5t-79.5 23.5q-65 0 -136 -48l-29 46q73 56 169 56q78 0 123 -40.5t45 -109.5v-303h-61v55q-18 -32 -57 -49.5t-81 -17.5q-72 0 -116 37.5
t-44 97.5t40 94.5t109 34.5h106q43 0 43 40z" />
    <glyph glyph-name="b" unicode="b" horiz-adv-x="562" 
d="M299 -12q-55 0 -101 27t-67 68v-83h-61v700h61v-345q20 42 67 70t103 28q95 0 158.5 -66t63.5 -167t-64 -166.5t-160 -65.5zM461 220q0 77 -46.5 128t-119.5 51t-120 -51.5t-47 -127.5t47 -127.5t120 -51.5t119.5 51t46.5 128z" />
    <glyph glyph-name="c" unicode="c" horiz-adv-x="498" 
d="M101 220q0 -77 46.5 -128t119.5 -51q49 0 86.5 24t58.5 65l52 -30q-28 -51 -81 -81.5t-116 -30.5q-96 0 -162 66t-66 166t66 166.5t162 66.5q63 0 116 -30.5t81 -81.5l-52 -30q-21 41 -59 64.5t-86 23.5q-73 0 -119.5 -51t-46.5 -128z" />
    <glyph glyph-name="d" unicode="d" horiz-adv-x="562" 
d="M261 453q56 0 103 -28t67 -70v345h61v-700h-61v84q-21 -42 -67 -69t-101 -27q-96 0 -160 65.5t-64 166.5t63.5 167t158.5 66zM101 220q0 -77 46.5 -128t119.5 -51t120 51.5t47 127.5t-47 127.5t-120 51.5t-119.5 -51t-46.5 -128z" />
    <glyph glyph-name="e" unicode="e" horiz-adv-x="517" 
d="M484 202h-382q6 -70 49.5 -115t111.5 -45q94 0 137 76h71q-28 -60 -84 -95t-124 -35q-96 0 -160 65.5t-64 166.5t64 167t159 66q93 0 157.5 -65t64.5 -186zM262 399q-64 0 -107 -41t-51 -106h312q-5 62 -47.5 104.5t-106.5 42.5z" />
    <glyph glyph-name="f" unicode="f" horiz-adv-x="275" 
d="M98 441v158q0 56 29 80.5t71 24.5l60 -4v-53q-28 5 -44 5q-30 0 -42.5 -13.5t-12.5 -46.5v-151h90v-51h-90v-390h-61v390h-76v51h76z" />
    <glyph glyph-name="g" unicode="g" horiz-adv-x="562" 
d="M267 41q73 0 119.5 51t46.5 128t-46.5 128t-119.5 51t-120 -51.5t-47 -127.5t47 -127.5t120 -51.5zM492 441v-487q0 -129 -130 -129h-167v51h160q76 0 76 64v144q-21 -42 -67 -69t-101 -27q-96 0 -160 65.5t-64 166.5t63.5 167t158.5 66q56 0 103 -28t67 -70v86h61z" />
    <glyph glyph-name="h" unicode="h" horiz-adv-x="514" 
d="M387 0v290q0 52 -30 80.5t-79 28.5q-80 0 -147 -78v-321h-61v700h60v-322q62 75 158 75q76 0 118 -43t42 -117v-293h-61z" />
    <glyph glyph-name="i" unicode="i" horiz-adv-x="217" 
d="M147 441v-441h-61v390h-70v51h131zM59 601q0 22 15.5 37.5t37.5 15.5t37.5 -15.5t15.5 -37.5t-15.5 -37.5t-37.5 -15.5t-37.5 15.5t-15.5 37.5z" />
    <glyph glyph-name="j" unicode="j" horiz-adv-x="217" 
d="M86 -82v472h-70v51h131v-528q0 -88 -100 -88h-51v50h40q50 0 50 43zM59 601q0 22 15.5 37.5t37.5 15.5t37.5 -15.5t15.5 -37.5t-15.5 -37.5t-37.5 -15.5t-37.5 15.5t-15.5 37.5z" />
    <glyph glyph-name="k" unicode="k" horiz-adv-x="463" 
d="M131 700v-430h57l170 171h82l-203 -197l214 -244h-81l-185 217h-54v-217h-61v700h61z" />
    <glyph glyph-name="l" unicode="l" horiz-adv-x="211" 
d="M136 700v-700h-61v700h61z" />
    <glyph glyph-name="m" unicode="m" horiz-adv-x="811" 
d="M436 319q2 -28 2 -43v-276h-61v293q0 50 -28.5 78t-76.5 28q-74 0 -141 -78v-321h-61v441h60v-63q62 75 150 75q110 0 144 -85q70 85 164 85q76 0 116.5 -43t40.5 -117v-293h-61v293q0 50 -28.5 78t-75.5 28q-75 0 -144 -80z" />
    <glyph glyph-name="n" unicode="n" horiz-adv-x="514" 
d="M387 0v290q0 52 -30 80.5t-79 28.5q-80 0 -147 -78v-321h-61v441h60v-63q62 75 158 75q76 0 118 -43t42 -117v-293h-61z" />
    <glyph glyph-name="o" unicode="o" horiz-adv-x="535" 
d="M39 220q0 100 66 166.5t162 66.5t162.5 -66.5t66.5 -166.5t-66.5 -166t-162.5 -66t-162 66t-66 166zM434 220q0 77 -47 128t-120 51t-119.5 -51t-46.5 -128t46.5 -128t119.5 -51t120 51t47 128z" />
    <glyph glyph-name="p" unicode="p" horiz-adv-x="562" 
d="M299 -12q-55 0 -101 27t-67 68v-258h-61v616h61v-86q20 42 67 70t103 28q95 0 158.5 -66t63.5 -167t-64 -166.5t-160 -65.5zM461 220q0 77 -46.5 128t-119.5 51t-120 -51.5t-47 -127.5t47 -127.5t120 -51.5t119.5 51t46.5 128z" />
    <glyph glyph-name="q" unicode="q" horiz-adv-x="562" 
d="M263 -12q-96 0 -160 65.5t-64 166.5t63.5 167t158.5 66q56 0 103 -28t67 -70v86h61v-616h-61v258q-21 -41 -67 -68t-101 -27zM101 220q0 -77 46.5 -128t119.5 -51t120 51.5t47 127.5t-47 127.5t-120 51.5t-119.5 -51t-46.5 -128z" />
    <glyph glyph-name="r" unicode="r" horiz-adv-x="317" 
d="M294 447v-60h-30q-134 0 -134 -140v-247h-60v441h58v-75q18 42 54 62.5t79 20.5q9 0 33 -2z" />
    <glyph glyph-name="s" unicode="s" horiz-adv-x="384" 
d="M343 398l-34 -42q-53 46 -112 46q-39 0 -61.5 -18t-22.5 -44q0 -45 58 -68l62 -25q60 -24 85.5 -55t25.5 -78t-40 -86.5t-115 -39.5q-99 0 -163 62l33 45q56 -56 132 -56q44 0 68.5 21.5t24.5 53.5q0 31 -20.5 48.5t-71.5 38.5l-42 17q-97 39 -97 118q0 48 40 82.5
t107 34.5q84 0 143 -55z" />
    <glyph glyph-name="t" unicode="t" horiz-adv-x="292" 
d="M100 627h61v-186h109v-51h-109v-299q0 -28 15.5 -35.5t47.5 -7.5l46 3v-51q-32 -4 -68 -4q-102 0 -102 94v300h-76v51h76v186z" />
    <glyph glyph-name="u" unicode="u" horiz-adv-x="506" 
d="M253 -12q-89 0 -139 48t-50 121v284h61v-278q0 -58 35.5 -89.5t92.5 -31.5t92.5 31.5t35.5 89.5v278h61v-284q0 -73 -50 -121t-139 -48z" />
    <glyph glyph-name="v" unicode="v" horiz-adv-x="467" 
d="M234 50l141 391h66l-167 -441h-82l-164 441h69z" />
    <glyph glyph-name="w" unicode="w" horiz-adv-x="707" 
d="M508 50l102 391h66l-128 -441h-83l-112 379l-113 -379h-83l-124 441h68l98 -391l119 391h72z" />
    <glyph glyph-name="x" unicode="x" horiz-adv-x="443" 
d="M19 0l168 218l-168 223h73l130 -179l133 179h69l-168 -221l168 -220h-74l-129 176l-129 -176h-73z" />
    <glyph glyph-name="y" unicode="y" horiz-adv-x="467" 
d="M192 -55l20 55h-20l-164 441h68l138 -392l142 392h65l-197 -519q-20 -51 -46.5 -74t-79.5 -23h-51v51h50q31 0 46.5 16t28.5 53z" />
    <glyph glyph-name="z" unicode="z" horiz-adv-x="415" 
d="M377 441v-52l-268 -338h268v-51h-339v51l268 338h-268v52h339z" />
    <glyph glyph-name="braceleft" unicode="{" horiz-adv-x="358" 
d="M34 275v51h79v374h206v-58h-142v-269q0 -58 -46 -75q46 -12 46 -65v-328h142v-58h-206v428h-79z" />
    <glyph glyph-name="bar" unicode="|" horiz-adv-x="223" 
d="M82 -93v853h59v-853h-59z" />
    <glyph glyph-name="braceright" unicode="}" horiz-adv-x="358" 
d="M324 326v-51h-79v-428h-206v58h142v328q0 53 46 65q-46 17 -46 75v269h-142v58h206v-374h79z" />
    <glyph glyph-name="asciitilde" unicode="~" horiz-adv-x="551" 
d="M153 409q24 0 122 -27.5t117 -27.5q24 0 31 8.5t9 34.5v11h57v-20q0 -37 -19 -65.5t-68 -28.5q-28 0 -131 28t-115 28q-32 0 -32 -44v-11h-58v21q0 36 19.5 64.5t67.5 28.5z" />
    <glyph glyph-name="exclamdown" unicode="&#xa1;" horiz-adv-x="225" 
d="M53 392q0 25 17.5 42.5t42.5 17.5t43 -17.5t18 -42.5q0 -26 -18 -43.5t-43 -17.5t-42.5 18t-17.5 43zM82 217h58l3 -477h-64z" />
    <glyph glyph-name="cent" unicode="&#xa2;" horiz-adv-x="508" 
d="M227 0v124q-83 13 -136.5 76t-53.5 153t53.5 153t136.5 77v117h55v-115q57 -4 105.5 -33.5t74.5 -77.5l-52 -30q-41 78 -128 87v-357q88 9 128 89l52 -30q-26 -48 -74 -77.5t-106 -34.5v-121h-55zM99 353q0 -66 35 -114t93 -61v350q-58 -13 -93 -61.5t-35 -113.5z" />
    <glyph glyph-name="sterling" unicode="&#xa3;" horiz-adv-x="528" 
d="M57 316v53h58q-29 87 -29 141q0 95 57 148.5t145 53.5q87 0 141.5 -51t54.5 -142v-6h-64q0 69 -35 106.5t-97 37.5q-68 0 -102.5 -41t-34.5 -106q0 -52 31 -141h182v-53h-164q22 -73 22 -121q0 -76 -47 -138h279v-57h-403v57h65q2 0 12.5 15t22.5 46.5t12 65.5
q0 49 -29 132h-77z" />
    <glyph glyph-name="currency" unicode="&#xa4;" horiz-adv-x="728" 
d="M364 633q97 0 174 -60l88 87l46 -47l-91 -86q62 -79 62 -178q0 -101 -62 -178l91 -86l-46 -47l-87 87q-80 -61 -175 -61t-175 61l-87 -87l-46 47l91 86q-62 77 -62 178q0 99 62 178l-91 86l46 47l88 -87q77 60 174 60zM364 126q92 0 152 64.5t60 158.5t-60 158.5
t-152 64.5t-152 -64.5t-60 -158.5t60 -158.5t152 -64.5z" />
    <glyph glyph-name="yen" unicode="&#xa5;" horiz-adv-x="593" 
d="M266 310l-55 96h-146v53h114l-140 241h74l185 -329h2l183 329h72l-141 -241h112v-53h-142l-55 -94v-20h197v-53h-197v-239h-63v239h-201v53h201v18z" />
    <glyph glyph-name="brokenbar" unicode="&#xa6;" horiz-adv-x="225" 
d="M143 408h-61v352h61v-352zM143 -93h-61v352h61v-352z" />
    <glyph glyph-name="section" unicode="&#xa7;" horiz-adv-x="540" 
d="M47 312q0 46 35.5 82.5t91.5 44.5q-91 30 -91 126q0 65 58 106t147 41q123 0 194 -62l-36 -47q-26 23 -70 39.5t-86 16.5q-69 0 -105 -26t-36 -64q0 -65 80 -86l113 -30q79 -21 116 -53.5t37 -92.5q0 -45 -33.5 -80.5t-95.5 -49.5q93 -33 93 -124q0 -66 -59 -107.5
t-151 -41.5q-122 0 -194 62l35 48q26 -23 70.5 -40t85.5 -17q72 0 109 26t37 65q0 37 -24.5 56t-77.5 34l-89 25q-75 19 -114.5 54t-39.5 95zM112 314q0 -37 25.5 -57.5t78.5 -35.5l75 -21q61 6 99.5 35t38.5 72q0 35 -26.5 55t-76.5 32l-76 19q-61 -4 -99.5 -30t-38.5 -69z
" />
    <glyph glyph-name="dieresis" unicode="&#xa8;" horiz-adv-x="290" 
d="M15 574q0 20 15 35t35 15t35.5 -15t15.5 -35t-15.5 -35t-35.5 -15t-35 15t-15 35zM173 574q0 20 15 35t35 15t35.5 -15t15.5 -35t-15.5 -35t-35.5 -15t-35 15t-15 35z" />
    <glyph glyph-name="copyright" unicode="&#xa9;" horiz-adv-x="821" 
d="M415 560q67 0 117 -37.5t69 -99.5h-56q-14 43 -48.5 67t-82.5 24q-68 0 -111 -46t-43 -117q0 -70 43 -116t111 -46q48 0 82 24.5t49 66.5h56q-19 -62 -69 -99.5t-117 -37.5q-88 0 -148 59t-60 149q0 91 59.5 150t148.5 59zM411 710q151 0 256 -102t105 -258t-105 -258
t-256 -102q-152 0 -257 102t-105 258t105 258t257 102zM411 35q133 0 221 89t88 226t-88 226t-221 89t-221.5 -89t-88.5 -226t88.5 -226t221.5 -89z" />
    <glyph glyph-name="ordfeminine" unicode="&#xaa;" horiz-adv-x="422" 
d="M191 361q46 0 78.5 26t32.5 74v51q-11 -14 -48 -14h-70q-40 0 -60.5 -18t-20.5 -48q0 -28 22 -49.5t66 -21.5zM302 575v11q0 39 -25.5 59t-68.5 20q-59 0 -110 -42l-28 39q60 50 142 50q66 0 104 -34.5t38 -92.5v-258h-52v47q-15 -27 -48 -42t-69 -15q-62 0 -99 31
t-37 84q0 51 34 80t93 29h90q36 0 36 34z" />
    <glyph glyph-name="guillemotleft" unicode="&#xab;" horiz-adv-x="435" 
d="M152 86l-103 153l103 153h69l-103 -153l103 -153h-69zM308 86l-103 153l103 153h69l-103 -153l103 -153h-69z" />
    <glyph glyph-name="logicalnot" unicode="&#xac;" 
d="M454 236h-60v170h-363v57h423v-227z" />
    <glyph glyph-name="registered" unicode="&#xae;" horiz-adv-x="821" 
d="M517 147l-100 185h-91v-185h-51v413h145q65 0 101.5 -30t36.5 -83q0 -34 -23 -65t-69 -43l109 -192h-58zM506 447q0 34 -24 51.5t-63 17.5h-93v-140h93q39 0 63 18.5t24 52.5zM411 710q151 0 256 -102t105 -258t-105 -258t-256 -102q-152 0 -257 102t-105 258t105 258
t257 102zM411 35q133 0 221 89t88 226t-88 226t-221 89t-221.5 -89t-88.5 -226t88.5 -226t221.5 -89z" />
    <glyph glyph-name="macron" unicode="&#xaf;" horiz-adv-x="320" 
d="M31 547v52h258v-52h-258z" />
    <glyph glyph-name="degree" unicode="&#xb0;" horiz-adv-x="395" 
d="M49 563q0 61 43.5 105t105.5 44q61 0 104.5 -43.5t43.5 -105.5q0 -61 -43 -104.5t-105 -43.5t-105.5 43.5t-43.5 104.5zM105 563q0 -40 27.5 -69t65.5 -29t65.5 29t27.5 69t-27.5 69t-65.5 29t-65.5 -29t-27.5 -69z" />
    <glyph glyph-name="plusminus" unicode="&#xb1;" 
d="M274 562v-181h182v-57h-182v-182h-60v182h-181v57h181v181h60zM456 0h-423v57h423v-57z" />
    <glyph glyph-name="twosuperior" unicode="&#xb2;" horiz-adv-x="376" 
d="M63 290v42l115 123q44 47 60.5 77t16.5 61q0 30 -17.5 50.5t-51.5 20.5q-30 0 -49.5 -17t-19.5 -46q0 -21 13 -51l-49 -10q-16 32 -16 61q0 44 33 75.5t89 31.5q55 0 88 -32.5t33 -80.5q0 -39 -20 -76.5t-86 -105.5l-73 -76h181v-47h-247z" />
    <glyph glyph-name="threesuperior" unicode="&#xb3;" horiz-adv-x="363" 
d="M158 523h17q35 0 53.5 19.5t18.5 50.5t-16.5 50.5t-49.5 19.5q-66 0 -66 -75v-22h-55v23q0 55 32.5 87t88.5 32t87.5 -30.5t31.5 -82.5q0 -30 -16 -55.5t-46 -35.5q34 -10 52 -37t18 -64q0 -55 -35 -88.5t-91 -33.5t-90.5 32.5t-34.5 87.5v23h54v-22q0 -34 17.5 -54.5
t53.5 -20.5t54 21.5t18 53.5q0 33 -18 55t-53 22h-25v44z" />
    <glyph glyph-name="acute" unicode="&#xb4;" horiz-adv-x="203" 
d="M29 529l70 159h75l-80 -159h-65z" />
    <glyph glyph-name="mu" unicode="&#xb5;" horiz-adv-x="499" 
d="M76 -175v616h61v-278q0 -58 36 -89.5t93 -31.5t92 31.5t35 89.5v278h61v-284q0 -73 -49.5 -121t-138.5 -48t-131 56v-219h-59z" />
    <glyph glyph-name="paragraph" unicode="&#xb6;" horiz-adv-x="584" 
d="M36 529q0 71 50.5 121t126.5 50h276v-700h-65v641h-147v-641h-66v359h-7q-72 0 -120 50t-48 120z" />
    <glyph glyph-name="periodcentered" unicode="&#xb7;" horiz-adv-x="247" 
d="M62 363q0 26 18 44t43 18t43.5 -18.5t18.5 -43.5t-18 -43t-44 -18q-25 0 -43 18t-18 43z" />
    <glyph glyph-name="cedilla" unicode="&#xb8;" horiz-adv-x="191" 
d="M29 -160l69 156h64l-70 -156h-63z" />
    <glyph glyph-name="onesuperior" unicode="&#xb9;" horiz-adv-x="322" 
d="M61 654v46h133v-365h80v-45h-211v45h78v319h-80z" />
    <glyph glyph-name="ordmasculine" unicode="&#xba;" horiz-adv-x="481" 
d="M46 514q0 85 56.5 141.5t137.5 56.5q82 0 138.5 -56.5t56.5 -141.5t-56.5 -141t-138.5 -56q-81 0 -137.5 56t-56.5 141zM382 514q0 65 -40 108.5t-102 43.5t-101.5 -43.5t-39.5 -108.5t39.5 -108.5t101.5 -43.5t102 43.5t40 108.5z" />
    <glyph glyph-name="guillemotright" unicode="&#xbb;" horiz-adv-x="435" 
d="M230 239l-104 -153h-68l103 153l-103 153h68zM386 239l-104 -153h-68l103 153l-103 153h68z" />
    <glyph glyph-name="onequarter" unicode="&#xbc;" horiz-adv-x="790" 
d="M389 122v38l153 254h75v-250h53v-42h-53v-122h-50v122h-178zM567 375l-125 -211h125v211zM134 654v46h133v-365h80v-45h-211v45h78v319h-80z" />
    <glyph glyph-name="onehalf" unicode="&#xbd;" horiz-adv-x="790" 
d="M417 0v42l115 123q44 47 60.5 77t16.5 61q0 30 -17.5 50.5t-51.5 20.5q-30 0 -49.5 -17t-19.5 -46q0 -21 13 -51l-49 -10q-16 32 -16 61q0 44 33 75.5t89 31.5q55 0 88 -32.5t33 -80.5q0 -39 -20 -76.5t-86 -105.5l-73 -76h181v-47h-247zM130 654v46h133v-365h80v-45
h-211v45h78v319h-80z" />
    <glyph glyph-name="threequarters" unicode="&#xbe;" horiz-adv-x="790" 
d="M381 122v38l152 254h76v-250h53v-42h-53v-122h-50v122h-178zM559 375l-125 -211h125v211zM240 523h17q35 0 53.5 19.5t18.5 50.5t-16.5 50.5t-49.5 19.5q-66 0 -66 -75v-22h-55v23q0 55 32.5 87t88.5 32t87.5 -30.5t31.5 -82.5q0 -30 -16 -55.5t-46 -35.5q34 -10 52 -37
t18 -64q0 -55 -35 -88.5t-91 -33.5t-90.5 32.5t-34.5 87.5v23h54v-22q0 -34 17.5 -54.5t53.5 -20.5t54 21.5t18 53.5q0 33 -18 55t-53 22h-25v44z" />
    <glyph glyph-name="questiondown" unicode="&#xbf;" horiz-adv-x="453" 
d="M32 -81q1 67 42.5 122t129.5 67l5 140h52l9 -188h-29q-72 0 -109 -40.5t-37 -102.5t37 -98t93 -36q62 0 98.5 38t36.5 106l-1 21h62v-12q0 -100 -53 -154t-144 -54q-82 0 -137 52t-55 139zM296 392q0 -25 -18 -42.5t-43 -17.5t-42.5 17.5t-17.5 42.5t17.5 42.5t42.5 17.5
q26 0 43.5 -17.5t17.5 -42.5z" />
    <glyph glyph-name="Agrave" unicode="&#xc0;" horiz-adv-x="613" 
d="M436 247h-263l-82 -247h-64l241 700h77l242 -700h-67zM303 639l-113 -338h228l-112 338h-3zM312 941l70 -159h-65l-80 159h75z" />
    <glyph glyph-name="Aacute" unicode="&#xc1;" horiz-adv-x="613" 
d="M436 247h-263l-82 -247h-64l241 700h77l242 -700h-67zM303 639l-113 -338h228l-112 338h-3zM237 782l70 159h75l-80 -159h-65z" />
    <glyph glyph-name="Acircumflex" unicode="&#xc2;" horiz-adv-x="613" 
d="M436 247h-263l-82 -247h-64l241 700h77l242 -700h-67zM303 639l-113 -338h228l-112 338h-3zM352 941l87 -159h-65l-64 114l-64 -114h-65l87 159h84z" />
    <glyph glyph-name="Atilde" unicode="&#xc3;" horiz-adv-x="613" 
d="M436 247h-263l-82 -247h-64l241 700h77l242 -700h-67zM303 639l-113 -338h228l-112 338h-3zM367 788q-27 0 -64 24.5t-46 24.5q-30 0 -30 -48h-54q0 103 79 103q28 0 64.5 -24.5t46.5 -24.5q29 0 29 48h55q0 -103 -80 -103z" />
    <glyph glyph-name="Adieresis" unicode="&#xc4;" horiz-adv-x="613" 
d="M436 247h-263l-82 -247h-64l241 700h77l242 -700h-67zM303 639l-113 -338h228l-112 338h-3zM180 827q0 20 15 35t35 15t35.5 -15t15.5 -35t-15.5 -35t-35.5 -15t-35 15t-15 35zM338 827q0 20 15 35t35 15t35.5 -15t15.5 -35t-15.5 -35t-35.5 -15t-35 15t-15 35z" />
    <glyph glyph-name="Aring" unicode="&#xc5;" horiz-adv-x="613" 
d="M436 247h-263l-82 -247h-64l241 700h77l242 -700h-67zM303 639l-113 -338h228l-112 338h-3zM201 843q0 46 31.5 77t76.5 31t77 -31t32 -77q0 -45 -32 -75.5t-77 -30.5t-76.5 30.5t-31.5 75.5zM365 843q0 25 -15.5 42t-40.5 17q-24 0 -39.5 -17t-15.5 -42t15.5 -41.5
t39.5 -16.5q25 0 40.5 16.5t15.5 41.5z" />
    <glyph glyph-name="AE" unicode="&#xc6;" horiz-adv-x="971" 
d="M936 700v-58h-380v-259h257v-55h-257v-271h380v-57h-444v328h-208l-187 -328h-75l412 700h502zM492 642h-29l-148 -259h177v259z" />
    <glyph glyph-name="Ccedilla" unicode="&#xc7;" horiz-adv-x="763" 
d="M303 -160l66 149q-139 11 -232 112t-93 249q0 157 102.5 259.5t252.5 102.5q115 0 203.5 -63t122.5 -170h-65q-31 83 -98.5 130.5t-162.5 47.5q-129 0 -211 -87t-82 -220t82 -220.5t211 -87.5q95 0 162.5 47.5t98.5 130.5h65q-31 -99 -109.5 -160.5t-182.5 -69.5
l-67 -150h-63z" />
    <glyph glyph-name="Egrave" unicode="&#xc8;" horiz-adv-x="588" 
d="M553 700v-58h-401v-258h258v-55h-258v-272h401v-57h-463v700h463zM304 941l70 -159h-65l-80 159h75z" />
    <glyph glyph-name="Eacute" unicode="&#xc9;" horiz-adv-x="588" 
d="M553 700v-58h-401v-258h258v-55h-258v-272h401v-57h-463v700h463zM249 782l70 159h75l-80 -159h-65z" />
    <glyph glyph-name="Ecircumflex" unicode="&#xca;" horiz-adv-x="588" 
d="M553 700v-58h-401v-258h258v-55h-258v-272h401v-57h-463v700h463zM351 941l87 -159h-65l-64 114l-64 -114h-65l87 159h84z" />
    <glyph glyph-name="Edieresis" unicode="&#xcb;" horiz-adv-x="588" 
d="M553 700v-58h-401v-258h258v-55h-258v-272h401v-57h-463v700h463zM187 827q0 20 15 35t35 15t35.5 -15t15.5 -35t-15.5 -35t-35.5 -15t-35 15t-15 35zM345 827q0 20 15 35t35 15t35.5 -15t15.5 -35t-15.5 -35t-35.5 -15t-35 15t-15 35z" />
    <glyph glyph-name="Igrave" unicode="&#xcc;" horiz-adv-x="242" 
d="M90 0v700h62v-700h-62zM126 941l70 -159h-65l-80 159h75z" />
    <glyph glyph-name="Iacute" unicode="&#xcd;" horiz-adv-x="242" 
d="M90 0v700h62v-700h-62zM51 782l70 159h75l-80 -159h-65z" />
    <glyph glyph-name="Icircumflex" unicode="&#xce;" horiz-adv-x="242" 
d="M90 0v700h62v-700h-62zM167 941l87 -159h-65l-64 114l-64 -114h-65l87 159h84z" />
    <glyph glyph-name="Idieresis" unicode="&#xcf;" horiz-adv-x="242" 
d="M90 0v700h62v-700h-62zM-5 827q0 20 15 35t35 15t35.5 -15t15.5 -35t-15.5 -35t-35.5 -15t-35 15t-15 35zM153 827q0 20 15 35t35 15t35.5 -15t15.5 -35t-15.5 -35t-35.5 -15t-35 15t-15 35z" />
    <glyph glyph-name="Eth" unicode="&#xd0;" horiz-adv-x="688" 
d="M36 329v55h60v316h178q176 0 272 -95t96 -255t-96 -255t-272 -95h-178v329h-60zM579 350q0 143 -82 219t-224 76h-115v-261h228v-55h-228v-275h115q142 0 224 76t82 220z" />
    <glyph glyph-name="Ntilde" unicode="&#xd1;" horiz-adv-x="662" 
d="M152 623v-623h-62v700h86l333 -610v610h63v-700h-78zM390 788q-28 0 -64 24.5t-46 24.5q-30 0 -30 -48h-54q0 103 79 103q28 0 64.5 -24.5t46.5 -24.5q29 0 29 48h55q0 -103 -80 -103z" />
    <glyph glyph-name="Ograve" unicode="&#xd2;" horiz-adv-x="798" 
d="M399 712q149 0 252 -103t103 -259t-103 -259t-252 -103t-252 103t-103 259t103 259t252 103zM399 42q129 0 211 87.5t82 220.5t-82 220t-211 87t-211 -87t-82 -220t82 -220.5t211 -87.5zM399 941l70 -159h-65l-80 159h75z" />
    <glyph glyph-name="Oacute" unicode="&#xd3;" horiz-adv-x="798" 
d="M399 712q149 0 252 -103t103 -259t-103 -259t-252 -103t-252 103t-103 259t103 259t252 103zM399 42q129 0 211 87.5t82 220.5t-82 220t-211 87t-211 -87t-82 -220t82 -220.5t211 -87.5zM329 782l70 159h75l-80 -159h-65z" />
    <glyph glyph-name="Ocircumflex" unicode="&#xd4;" horiz-adv-x="798" 
d="M399 712q149 0 252 -103t103 -259t-103 -259t-252 -103t-252 103t-103 259t103 259t252 103zM399 42q129 0 211 87.5t82 220.5t-82 220t-211 87t-211 -87t-82 -220t82 -220.5t211 -87.5zM443 941l87 -159h-65l-64 114l-64 -114h-65l87 159h84z" />
    <glyph glyph-name="Otilde" unicode="&#xd5;" horiz-adv-x="798" 
d="M399 712q149 0 252 -103t103 -259t-103 -259t-252 -103t-252 103t-103 259t103 259t252 103zM399 42q129 0 211 87.5t82 220.5t-82 220t-211 87t-211 -87t-82 -220t82 -220.5t211 -87.5zM458 788q-28 0 -64 24.5t-46 24.5q-30 0 -30 -48h-54q0 103 79 103
q28 0 64.5 -24.5t46.5 -24.5q29 0 29 48h55q0 -103 -80 -103z" />
    <glyph glyph-name="Odieresis" unicode="&#xd6;" horiz-adv-x="798" 
d="M399 712q149 0 252 -103t103 -259t-103 -259t-252 -103t-252 103t-103 259t103 259t252 103zM399 42q129 0 211 87.5t82 220.5t-82 220t-211 87t-211 -87t-82 -220t82 -220.5t211 -87.5zM272 827q0 20 15 35t35 15t35.5 -15t15.5 -35t-15.5 -35t-35.5 -15t-35 15t-15 35z
M430 827q0 20 15 35t35 15t35.5 -15t15.5 -35t-15.5 -35t-35.5 -15t-35 15t-15 35z" />
    <glyph glyph-name="multiply" unicode="&#xd7;" 
d="M88 560l157 -157l158 158l40 -41l-158 -158l158 -157l-40 -40l-158 157l-157 -157l-41 40l158 158l-158 157z" />
    <glyph glyph-name="Oslash" unicode="&#xd8;" horiz-adv-x="798" 
d="M399 712q122 0 217 -73l64 73h68l-93 -107q99 -104 99 -255q0 -156 -103 -259t-252 -103q-121 0 -216 71l-63 -72h-73l95 109q-98 101 -98 254q0 156 103 259t252 103zM399 42q129 0 211 87.5t82 220.5q0 127 -75 211l-398 -460q75 -59 180 -59zM106 350q0 -127 73 -212
l401 459q-77 60 -181 60q-129 0 -211 -87t-82 -220z" />
    <glyph glyph-name="Ugrave" unicode="&#xd9;" horiz-adv-x="628" 
d="M314 -12q-115 0 -173 63.5t-58 167.5v481h62v-480q0 -80 42 -129.5t128 -49.5q85 0 127.5 49.5t42.5 129.5v480h60v-480q0 -104 -58 -168t-173 -64zM319 941l70 -159h-65l-80 159h75z" />
    <glyph glyph-name="Uacute" unicode="&#xda;" horiz-adv-x="628" 
d="M314 -12q-115 0 -173 63.5t-58 167.5v481h62v-480q0 -80 42 -129.5t128 -49.5q85 0 127.5 49.5t42.5 129.5v480h60v-480q0 -104 -58 -168t-173 -64zM244 782l70 159h75l-80 -159h-65z" />
    <glyph glyph-name="Ucircumflex" unicode="&#xdb;" horiz-adv-x="628" 
d="M314 -12q-115 0 -173 63.5t-58 167.5v481h62v-480q0 -80 42 -129.5t128 -49.5q85 0 127.5 49.5t42.5 129.5v480h60v-480q0 -104 -58 -168t-173 -64zM358 941l87 -159h-65l-64 114l-64 -114h-65l87 159h84z" />
    <glyph glyph-name="Udieresis" unicode="&#xdc;" horiz-adv-x="628" 
d="M314 -12q-115 0 -173 63.5t-58 167.5v481h62v-480q0 -80 42 -129.5t128 -49.5q85 0 127.5 49.5t42.5 129.5v480h60v-480q0 -104 -58 -168t-173 -64zM187 827q0 20 15 35t35 15t35.5 -15t15.5 -35t-15.5 -35t-35.5 -15t-35 15t-15 35zM345 827q0 20 15 35t35 15t35.5 -15
t15.5 -35t-15.5 -35t-35.5 -15t-35 15t-15 35z" />
    <glyph glyph-name="Yacute" unicode="&#xdd;" horiz-adv-x="637" 
d="M287 310l-271 390h75l229 -332l227 332h73l-270 -388v-312h-63v310zM276 782l70 159h75l-80 -159h-65z" />
    <glyph glyph-name="Thorn" unicode="&#xde;" horiz-adv-x="551" 
d="M155 140v-140h-65v700h65v-132h125q114 0 176 -60t62 -152q0 -93 -62 -154.5t-176 -61.5h-125zM285 511h-130v-314h130q72 0 120 42t48 117q0 74 -47.5 114.5t-120.5 40.5z" />
    <glyph glyph-name="germandbls" unicode="&#xdf;" horiz-adv-x="485" 
d="M247 702q82 0 124 -46.5t42 -103.5q0 -25 -8.5 -50.5t-17 -39.5t-27 -40t-24.5 -35q-22 -33 -22 -52q0 -17 15 -35t36 -35.5t42 -37.5t36 -48.5t15 -60.5q0 -62 -41.5 -96t-105.5 -34q-47 0 -83 14l20 49q30 -13 57 -13q45 0 69.5 21.5t24.5 59.5q0 24 -15 45.5t-36 38.5
t-42 35t-36 42.5t-15 52.5q0 19 7.5 38.5t13.5 28.5l22 33q3 4 12.5 17.5t13 19t11 18t10.5 20.5t5.5 19.5t2.5 22.5q0 42 -27.5 69.5t-77.5 27.5t-83.5 -35.5t-33.5 -101.5v-510h-61v505q0 54 17 94.5t44.5 61.5t56.5 31t59 10z" />
    <glyph glyph-name="agrave" unicode="&#xe0;" horiz-adv-x="459" 
d="M201 40q55 0 93 30t38 87v61q-14 -17 -57 -17h-82q-47 0 -71 -21t-24 -57q0 -33 26 -58t77 -25zM332 292v13q0 47 -31.5 70.5t-79.5 23.5q-65 0 -136 -48l-29 46q73 56 169 56q78 0 123 -40.5t45 -109.5v-303h-61v55q-18 -32 -57 -49.5t-81 -17.5q-72 0 -116 37.5
t-44 97.5t40 94.5t109 34.5h106q43 0 43 40zM229 688l70 -159h-65l-80 159h75z" />
    <glyph glyph-name="aacute" unicode="&#xe1;" horiz-adv-x="459" 
d="M201 40q55 0 93 30t38 87v61q-14 -17 -57 -17h-82q-47 0 -71 -21t-24 -57q0 -33 26 -58t77 -25zM332 292v13q0 47 -31.5 70.5t-79.5 23.5q-65 0 -136 -48l-29 46q73 56 169 56q78 0 123 -40.5t45 -109.5v-303h-61v55q-18 -32 -57 -49.5t-81 -17.5q-72 0 -116 37.5
t-44 97.5t40 94.5t109 34.5h106q43 0 43 40zM168 529l70 159h75l-80 -159h-65z" />
    <glyph glyph-name="acircumflex" unicode="&#xe2;" horiz-adv-x="459" 
d="M201 40q55 0 93 30t38 87v61q-14 -17 -57 -17h-82q-47 0 -71 -21t-24 -57q0 -33 26 -58t77 -25zM332 292v13q0 47 -31.5 70.5t-79.5 23.5q-65 0 -136 -48l-29 46q73 56 169 56q78 0 123 -40.5t45 -109.5v-303h-61v55q-18 -32 -57 -49.5t-81 -17.5q-72 0 -116 37.5
t-44 97.5t40 94.5t109 34.5h106q43 0 43 40zM269 688l87 -159h-65l-64 114l-64 -114h-65l87 159h84z" />
    <glyph glyph-name="atilde" unicode="&#xe3;" horiz-adv-x="459" 
d="M201 40q55 0 93 30t38 87v61q-14 -17 -57 -17h-82q-47 0 -71 -21t-24 -57q0 -33 26 -58t77 -25zM332 292v13q0 47 -31.5 70.5t-79.5 23.5q-65 0 -136 -48l-29 46q73 56 169 56q78 0 123 -40.5t45 -109.5v-303h-61v55q-18 -32 -57 -49.5t-81 -17.5q-72 0 -116 37.5
t-44 97.5t40 94.5t109 34.5h106q43 0 43 40zM284 535q-28 0 -64 24.5t-46 24.5q-30 0 -30 -48h-54q0 103 79 103q28 0 64.5 -24.5t46.5 -24.5q29 0 29 48h55q0 -103 -80 -103z" />
    <glyph glyph-name="adieresis" unicode="&#xe4;" horiz-adv-x="459" 
d="M201 40q55 0 93 30t38 87v61q-14 -17 -57 -17h-82q-47 0 -71 -21t-24 -57q0 -33 26 -58t77 -25zM332 292v13q0 47 -31.5 70.5t-79.5 23.5q-65 0 -136 -48l-29 46q73 56 169 56q78 0 123 -40.5t45 -109.5v-303h-61v55q-18 -32 -57 -49.5t-81 -17.5q-72 0 -116 37.5
t-44 97.5t40 94.5t109 34.5h106q43 0 43 40zM97 574q0 20 15 35t35 15t35.5 -15t15.5 -35t-15.5 -35t-35.5 -15t-35 15t-15 35zM255 574q0 20 15 35t35 15t35.5 -15t15.5 -35t-15.5 -35t-35.5 -15t-35 15t-15 35z" />
    <glyph glyph-name="aring" unicode="&#xe5;" horiz-adv-x="459" 
d="M201 40q55 0 93 30t38 87v61q-14 -17 -57 -17h-82q-47 0 -71 -21t-24 -57q0 -33 26 -58t77 -25zM332 292v13q0 47 -31.5 70.5t-79.5 23.5q-65 0 -136 -48l-29 46q73 56 169 56q78 0 123 -40.5t45 -109.5v-303h-61v55q-18 -32 -57 -49.5t-81 -17.5q-72 0 -116 37.5
t-44 97.5t40 94.5t109 34.5h106q43 0 43 40zM123 598q0 44 30 73t73 29t73 -29t30 -73q0 -43 -30 -72t-73 -29t-73 29t-30 72zM279 598q0 24 -14.5 40t-38.5 16q-23 0 -37.5 -16t-14.5 -40t14.5 -39.5t37.5 -15.5q24 0 38.5 15.5t14.5 39.5z" />
    <glyph glyph-name="ae" unicode="&#xe6;" horiz-adv-x="783" 
d="M544 399q-61 0 -98 -40.5t-46 -106.5h283q-5 65 -42 106t-97 41zM226 453q57 0 98.5 -23.5t59.5 -62.5q54 86 161 86q88 0 145.5 -64.5t57.5 -186.5h-348q3 -68 45 -114t105 -46q83 0 123 76h67q-26 -61 -76 -95.5t-115 -34.5q-61 0 -108.5 30.5t-67.5 77.5
q-41 -108 -176 -108q-71 0 -116.5 39t-45.5 99t40 94.5t108 34.5h124q19 0 25.5 7.5t6.5 23.5v16q0 45 -33 70.5t-85 25.5q-73 0 -134 -50l-33 46q74 59 172 59zM281 205h-88q-46 0 -70 -22.5t-24 -59.5q0 -34 26.5 -60t77.5 -26q56 0 95.5 34.5t39.5 94.5v56
q-14 -17 -57 -17z" />
    <glyph glyph-name="ccedilla" unicode="&#xe7;" horiz-adv-x="498" 
d="M167 -160l66 151q-84 11 -138.5 74.5t-54.5 154.5q0 100 66 166.5t162 66.5q63 0 116 -30.5t81 -81.5l-52 -30q-21 41 -59 64.5t-86 23.5q-73 0 -119.5 -51t-46.5 -128t46.5 -128t119.5 -51q100 0 145 89l52 -30q-25 -45 -69.5 -74t-98.5 -36l-67 -150h-63z" />
    <glyph glyph-name="egrave" unicode="&#xe8;" horiz-adv-x="517" 
d="M484 202h-382q6 -70 49.5 -115t111.5 -45q94 0 137 76h71q-28 -60 -84 -95t-124 -35q-96 0 -160 65.5t-64 166.5t64 167t159 66q93 0 157.5 -65t64.5 -186zM262 399q-64 0 -107 -41t-51 -106h312q-5 62 -47.5 104.5t-106.5 42.5zM264 688l70 -159h-65l-80 159h75z" />
    <glyph glyph-name="eacute" unicode="&#xe9;" horiz-adv-x="517" 
d="M484 202h-382q6 -70 49.5 -115t111.5 -45q94 0 137 76h71q-28 -60 -84 -95t-124 -35q-96 0 -160 65.5t-64 166.5t64 167t159 66q93 0 157.5 -65t64.5 -186zM262 399q-64 0 -107 -41t-51 -106h312q-5 62 -47.5 104.5t-106.5 42.5zM189 529l70 159h75l-80 -159h-65z" />
    <glyph glyph-name="ecircumflex" unicode="&#xea;" horiz-adv-x="517" 
d="M484 202h-382q6 -70 49.5 -115t111.5 -45q94 0 137 76h71q-28 -60 -84 -95t-124 -35q-96 0 -160 65.5t-64 166.5t64 167t159 66q93 0 157.5 -65t64.5 -186zM262 399q-64 0 -107 -41t-51 -106h312q-5 62 -47.5 104.5t-106.5 42.5zM303 688l87 -159h-65l-64 114l-64 -114
h-65l87 159h84z" />
    <glyph glyph-name="edieresis" unicode="&#xeb;" horiz-adv-x="517" 
d="M484 202h-382q6 -70 49.5 -115t111.5 -45q94 0 137 76h71q-28 -60 -84 -95t-124 -35q-96 0 -160 65.5t-64 166.5t64 167t159 66q93 0 157.5 -65t64.5 -186zM262 399q-64 0 -107 -41t-51 -106h312q-5 62 -47.5 104.5t-106.5 42.5zM132 574q0 20 15 35t35 15t35.5 -15
t15.5 -35t-15.5 -35t-35.5 -15t-35 15t-15 35zM290 574q0 20 15 35t35 15t35.5 -15t15.5 -35t-15.5 -35t-35.5 -15t-35 15t-15 35z" />
    <glyph glyph-name="igrave" unicode="&#xec;" horiz-adv-x="218" 
d="M114 688l70 -159h-65l-80 159h75zM148 441v-441h-61v390h-71v51h132z" />
    <glyph glyph-name="iacute" unicode="&#xed;" horiz-adv-x="218" 
d="M39 529l70 159h75l-80 -159h-65zM148 441v-441h-61v390h-71v51h132z" />
    <glyph glyph-name="icircumflex" unicode="&#xee;" horiz-adv-x="218" 
d="M148 441v-441h-61v390h-71v51h132zM155 688l87 -159h-65l-64 114l-64 -114h-65l87 159h84z" />
    <glyph glyph-name="idieresis" unicode="&#xef;" horiz-adv-x="218" 
d="M-16 574q0 20 15 35t35 15t35.5 -15t15.5 -35t-15.5 -35t-35.5 -15t-35 15t-15 35zM142 574q0 20 15 35t35 15t35.5 -15t15.5 -35t-15.5 -35t-35.5 -15t-35 15t-15 35zM148 441v-441h-61v390h-71v51h132z" />
    <glyph glyph-name="eth" unicode="&#xf0;" horiz-adv-x="538" 
d="M207 689q42 -27 82 -61l94 65l27 -39l-84 -59q169 -165 169 -356q0 -112 -65 -181.5t-163 -69.5q-96 0 -162 66t-66 166t65.5 166.5t160.5 66.5q32 0 70.5 -15t63.5 -45l5 4q-33 74 -126 165l-89 -62l-27 39l81 56q-67 61 -118 92zM433 220q0 76 -46.5 127t-119.5 51
t-119.5 -51t-46.5 -127t46.5 -127t119.5 -51t119.5 51t46.5 127z" />
    <glyph glyph-name="ntilde" unicode="&#xf1;" horiz-adv-x="514" 
d="M387 0v290q0 52 -30 80.5t-79 28.5q-80 0 -147 -78v-321h-61v441h60v-63q62 75 158 75q76 0 118 -43t42 -117v-293h-61zM315 535q-27 0 -64 24.5t-46 24.5q-30 0 -30 -48h-54q0 103 79 103q28 0 64.5 -24.5t46.5 -24.5q29 0 29 48h55q0 -103 -80 -103z" />
    <glyph glyph-name="ograve" unicode="&#xf2;" horiz-adv-x="535" 
d="M39 220q0 100 66 166.5t162 66.5t162.5 -66.5t66.5 -166.5t-66.5 -166t-162.5 -66t-162 66t-66 166zM434 220q0 77 -47 128t-120 51t-119.5 -51t-46.5 -128t46.5 -128t119.5 -51t120 51t47 128zM269 688l70 -159h-65l-80 159h75z" />
    <glyph glyph-name="oacute" unicode="&#xf3;" horiz-adv-x="535" 
d="M39 220q0 100 66 166.5t162 66.5t162.5 -66.5t66.5 -166.5t-66.5 -166t-162.5 -66t-162 66t-66 166zM434 220q0 77 -47 128t-120 51t-119.5 -51t-46.5 -128t46.5 -128t119.5 -51t120 51t47 128zM194 529l70 159h75l-80 -159h-65z" />
    <glyph glyph-name="ocircumflex" unicode="&#xf4;" horiz-adv-x="535" 
d="M39 220q0 100 66 166.5t162 66.5t162.5 -66.5t66.5 -166.5t-66.5 -166t-162.5 -66t-162 66t-66 166zM434 220q0 77 -47 128t-120 51t-119.5 -51t-46.5 -128t46.5 -128t119.5 -51t120 51t47 128zM309 688l87 -159h-65l-64 114l-64 -114h-65l87 159h84z" />
    <glyph glyph-name="otilde" unicode="&#xf5;" horiz-adv-x="535" 
d="M39 220q0 100 66 166.5t162 66.5t162.5 -66.5t66.5 -166.5t-66.5 -166t-162.5 -66t-162 66t-66 166zM434 220q0 77 -47 128t-120 51t-119.5 -51t-46.5 -128t46.5 -128t119.5 -51t120 51t47 128zM324 535q-28 0 -64 24.5t-46 24.5q-30 0 -30 -48h-54q0 103 79 103
q28 0 64.5 -24.5t46.5 -24.5q29 0 29 48h55q0 -103 -80 -103z" />
    <glyph glyph-name="odieresis" unicode="&#xf6;" horiz-adv-x="535" 
d="M39 220q0 100 66 166.5t162 66.5t162.5 -66.5t66.5 -166.5t-66.5 -166t-162.5 -66t-162 66t-66 166zM434 220q0 77 -47 128t-120 51t-119.5 -51t-46.5 -128t46.5 -128t119.5 -51t120 51t47 128zM137 574q0 20 15 35t35 15t35.5 -15t15.5 -35t-15.5 -35t-35.5 -15t-35 15
t-15 35zM295 574q0 20 15 35t35 15t35.5 -15t15.5 -35t-15.5 -35t-35.5 -15t-35 15t-15 35z" />
    <glyph glyph-name="divide" unicode="&#xf7;" 
d="M183 177q0 26 18 44t43 18t43 -18t18 -44q0 -25 -17.5 -43t-43.5 -18t-43.5 18t-17.5 43zM183 521q0 26 18 44t43 18t43 -18t18 -44q0 -25 -17.5 -43t-43.5 -18t-43.5 18t-17.5 43zM456 324h-423v57h423v-57z" />
    <glyph glyph-name="oslash" unicode="&#xf8;" horiz-adv-x="534" 
d="M38 220q0 100 66 166.5t162 66.5q73 0 129 -39l32 39h62l-58 -70q64 -66 64 -163q0 -100 -66.5 -166t-162.5 -66q-70 0 -127 38l-32 -39h-63l57 70q-63 66 -63 163zM100 220q0 -69 38 -118l221 269q-40 28 -93 28q-73 0 -119.5 -51t-46.5 -128zM433 220q0 70 -39 118
l-220 -270q40 -27 92 -27q73 0 120 51t47 128z" />
    <glyph glyph-name="ugrave" unicode="&#xf9;" horiz-adv-x="506" 
d="M253 -12q-89 0 -139 48t-50 121v284h61v-278q0 -58 35.5 -89.5t92.5 -31.5t92.5 31.5t35.5 89.5v278h61v-284q0 -73 -50 -121t-139 -48zM255 688l70 -159h-65l-80 159h75z" />
    <glyph glyph-name="uacute" unicode="&#xfa;" horiz-adv-x="506" 
d="M253 -12q-89 0 -139 48t-50 121v284h61v-278q0 -58 35.5 -89.5t92.5 -31.5t92.5 31.5t35.5 89.5v278h61v-284q0 -73 -50 -121t-139 -48zM180 529l70 159h75l-80 -159h-65z" />
    <glyph glyph-name="ucircumflex" unicode="&#xfb;" horiz-adv-x="506" 
d="M253 -12q-89 0 -139 48t-50 121v284h61v-278q0 -58 35.5 -89.5t92.5 -31.5t92.5 31.5t35.5 89.5v278h61v-284q0 -73 -50 -121t-139 -48zM294 688l87 -159h-65l-64 114l-64 -114h-65l87 159h84z" />
    <glyph glyph-name="udieresis" unicode="&#xfc;" horiz-adv-x="506" 
d="M253 -12q-89 0 -139 48t-50 121v284h61v-278q0 -58 35.5 -89.5t92.5 -31.5t92.5 31.5t35.5 89.5v278h61v-284q0 -73 -50 -121t-139 -48zM123 574q0 20 15 35t35 15t35.5 -15t15.5 -35t-15.5 -35t-35.5 -15t-35 15t-15 35zM281 574q0 20 15 35t35 15t35.5 -15t15.5 -35
t-15.5 -35t-35.5 -15t-35 15t-15 35z" />
    <glyph glyph-name="yacute" unicode="&#xfd;" horiz-adv-x="467" 
d="M192 -55l20 55h-20l-164 441h68l138 -392l142 392h65l-197 -519q-20 -51 -46.5 -74t-79.5 -23h-51v51h50q31 0 46.5 16t28.5 53zM189 529l70 159h75l-80 -159h-65z" />
    <glyph glyph-name="thorn" unicode="&#xfe;" horiz-adv-x="564" 
d="M302 -12q-56 0 -102.5 27.5t-67.5 69.5v-260h-62v875h62v-347q20 43 68 71.5t103 28.5q95 0 158 -66t63 -167t-63.5 -166.5t-158.5 -65.5zM460 220q0 77 -45 127.5t-117 50.5q-73 0 -120 -51t-47 -127t47 -126.5t120 -50.5q72 0 117 50.5t45 126.5z" />
    <glyph glyph-name="ydieresis" unicode="&#xff;" horiz-adv-x="467" 
d="M192 -55l20 55h-20l-164 441h68l138 -392l142 392h65l-197 -519q-20 -51 -46.5 -74t-79.5 -23h-51v51h50q31 0 46.5 16t28.5 53zM104 574q0 20 15 35t35 15t35.5 -15t15.5 -35t-15.5 -35t-35.5 -15t-35 15t-15 35zM262 574q0 20 15 35t35 15t35.5 -15t15.5 -35t-15.5 -35
t-35.5 -15t-35 15t-15 35z" />
    <glyph glyph-name="dotlessi" unicode="&#x131;" horiz-adv-x="218" 
d="M148 441v-441h-61v390h-71v51h132z" />
    <glyph glyph-name="Lslash" unicode="&#x141;" horiz-adv-x="488" 
d="M34 249v57l62 22v372h62v-350l221 80v-58l-221 -79v-238h312v-55h-374v271z" />
    <glyph glyph-name="lslash" unicode="&#x142;" horiz-adv-x="220" 
d="M141 700v-322l68 42v-58l-68 -42v-320h-61v283l-67 -41v59l67 40v359h61z" />
    <glyph glyph-name="OE" unicode="&#x152;" horiz-adv-x="1029" 
d="M995 700v-59h-401v-257h258v-56h-258v-270h401v-58h-581q-176 0 -271.5 95t-95.5 255t95.5 255t271.5 95h581zM112 350q0 -144 81 -219t223 -75h114v587h-114q-141 0 -222.5 -75t-81.5 -218z" />
    <glyph glyph-name="oe" unicode="&#x153;" horiz-adv-x="911" 
d="M878 202h-382q6 -70 49.5 -115t111.5 -45q94 0 137 76h71q-28 -60 -84 -95t-124 -35q-65 0 -116 31.5t-77 86.5q-28 -55 -80 -86.5t-117 -31.5q-96 0 -162 66t-66 166t66 166.5t162 66.5q64 0 116.5 -32t80.5 -87q26 55 77 87t115 32q93 0 157.5 -65t64.5 -186zM434 220
q0 77 -47 128t-120 51t-119.5 -51t-46.5 -128t46.5 -128t119.5 -51t120 51t47 128zM656 399q-64 0 -107 -41t-51 -106h312q-5 62 -47.5 104.5t-106.5 42.5z" />
    <glyph glyph-name="Scaron" unicode="&#x160;" horiz-adv-x="500" 
d="M451 632l-34 -44q-27 31 -69.5 51.5t-85.5 20.5q-63 0 -102 -32.5t-39 -83.5q0 -36 20.5 -65.5t73.5 -58.5l82 -45q87 -47 124 -92t37 -111q0 -87 -63 -135.5t-149 -48.5q-136 0 -217 89l34 52q74 -87 181 -87q64 0 108 33.5t44 89.5q0 52 -29 86t-102 73l-72 38
q-72 38 -103 78t-31 102q0 70 54.5 120t149.5 50q55 0 105 -21t83 -59zM381 941l-87 -159h-84l-87 159h65l64 -114l64 114h65z" />
    <glyph glyph-name="scaron" unicode="&#x161;" horiz-adv-x="384" 
d="M343 398l-34 -42q-53 46 -112 46q-39 0 -61.5 -18t-22.5 -44q0 -45 58 -68l62 -25q60 -24 85.5 -55t25.5 -78t-40 -86.5t-115 -39.5q-99 0 -163 62l33 45q56 -56 132 -56q44 0 68.5 21.5t24.5 53.5q0 31 -20.5 48.5t-71.5 38.5l-42 17q-97 39 -97 118q0 48 40 82.5
t107 34.5q84 0 143 -55zM322 688l-87 -159h-84l-87 159h65l64 -114l64 114h65z" />
    <glyph glyph-name="Ydieresis" unicode="&#x178;" horiz-adv-x="637" 
d="M287 310l-271 390h75l229 -332l227 332h73l-270 -388v-312h-63v310zM190 827q0 20 15 35t35 15t35.5 -15t15.5 -35t-15.5 -35t-35.5 -15t-35 15t-15 35zM348 827q0 20 15 35t35 15t35.5 -15t15.5 -35t-15.5 -35t-35.5 -15t-35 15t-15 35z" />
    <glyph glyph-name="Zcaron" unicode="&#x17d;" horiz-adv-x="571" 
d="M465 643h-425v57h497v-59l-436 -584h436v-57h-508v59zM416 941l-87 -159h-84l-87 159h65l64 -114l64 114h65z" />
    <glyph glyph-name="zcaron" unicode="&#x17e;" horiz-adv-x="415" 
d="M377 441v-52l-268 -338h268v-51h-339v51l268 338h-268v52h339zM336 688l-87 -159h-84l-87 159h65l64 -114l64 114h65z" />
    <glyph glyph-name="florin" unicode="&#x192;" horiz-adv-x="365" 
d="M152 -59v358h-90v51h90v227q0 57 32.5 90t95.5 33h36v-52h-33q-70 0 -70 -65v-233h90v-51h-90v-333q0 -69 -28.5 -105.5t-99.5 -36.5h-36v52h33q70 0 70 65z" />
    <glyph glyph-name="circumflex" unicode="&#x2c6;" horiz-adv-x="318" 
d="M201 688l87 -159h-65l-64 114l-64 -114h-65l87 159h84z" />
    <glyph glyph-name="caron" unicode="&#x2c7;" horiz-adv-x="318" 
d="M288 688l-87 -159h-84l-87 159h65l64 -114l64 114h65z" />
    <glyph glyph-name="breve" unicode="&#x2d8;" horiz-adv-x="278" 
d="M139 569q55 0 55 75v20h54v-43q-3 -49 -33 -75.5t-76 -26.5t-76 26.5t-33 75.5v43h53v-32q0 -63 56 -63z" />
    <glyph glyph-name="dotaccent" unicode="&#x2d9;" horiz-adv-x="164" 
d="M28 591q0 22 16 38t38 16t38 -16t16 -38t-16 -37.5t-38 -15.5t-38 15.5t-16 37.5z" />
    <glyph glyph-name="ring" unicode="&#x2da;" horiz-adv-x="265" 
d="M29 598q0 44 30 73t73 29t73 -29t30 -73q0 -43 -30 -72t-73 -29t-73 29t-30 72zM185 598q0 24 -14.5 40t-38.5 16q-23 0 -37.5 -16t-14.5 -40t14.5 -39.5t37.5 -15.5q24 0 38.5 15.5t14.5 39.5z" />
    <glyph glyph-name="ogonek" unicode="&#x2db;" horiz-adv-x="237" 
d="M174 19l25 -10q-115 -68 -115 -117q0 -17 14 -26t35 -9q36 0 73 14v-41q-31 -17 -79 -17q-47 0 -73 20.5t-26 56.5q0 25 16.5 47.5t43 39t46.5 26t40 16.5z" />
    <glyph glyph-name="tilde" unicode="&#x2dc;" horiz-adv-x="344" 
d="M229 535q-28 0 -64.5 24.5t-45.5 24.5q-30 0 -30 -48h-54q0 103 79 103q28 0 64.5 -24.5t46.5 -24.5q29 0 29 48h55q0 -103 -80 -103z" />
    <glyph glyph-name="hungarumlaut" unicode="&#x2dd;" horiz-adv-x="345" 
d="M30 529l72 159h73l-80 -159h-65zM169 529l72 159h73l-80 -159h-65z" />
    <glyph glyph-name="pi" unicode="&#x3c0;" horiz-adv-x="593" 
d="M391 390h-222v-390h-61v390h-83v51h527v-51h-100v-299q0 -43 52 -43l58 2v-50q-32 -4 -69 -4q-102 0 -102 94v300z" />
    <glyph glyph-name="endash" unicode="&#x2013;" horiz-adv-x="567" 
d="M62 234v57h443v-57h-443z" />
    <glyph glyph-name="emdash" unicode="&#x2014;" horiz-adv-x="1032" 
d="M62 234v57h908v-57h-908z" />
    <glyph glyph-name="quoteleft" unicode="&#x2018;" horiz-adv-x="235" 
d="M175 552q0 -25 -18 -43t-43 -18t-43 18t-18 43q0 20 10 38l66 122h54l-46 -102q38 -16 38 -58z" />
    <glyph glyph-name="quoteright" unicode="&#x2019;" horiz-adv-x="240" 
d="M69 650q0 26 18 44t43 18t43 -18t18 -44q0 -18 -10 -38l-66 -121h-54l46 102q-38 14 -38 57z" />
    <glyph glyph-name="quotesinglbase" unicode="&#x201a;" horiz-adv-x="248" 
d="M63 48q0 26 18 44t43 18t43 -18t18 -44q0 -18 -10 -38l-66 -121h-54l46 102q-38 14 -38 57z" />
    <glyph glyph-name="quotedblleft" unicode="&#x201c;" horiz-adv-x="406" 
d="M175 552q0 -25 -18 -43t-43 -18t-43 18t-18 43q0 20 10 38l66 122h54l-46 -102q38 -16 38 -58zM345 552q0 -25 -17.5 -43t-42.5 -18t-43 17.5t-18 43.5q0 22 9 38l66 122h55l-46 -102q37 -15 37 -58z" />
    <glyph glyph-name="quotedblright" unicode="&#x201d;" horiz-adv-x="411" 
d="M240 650q0 26 17.5 44t42.5 18q26 0 43.5 -18t17.5 -44q0 -20 -9 -38l-66 -121h-55l46 102q-37 13 -37 57zM69 650q0 26 18 44t43 18t43 -18t18 -44q0 -18 -10 -38l-66 -121h-54l46 102q-38 14 -38 57z" />
    <glyph glyph-name="quotedblbase" unicode="&#x201e;" horiz-adv-x="418" 
d="M234 48q0 26 17.5 44t42.5 18q26 0 43.5 -18t17.5 -44q0 -20 -9 -38l-66 -121h-55l46 102q-37 13 -37 57zM63 48q0 26 18 44t43 18t43 -18t18 -44q0 -18 -10 -38l-66 -121h-54l46 102q-38 14 -38 57z" />
    <glyph glyph-name="dagger" unicode="&#x2020;" horiz-adv-x="504" 
d="M281 0h-59v434h-185v55h185v211h59v-211h186v-55h-186v-434z" />
    <glyph glyph-name="daggerdbl" unicode="&#x2021;" horiz-adv-x="540" 
d="M55 434v55h185v211h59v-211h186v-55h-186v-151h186v-56h-186v-227h-59v227h-185v56h185v151h-185z" />
    <glyph glyph-name="bullet" unicode="&#x2022;" horiz-adv-x="350" 
d="M82 359q0 38 27.5 65t65.5 27q37 0 64.5 -27.5t27.5 -64.5q0 -38 -27 -65.5t-65 -27.5t-65.5 27.5t-27.5 65.5z" />
    <glyph glyph-name="ellipsis" unicode="&#x2026;" horiz-adv-x="747" 
d="M62 48q0 25 17.5 43t42.5 18q26 0 43.5 -17.5t17.5 -43.5q0 -25 -18 -42.5t-43 -17.5t-42.5 17.5t-17.5 42.5zM313 48q0 25 17.5 43t42.5 18t43 -17.5t18 -43.5q0 -25 -18 -42.5t-43 -17.5t-42.5 17.5t-17.5 42.5zM564 48q0 25 17.5 43t42.5 18q26 0 43.5 -17.5
t17.5 -43.5q0 -25 -18 -42.5t-43 -17.5t-42.5 17.5t-17.5 42.5z" />
    <glyph glyph-name="perthousand" unicode="&#x2030;" horiz-adv-x="1043" 
d="M65 563q0 62 43.5 105.5t104.5 43.5t105 -44t44 -105t-44 -105t-105 -44t-104.5 43.5t-43.5 105.5zM123 563q0 -39 26.5 -67t63.5 -28t63.5 28t26.5 67t-26.5 67t-63.5 28t-63.5 -28t-26.5 -67zM660 136q0 -61 -44 -104.5t-105 -43.5t-104.5 43.5t-43.5 104.5t43.5 105
t104.5 44t105 -43.5t44 -105.5zM601 136q0 39 -26.5 67t-63.5 28t-63 -28t-26 -67q0 -38 26 -66t63 -28t63.5 28t26.5 66zM667 548l-585 -450l-33 45l585 449zM1008 136q0 -61 -44 -104.5t-105 -43.5t-104.5 43.5t-43.5 104.5t43.5 105t104.5 44t105 -43.5t44 -105.5z
M949 136q0 39 -26.5 67t-63.5 28t-63 -28t-26 -67q0 -38 26 -66t63 -28t63.5 28t26.5 66z" />
    <glyph glyph-name="guilsinglleft" unicode="&#x2039;" horiz-adv-x="279" 
d="M152 86l-103 153l103 153h69l-103 -153l103 -153h-69z" />
    <glyph glyph-name="guilsinglright" unicode="&#x203a;" horiz-adv-x="279" 
d="M230 239l-104 -153h-68l103 153l-103 153h68z" />
    <glyph glyph-name="fraction" unicode="&#x2044;" horiz-adv-x="677" 
d="M646 548l-585 -450l-33 45l585 449z" />
    <glyph glyph-name="Euro" unicode="&#x20ac;" horiz-adv-x="727" 
d="M42 406v53h75q26 116 101 184.5t183 68.5q106 0 177 -56.5t97 -161.5h-64q-48 163 -210 163q-83 0 -140 -53.5t-79 -144.5h279v-53h-288q-3 -27 -3 -56q0 -31 3 -58h288v-53h-279q22 -91 78.5 -144t140.5 -53q162 0 210 163h64q-26 -105 -97 -161t-177 -56
q-109 0 -183.5 68t-99.5 183h-76v53h67q-3 27 -3 58q0 29 3 56h-67z" />
    <glyph glyph-name="trademark" unicode="&#x2122;" horiz-adv-x="1049" 
d="M758 395l126 305h87v-421h-61v341l-125 -301h-56l-126 301v-341h-58v421h87zM58 700h386v-54h-164v-367h-59v367h-163v54z" />
    <glyph glyph-name="Omega" unicode="&#x2126;" horiz-adv-x="663" 
d="M332 657q-93 0 -160 -56.5t-67 -162.5q0 -176 172 -222v-216h-199v55h139v131q-43 13 -79.5 41t-65 83.5t-28.5 128.5q0 123 82.5 198t205.5 75q122 0 204.5 -75t82.5 -198q0 -73 -28.5 -128.5t-65 -83.5t-79.5 -41v-131h139v-55h-199v216q172 46 172 222
q0 106 -66.5 162.5t-159.5 56.5z" />
    <glyph glyph-name="partialdiff" unicode="&#x2202;" horiz-adv-x="544" 
d="M206 689q29 -18 59.5 -41.5t74 -67.5t75.5 -91.5t55.5 -114t23.5 -135.5q0 -112 -65 -181.5t-163 -69.5q-96 0 -162 66t-66 166t65.5 166.5t160.5 66.5q32 0 70.5 -15t63.5 -45l5 4q-37 82 -129 168.5t-150 121.5zM432 220q0 76 -46.5 127t-119.5 51t-119.5 -51
t-46.5 -127t46.5 -127t119.5 -51t119.5 51t46.5 127z" />
    <glyph glyph-name="Delta" unicode="&#x2206;" horiz-adv-x="634" 
d="M35 57l243 643h77l244 -643v-57h-564v57zM99 55h434l-218 589z" />
    <glyph glyph-name="product" unicode="&#x220f;" horiz-adv-x="667" 
d="M576 0h-63v642h-360v-642h-62v700h485v-700z" />
    <glyph glyph-name="summation" unicode="&#x2211;" horiz-adv-x="586" 
d="M528 700v-58h-411l198 -267v-36l-202 -282h415v-57h-481v59l210 296l-210 286v59h481z" />
    <glyph glyph-name="minus" unicode="&#x2212;" 
d="M456 324h-423v57h423v-57z" />
    <glyph glyph-name="radical" unicode="&#x221a;" horiz-adv-x="541" 
d="M234 50l230 650h66l-256 -700h-82l-164 441h68z" />
    <glyph glyph-name="infinity" unicode="&#x221e;" horiz-adv-x="929" 
d="M432 350q-36 86 -74 116t-92 30q-49 0 -89.5 -35t-40.5 -111q0 -77 40.5 -112t89.5 -35q54 0 92 30.5t74 116.5zM71 350q0 94 57 148.5t135 54.5q69 0 121 -39.5t80 -114.5q28 75 80.5 114.5t121.5 39.5q78 0 135 -54.5t57 -148.5t-57 -148.5t-135 -54.5
q-69 0 -121.5 39.5t-80.5 114.5q-28 -75 -80 -114.5t-121 -39.5q-78 0 -135 54.5t-57 148.5zM793 350q0 76 -40.5 111t-89.5 35q-54 0 -92 -30t-74 -116q36 -86 74 -116.5t92 -30.5q49 0 89.5 35t40.5 112z" />
    <glyph glyph-name="integral" unicode="&#x222b;" horiz-adv-x="313" 
d="M126 -59v636q0 56 31.5 89.5t96.5 33.5h36v-52h-33q-70 0 -70 -65v-636q0 -56 -32 -89.5t-96 -33.5h-36v52h33q70 0 70 65z" />
    <glyph glyph-name="approxequal" unicode="&#x2248;" 
d="M123 489q24 0 121.5 -27.5t117.5 -27.5q23 0 31 9.5t8 33.5v11h58v-20q0 -36 -19.5 -65t-67.5 -29q-28 0 -131 28t-115 28q-18 0 -25 -10.5t-8 -33.5v-11h-57v21q0 37 19 65t68 28zM123 323q24 0 121.5 -27.5t117.5 -27.5q23 0 31 9.5t8 33.5v11h58v-20q0 -36 -19.5 -65
t-67.5 -29q-28 0 -131 28t-115 28q-18 0 -25 -10.5t-8 -33.5v-11h-57v21q0 37 19 65t68 28z" />
    <glyph glyph-name="notequal" unicode="&#x2260;" 
d="M34 406v56h180v103h62v-103h179v-56h-179v-113h179v-56h-179v-103h-62v103h-180v56h180v113h-180z" />
    <glyph glyph-name="lessequal" unicode="&#x2264;" 
d="M449 226v-65l-423 152v69l423 152v-65l-353 -121zM448 0h-423v57h423v-57z" />
    <glyph glyph-name="greaterequal" unicode="&#x2265;" 
d="M464 0h-423v57h423v-57zM41 161v65l352 122l-352 121v65l423 -152v-69z" />
    <glyph glyph-name="lozenge" unicode="&#x25ca;" horiz-adv-x="467" 
d="M276 0h-82l-159 350l159 350h82l154 -350zM235 648l-134 -298l134 -299l129 299z" />
    <glyph glyph-name="apple" horiz-adv-x="1200" 
d="M1053 734q48 -49 74.5 -118t26.5 -143q0 -85 -32 -168t-84 -151.5t-121.5 -130t-141.5 -107t-146 -78.5q-31 -14 -62 0q-97 44 -187 107.5t-166.5 144.5t-122.5 181.5t-46 203.5q0 74 27 143t75 119q92 93 235 93q124 0 222 -86q94 84 217 84q141 0 232 -94zM1110 474
q0 67 -24.5 128.5t-69.5 105.5q-82 79 -198 79q-121 0 -218 -87q-102 88 -221 88q-114 0 -195 -78q-45 -44 -70 -106.5t-25 -130.5q0 -137 90 -268q67 -98 171 -180q53 -43 113.5 -80.5t87.5 -51t38 -17.5q9 -4 18 0q11 4 38 17.5t88 51t115 79.5q106 83 171 179
q91 133 91 271zM818 751q103 0 172 -69q83 -81 83 -209q0 -125 -84 -250q-62 -89 -164 -170q-108 -86 -227 -143q-116 56 -226 144q-103 82 -163 172q-83 120 -83 248t84 210q71 68 172 68t192 -77q-55 -58 -99 -135q-77 -135 -123 -319l-50 10q-7 2 -13.5 -2t-7.5 -11
q-4 -16 14 -20l135 -29q16 -4 20 13q3 17 -13 21l-48 10q39 155 100 274q52 -19 109 -19q60 0 112 20q62 -124 98 -276l-48 -10q-16 -4 -14 -20q4 -18 21 -14l135 28q17 4 13 20q-1 7 -7 11.5t-13 2.5l-49 -10v1q-1 1 -1 2q-47 186 -123 320q-43 78 -95 131q90 77 191 77z
M747 97q0 7 -5.5 12.5t-12.5 5.5h-179q34 18 57 32.5t53.5 39t46.5 54.5t16 63q0 50 -33 87t-90 37q-56 0 -93.5 -32.5t-37.5 -83.5q0 -36 24.5 -64.5t62.5 -28.5q30 0 54 19t24 54q0 23 -11.5 33.5t-24.5 10.5q-14 0 -23.5 -9.5t-9.5 -22.5q0 -17 15 -27q1 -1 0 -6.5
t-7.5 -10.5t-18.5 -5q-22 0 -34.5 18.5t-12.5 39.5q0 36 25 58t66 22q40 0 62.5 -26t22.5 -62q0 -68 -109 -139q-22 -14 -46.5 -27t-38.5 -20.5t-15 -8.5q-8 -10 -4 -20q5 -11 17 -11h241q19 0 19 18zM791 595l26 -50q11 -22 35 -30q29 -8 55 7q25 13 34.5 39.5t-2.5 49.5
l-33 67q-3 7 -11 9t-14 -1l-135 -74q-16 -9 -7 -25t25 -7zM1031 403l-40 89q-3 7 -10 10q-8 2 -14 -1l-129 -62q-16 -9 -9 -24l47 -105q7 -16 23 -9q7 3 10 10t0 13l-40 90l33 15l15 -33q7 -16 24 -9q16 7 9 24l-15 34l31 15l32 -72q7 -16 24 -9q16 7 9 24zM598 506
q-48 0 -92 14q47 82 94 130q43 -44 93 -129q-43 -15 -95 -15zM352 597l-98 -22q-18 -4 -14 -22t22 -14l104 23l9 -22q-7 -9 -7 -18q0 -10 8 -18t18 -8q11 0 17 8q13 12 4 34l-63 159q-7 17 -24 10t-10 -24zM209 362l17 50l114 -40q18 -7 23 11q3 7 -0.5 14t-10.5 9l-115 41
l15 47q5 18 -12 23q-7 2 -14 -1.5t-9 -10.5l-43 -132q-2 -7 1.5 -14t10.5 -9q18 -5 23 12zM849 561l-26 52l59 32l25 -50q5 -12 0 -24t-17 -18q-29 -13 -41 8zM566 3q0 -14 9.5 -23.5t22.5 -9.5t22.5 10t9.5 22q0 14 -9 23.5t-23 9.5t-23 -9.5t-9 -22.5zM421 655
q0 -14 9.5 -23.5t22.5 -9.5t22.5 10t9.5 22q0 14 -9 23.5t-23 9.5t-23 -9.5t-9 -22.5z" />
    <glyph glyph-name="zero.onum" horiz-adv-x="527" 
d="M263 492q92 0 147.5 -64t55.5 -188t-55.5 -188t-147.5 -64q-91 0 -146.5 64t-55.5 188t55.5 188t146.5 64zM123 240q0 -95 36.5 -146t103.5 -51q68 0 104.5 51t36.5 146t-36.5 146.5t-104.5 51.5q-67 0 -103.5 -51.5t-36.5 -146.5z" />
    <glyph glyph-name="one.onum" horiz-adv-x="417" 
d="M61 427v52h192v-427h130v-52h-321v52h131v375h-132z" />
    <glyph glyph-name="two.onum" horiz-adv-x="495" 
d="M64 0v55l131 87q49 33 72 49.5t49.5 41.5t36.5 49.5t10 55.5q0 43 -30.5 72t-83.5 29q-57 0 -89 -30t-32 -75q0 -31 16 -63l-55 -12q-21 35 -21 78q0 63 49 108.5t132 45.5q79 0 128 -43.5t49 -110.5q0 -65 -37.5 -109t-122.5 -100l-115 -76h281v-52h-368z" />
    <glyph glyph-name="three.onum" horiz-adv-x="480" 
d="M232 -147q61 0 96 40t35 120q0 75 -40.5 111.5t-111.5 36.5q-30 0 -51 -3v46l193 221h-282v54h343v-59l-184 -212h2q83 0 137 -53.5t54 -141.5q0 -103 -54 -156.5t-136 -53.5q-77 0 -129.5 47.5t-52.5 130.5v42h57l1 -36q1 -65 35.5 -99.5t87.5 -34.5z" />
    <glyph glyph-name="four.onum" horiz-adv-x="494" 
d="M30 25v50l236 404h93v-404h102v-50h-102v-210h-58v210h-271zM297 440l-210 -365h214v365h-4z" />
    <glyph glyph-name="five.onum" horiz-adv-x="488" 
d="M374 24q0 76 -34.5 119.5t-102.5 43.5q-61 0 -102 -37h-52v329h331v-54h-279v-216h3q40 31 105 31q92 0 141.5 -58.5t49.5 -155.5q-1 -104 -57 -163.5t-136 -59.5q-77 0 -129.5 47.5t-52.5 130.5v42h57l1 -36q1 -65 35.5 -99.5t87.5 -34.5q60 0 96.5 45.5t37.5 125.5z
" />
    <glyph glyph-name="six.onum" horiz-adv-x="508" 
d="M284 664h77q-160 -171 -218 -307l3 -1q52 52 128 52q78 0 131.5 -54.5t53.5 -155.5q0 -95 -55.5 -152.5t-143.5 -57.5q-89 0 -143 59t-54 160q0 211 221 457zM121 197q0 -69 35.5 -114.5t103.5 -45.5t104.5 45.5t36.5 114.5t-36.5 115t-104.5 46t-103.5 -45.5
t-35.5 -115.5z" />
    <glyph glyph-name="seven.onum" horiz-adv-x="448" 
d="M176 -186h-64l229 609h-311v56h367v-50z" />
    <glyph glyph-name="eight.onum" horiz-adv-x="540" 
d="M270 676q86 0 136 -50t50 -132q0 -47 -26.5 -90t-72.5 -63q51 -21 83 -66t32 -100q0 -85 -56 -136t-146 -51t-146 51t-56 136q0 55 32 100t83 66q-46 20 -72.5 63t-26.5 90q0 82 50 132t136 50zM401 496q0 55 -34.5 91.5t-96.5 36.5q-63 0 -97.5 -36.5t-34.5 -91.5
q0 -54 35 -90.5t97 -36.5t96.5 36.5t34.5 90.5zM270 37q68 0 105.5 40.5t37.5 96.5q0 58 -37.5 98.5t-105.5 40.5t-105.5 -40.5t-37.5 -98.5q0 -56 37.5 -96.5t105.5 -40.5z" />
    <glyph glyph-name="nine.onum" horiz-adv-x="486" 
d="M215 -184h-77q160 171 218 307l-3 1q-52 -52 -128 -52q-78 0 -131.5 54.5t-53.5 155.5q0 95 55.5 152.5t143.5 57.5q89 0 143 -59t54 -160q0 -211 -221 -457zM378 283q0 69 -35.5 114.5t-103.5 45.5t-104.5 -45.5t-36.5 -114.5t36.5 -115t104.5 -46t103.5 45.5
t35.5 115.5z" />
    </font>
</defs>
</svg>
